<svg width="480" height="480" viewBox="0 0 480 480" fill="none" xmlns="http://www.w3.org/2000/svg">
<g clip-path="url(#clip0_62_4371)">
<g style="mix-blend-mode:plus-darker" opacity="0.6">
<path d="M386.633 385.928C447.12 385.928 496.155 363.279 496.155 335.34C496.155 307.401 447.12 284.753 386.633 284.753C326.145 284.753 277.11 307.401 277.11 335.34C277.11 363.279 326.145 385.928 386.633 385.928Z" fill="url(#paint0_radial_62_4371)"/>
</g>
<g style="mix-blend-mode:plus-darker" opacity="0.6">
<path d="M240 470.588C300.488 470.588 349.523 447.939 349.523 420C349.523 392.061 300.488 369.413 240 369.413C179.512 369.413 130.478 392.061 130.478 420C130.478 447.939 179.512 470.588 240 470.588Z" fill="url(#paint1_radial_62_4371)"/>
</g>
<g style="mix-blend-mode:plus-darker" opacity="0.6">
<path d="M93.3677 387.6C153.855 387.6 202.89 364.951 202.89 337.013C202.89 309.074 153.855 286.425 93.3677 286.425C32.8801 286.425 -16.1548 309.074 -16.1548 337.013C-16.1548 364.951 32.8801 387.6 93.3677 387.6Z" fill="url(#paint2_radial_62_4371)"/>
</g>
<g style="mix-blend-mode:plus-darker" opacity="0.6">
<path d="M240 306.51C306.755 306.51 360.87 281.514 360.87 250.68C360.87 219.846 306.755 194.85 240 194.85C173.246 194.85 119.13 219.846 119.13 250.68C119.13 281.514 173.246 306.51 240 306.51Z" fill="url(#paint3_radial_62_4371)"/>
</g>
<path d="M188.482 161.445V220.935L240 250.68V191.19L188.482 161.445Z" fill="url(#paint4_linear_62_4371)"/>
<path d="M240 250.68L295.485 218.648V159.158L240 191.19V250.68Z" fill="url(#paint5_linear_62_4371)"/>
<path d="M188.482 161.445L243.96 129.413L295.485 159.158L240 191.19L188.482 161.445Z" fill="url(#paint6_linear_62_4371)"/>
<path d="M395.19 270.015C395.183 269.858 395.175 269.7 395.153 269.55C395.138 269.423 395.123 269.295 395.1 269.175C395.093 269.153 395.093 269.138 395.085 269.115C395.085 269.1 395.078 269.093 395.078 269.078C395.063 269.003 395.048 268.92 395.025 268.845C395.003 268.748 394.973 268.658 394.943 268.568C394.913 268.478 394.883 268.395 394.853 268.313C394.823 268.23 394.785 268.155 394.755 268.08C394.718 268.005 394.688 267.938 394.65 267.87C394.613 267.803 394.575 267.735 394.53 267.668C394.493 267.6 394.448 267.54 394.403 267.48C394.358 267.42 394.313 267.36 394.268 267.308C394.26 267.3 394.253 267.293 394.245 267.285L394.238 267.278C394.2 267.233 394.163 267.188 394.118 267.15C394.065 267.098 394.013 267.045 393.953 267C393.893 266.948 393.84 266.903 393.78 266.865C393.72 266.82 393.653 266.775 393.585 266.738C393.578 266.73 393.57 266.73 393.563 266.723L274.26 196.695C273.998 196.538 271.425 195 269.145 196.208C265.973 197.888 263.415 202.313 263.475 205.875C263.49 206.798 263.708 207.555 263.97 208.14C264.345 208.965 264.99 209.633 265.77 210.098L385.538 280.403C385.665 280.478 385.793 280.538 385.928 280.59C385.973 280.605 386.025 280.62 386.07 280.635C386.16 280.665 386.258 280.695 386.355 280.718C386.415 280.733 386.475 280.733 386.535 280.74C386.625 280.755 386.715 280.77 386.813 280.778C386.88 280.785 386.948 280.778 387.015 280.778C387.105 280.778 387.195 280.778 387.293 280.77C387.368 280.763 387.443 280.755 387.518 280.74C387.615 280.725 387.705 280.718 387.803 280.695C387.878 280.68 387.96 280.658 388.043 280.635C388.14 280.613 388.238 280.59 388.335 280.553C388.418 280.523 388.5 280.493 388.59 280.463C388.688 280.425 388.785 280.388 388.89 280.343C388.973 280.305 389.063 280.26 389.153 280.215C389.22 280.178 389.295 280.155 389.363 280.11C389.423 280.08 389.483 280.043 389.55 280.005C389.67 279.938 389.783 279.87 389.903 279.795C390.038 279.705 390.173 279.615 390.308 279.518C390.428 279.435 390.54 279.345 390.653 279.255C390.66 279.248 390.668 279.24 390.675 279.233C390.683 279.225 390.683 279.225 390.69 279.218C390.78 279.143 390.878 279.068 390.968 278.985C391.065 278.903 391.155 278.82 391.253 278.73C391.343 278.648 391.433 278.565 391.515 278.475C391.59 278.4 391.665 278.325 391.733 278.25C391.74 278.243 391.74 278.243 391.748 278.235C391.755 278.228 391.763 278.22 391.77 278.213C391.853 278.13 391.928 278.04 392.01 277.95C392.085 277.86 392.168 277.77 392.243 277.68C392.318 277.59 392.393 277.5 392.468 277.41C392.543 277.32 392.61 277.223 392.685 277.125C392.693 277.118 392.7 277.11 392.7 277.103C392.7 277.095 392.708 277.095 392.708 277.088C392.768 277.005 392.828 276.923 392.888 276.833C392.955 276.735 393.023 276.638 393.09 276.533C393.158 276.428 393.225 276.33 393.293 276.225C393.36 276.12 393.428 276.015 393.488 275.903C393.503 275.88 393.51 275.858 393.525 275.835C393.533 275.828 393.54 275.813 393.54 275.805C393.585 275.723 393.63 275.648 393.675 275.565C393.743 275.453 393.803 275.333 393.863 275.213C393.93 275.085 393.99 274.958 394.05 274.83C394.103 274.718 394.148 274.613 394.2 274.5C394.208 274.485 394.215 274.47 394.223 274.455C394.23 274.433 394.245 274.41 394.253 274.388C394.335 274.208 394.41 274.02 394.478 273.833C394.545 273.66 394.59 273.488 394.65 273.308C394.688 273.188 394.733 273.075 394.763 272.963C394.778 272.903 394.8 272.85 394.823 272.79C394.913 272.453 394.995 272.123 395.048 271.793C395.048 271.77 395.048 271.755 395.055 271.733C395.07 271.62 395.078 271.515 395.093 271.41C395.13 271.148 395.168 270.885 395.183 270.623C395.19 270.518 395.19 270.413 395.19 270.308C395.198 270.225 395.19 270.12 395.19 270.015Z" fill="url(#paint7_linear_62_4371)"/>
<path d="M220.215 204.983C220.215 204.893 220.215 204.81 220.215 204.72C220.215 204.683 220.215 204.645 220.215 204.608C220.215 204.585 220.215 204.563 220.215 204.533C220.215 204.375 220.208 204.225 220.193 204.068C220.193 204.03 220.185 203.993 220.178 203.955C220.17 203.903 220.17 203.858 220.163 203.805C220.155 203.73 220.148 203.655 220.14 203.58C220.125 203.475 220.103 203.363 220.088 203.258C220.08 203.213 220.073 203.16 220.065 203.115C220.058 203.093 220.058 203.078 220.058 203.055C220.02 202.86 219.975 202.665 219.923 202.478C219.923 202.47 219.915 202.463 219.915 202.448C219.893 202.365 219.863 202.283 219.84 202.2C219.795 202.065 219.758 201.93 219.713 201.795C219.705 201.78 219.698 201.765 219.698 201.758C219.593 201.48 219.473 201.203 219.345 200.933C219.338 200.918 219.33 200.895 219.323 200.88C219.308 200.85 219.285 200.828 219.27 200.798C219.083 200.423 218.865 200.063 218.625 199.718C218.618 199.71 218.61 199.695 218.603 199.688C218.355 199.343 218.078 199.02 217.785 198.713C217.763 198.683 217.74 198.653 217.71 198.63C217.695 198.615 217.673 198.593 217.65 198.578C217.44 198.368 217.223 198.165 216.99 197.985C216.81 197.835 216.615 197.7 216.42 197.565C216.398 197.55 216.375 197.535 216.345 197.52C216.203 197.43 216.06 197.34 215.918 197.258C215.768 197.168 215.61 197.085 215.46 197.01C215.43 196.995 215.408 196.988 215.378 196.973C215.355 196.958 215.325 196.95 215.303 196.935C215.213 196.89 215.115 196.845 215.025 196.808C214.883 196.748 214.748 196.695 214.605 196.65C214.508 196.62 214.418 196.583 214.32 196.56C214.275 196.545 214.238 196.538 214.193 196.523C214.058 196.485 213.915 196.448 213.78 196.418C213.743 196.41 213.705 196.403 213.668 196.395C213.63 196.388 213.593 196.38 213.555 196.373C213.495 196.358 213.428 196.35 213.368 196.335C213.225 196.313 213.09 196.29 212.948 196.283C212.94 196.283 212.933 196.283 212.933 196.283C212.918 196.283 212.903 196.283 212.888 196.283C212.76 196.268 212.64 196.26 212.52 196.253C212.453 196.253 212.378 196.253 212.31 196.253C212.265 196.253 212.22 196.253 212.175 196.253C212.138 196.253 212.108 196.253 212.07 196.253C211.913 196.26 211.755 196.268 211.598 196.283C211.59 196.283 211.575 196.283 211.568 196.29C211.53 196.298 211.493 196.298 211.448 196.305C211.328 196.32 211.2 196.335 211.08 196.358C211.043 196.365 211.005 196.373 210.96 196.38C210.878 196.395 210.795 196.418 210.705 196.433C210.638 196.448 210.563 196.463 210.488 196.478C210.443 196.493 210.398 196.508 210.36 196.523C210.233 196.56 210.105 196.605 209.978 196.65C209.918 196.673 209.85 196.688 209.79 196.71C209.76 196.725 209.738 196.74 209.708 196.748C209.453 196.853 209.205 196.965 208.965 197.1L130.988 241.635C131.228 241.5 131.475 241.388 131.73 241.283C131.82 241.245 131.91 241.215 132 241.178C132.128 241.133 132.255 241.088 132.383 241.05C132.495 241.02 132.615 240.99 132.728 240.96C132.81 240.938 132.893 240.923 132.983 240.908C133.14 240.878 133.305 240.855 133.47 240.833C133.508 240.825 133.545 240.818 133.583 240.818C133.785 240.795 133.988 240.788 134.19 240.788C134.235 240.788 134.28 240.788 134.325 240.788C134.52 240.788 134.708 240.795 134.903 240.818C134.918 240.818 134.933 240.818 134.948 240.818C135.158 240.84 135.36 240.87 135.57 240.908C135.608 240.915 135.645 240.923 135.69 240.93C135.908 240.975 136.125 241.028 136.343 241.095C136.673 241.193 137.003 241.328 137.325 241.478C137.348 241.493 137.378 241.5 137.4 241.515C137.73 241.673 138.06 241.853 138.375 242.063C138.6 242.213 138.81 242.363 139.02 242.528C139.253 242.715 139.47 242.918 139.68 243.128C139.725 243.173 139.763 243.218 139.808 243.263C140.108 243.57 140.385 243.893 140.625 244.238C140.633 244.245 140.64 244.253 140.64 244.268C140.88 244.613 141.098 244.973 141.285 245.348C141.308 245.393 141.33 245.438 141.353 245.483C141.488 245.753 141.6 246.03 141.705 246.308C141.758 246.45 141.803 246.6 141.848 246.75C141.87 246.833 141.9 246.915 141.923 246.998C141.983 247.215 142.035 247.44 142.08 247.665C142.088 247.71 142.095 247.763 142.103 247.808C142.133 247.988 142.163 248.175 142.178 248.355C142.185 248.408 142.193 248.453 142.193 248.505C142.215 248.723 142.223 248.933 142.23 249.15C142.23 249.188 142.23 249.225 142.23 249.263C142.23 249.473 142.223 249.69 142.208 249.9C142.208 249.915 142.208 249.93 142.208 249.945C142.185 250.163 142.155 250.38 142.118 250.598C142.11 250.635 142.103 250.68 142.095 250.718C142.058 250.928 142.005 251.138 141.945 251.34C141.93 251.385 141.923 251.423 141.908 251.468C141.848 251.663 141.78 251.858 141.705 252.045C141.698 252.068 141.69 252.09 141.675 252.12C141.585 252.345 141.48 252.57 141.368 252.788C141.24 253.02 141.105 253.23 140.955 253.44C140.903 253.523 140.85 253.598 140.79 253.673C140.723 253.763 140.648 253.845 140.573 253.928C140.385 254.153 140.183 254.363 139.973 254.558C139.898 254.633 139.815 254.7 139.733 254.768C139.448 255 139.148 255.225 138.833 255.405L216.81 210.87C217.125 210.69 217.425 210.473 217.71 210.233C217.793 210.165 217.868 210.09 217.95 210.023C218.16 209.828 218.363 209.618 218.55 209.393C218.595 209.34 218.648 209.303 218.685 209.25C218.715 209.213 218.738 209.175 218.76 209.138C218.82 209.063 218.873 208.98 218.925 208.898C218.993 208.808 219.06 208.718 219.12 208.62C219.195 208.5 219.27 208.373 219.338 208.245C219.368 208.193 219.39 208.14 219.42 208.095C219.503 207.938 219.578 207.773 219.645 207.608C219.645 207.6 219.653 207.593 219.653 207.578C219.66 207.555 219.668 207.533 219.683 207.51C219.728 207.39 219.78 207.27 219.818 207.15C219.84 207.075 219.863 207.008 219.885 206.933C219.9 206.895 219.908 206.85 219.923 206.813C219.93 206.783 219.945 206.753 219.953 206.715C219.99 206.573 220.028 206.43 220.058 206.288C220.065 206.258 220.073 206.22 220.073 206.19C220.08 206.153 220.088 206.108 220.095 206.07C220.11 206.003 220.125 205.935 220.133 205.86C220.155 205.718 220.17 205.575 220.185 205.433C220.185 205.425 220.185 205.418 220.185 205.418C220.185 205.403 220.185 205.388 220.185 205.373C220.2 205.23 220.208 205.11 220.215 204.983Z" fill="url(#paint8_linear_62_4371)"/>
<path d="M136.335 241.095C137.025 241.305 137.715 241.628 138.368 242.055C141.938 244.403 143.28 249.203 141.383 252.773C139.83 255.683 136.59 256.875 133.515 255.938C132.825 255.728 132.143 255.405 131.483 254.978C127.905 252.623 126.563 247.823 128.46 244.26C130.013 241.35 133.253 240.158 136.335 241.095Z" fill="#373737"/>
<path d="M335.115 246.105V305.595L386.633 335.34V275.85L335.115 246.105Z" fill="url(#paint9_linear_62_4371)"/>
<path d="M386.633 335.34L442.118 303.308V243.818L386.633 275.85V335.34Z" fill="url(#paint10_linear_62_4371)"/>
<path d="M335.115 246.105L390.593 214.073L442.118 243.818L386.633 275.85L335.115 246.105Z" fill="url(#paint11_linear_62_4371)"/>
<path d="M287.175 329.595C289.013 330.158 290.715 331.44 291.84 333.315C294.098 337.065 293.205 341.753 289.845 343.8C288.165 344.82 286.193 344.985 284.348 344.423C282.51 343.86 280.808 342.578 279.683 340.703C277.425 336.953 278.318 332.265 281.678 330.218C283.365 329.198 285.338 329.04 287.175 329.595Z" fill="#373737"/>
<path d="M370.155 291.345C370.155 291.3 370.155 291.263 370.147 291.218C370.14 291.06 370.125 290.91 370.102 290.753C370.102 290.73 370.095 290.715 370.095 290.693C370.087 290.655 370.08 290.618 370.08 290.58C370.065 290.475 370.05 290.37 370.035 290.273C370.02 290.19 369.997 290.108 369.982 290.025C369.967 289.973 369.96 289.913 369.945 289.86C369.937 289.83 369.93 289.793 369.922 289.763C369.877 289.575 369.825 289.388 369.765 289.2V289.193C369.757 289.163 369.742 289.125 369.727 289.095C369.667 288.908 369.6 288.72 369.525 288.54C369.517 288.525 369.51 288.518 369.51 288.503C369.397 288.233 369.27 287.963 369.127 287.7C369.12 287.685 369.12 287.678 369.112 287.663C369 287.453 368.872 287.243 368.737 287.04C368.557 286.77 368.362 286.515 368.16 286.268C368.1 286.193 368.032 286.125 367.972 286.05C367.822 285.878 367.665 285.713 367.5 285.555C367.462 285.518 367.425 285.473 367.38 285.428C367.35 285.398 367.32 285.383 367.29 285.353C367.117 285.195 366.937 285.053 366.757 284.91C366.72 284.88 366.682 284.843 366.637 284.813C366.63 284.805 366.615 284.798 366.6 284.79C366.532 284.738 366.457 284.693 366.382 284.648C366.277 284.573 366.165 284.498 366.06 284.43C366.037 284.415 366.015 284.408 365.992 284.393C365.932 284.355 365.88 284.325 365.82 284.295C365.73 284.243 365.647 284.19 365.557 284.145C365.497 284.115 365.437 284.085 365.377 284.055C365.325 284.025 365.272 284.003 365.212 283.98C365.175 283.958 365.13 283.943 365.092 283.92C364.942 283.853 364.792 283.793 364.642 283.74C364.635 283.74 364.627 283.733 364.62 283.733C364.605 283.725 364.582 283.718 364.567 283.718C364.447 283.673 364.327 283.635 364.207 283.598C364.11 283.568 364.012 283.538 363.915 283.515C363.87 283.5 363.825 283.493 363.78 283.485C363.637 283.448 363.502 283.425 363.36 283.395C363.33 283.388 363.307 283.388 363.277 283.38C363.24 283.373 363.202 283.365 363.157 283.365C363.082 283.35 363.007 283.343 362.94 283.335C362.82 283.32 362.707 283.313 362.587 283.305C362.572 283.305 362.557 283.305 362.535 283.298C362.527 283.298 362.52 283.298 362.512 283.298C362.37 283.29 362.22 283.283 362.077 283.283C362.025 283.283 361.98 283.29 361.927 283.29C361.875 283.29 361.83 283.29 361.777 283.298C361.725 283.298 361.672 283.298 361.627 283.305C361.485 283.313 361.342 283.328 361.207 283.35C361.192 283.35 361.185 283.35 361.17 283.35H361.162C360.99 283.373 360.825 283.403 360.66 283.44C360.63 283.448 360.607 283.455 360.577 283.463C360.502 283.478 360.427 283.5 360.352 283.523C360.262 283.545 360.18 283.568 360.09 283.59C360.052 283.605 360.015 283.62 359.977 283.635C359.85 283.68 359.73 283.725 359.61 283.778C359.542 283.808 359.475 283.823 359.407 283.853C359.385 283.868 359.355 283.883 359.332 283.89C359.085 284.003 358.837 284.13 358.605 284.28L282.525 331.943C282.765 331.793 283.005 331.665 283.26 331.553C283.35 331.508 283.447 331.47 283.537 331.433C283.657 331.38 283.785 331.335 283.905 331.29C284.032 331.253 284.152 331.215 284.28 331.178C284.355 331.155 284.43 331.133 284.505 331.118C284.7 331.073 284.902 331.035 285.105 331.005C285.12 331.005 285.135 331.005 285.142 330.998C285.33 330.975 285.525 330.96 285.72 330.953C285.765 330.953 285.817 330.953 285.862 330.945C286.065 330.938 286.26 330.945 286.462 330.953C286.477 330.953 286.5 330.953 286.515 330.96C286.71 330.975 286.897 330.998 287.085 331.028C287.122 331.035 287.16 331.035 287.205 331.043C287.415 331.08 287.632 331.125 287.842 331.178C288.06 331.238 288.277 331.305 288.487 331.38C288.502 331.388 288.525 331.395 288.547 331.403C288.75 331.478 288.945 331.56 289.14 331.65C289.192 331.673 289.252 331.703 289.305 331.725C289.455 331.8 289.605 331.875 289.747 331.958C289.807 331.988 289.86 332.018 289.92 332.055C290.055 332.138 290.182 332.228 290.317 332.318C290.385 332.363 290.46 332.408 290.527 332.46C290.58 332.498 290.632 332.543 290.677 332.58C290.857 332.723 291.037 332.865 291.21 333.023C291.277 333.09 291.345 333.158 291.42 333.218C291.585 333.375 291.742 333.54 291.892 333.713C291.952 333.78 292.02 333.855 292.08 333.923C292.282 334.17 292.477 334.425 292.657 334.695C292.8 334.913 292.927 335.13 293.047 335.348C293.19 335.61 293.317 335.88 293.43 336.15C293.512 336.345 293.58 336.54 293.647 336.735C293.662 336.773 293.677 336.803 293.685 336.84C293.76 337.065 293.812 337.29 293.865 337.515C293.88 337.568 293.887 337.628 293.902 337.68C293.94 337.868 293.977 338.055 294 338.235C294.007 338.273 294.015 338.31 294.015 338.355C294.045 338.573 294.06 338.79 294.067 339C294.067 339.045 294.067 339.09 294.075 339.135C294.082 339.353 294.082 339.57 294.067 339.788C294.067 339.803 294.067 339.825 294.06 339.84C294.045 340.043 294.03 340.253 294 340.455C293.992 340.493 293.992 340.53 293.985 340.568C293.955 340.778 293.91 340.98 293.865 341.183C293.857 341.228 293.842 341.273 293.827 341.318C293.782 341.498 293.73 341.67 293.67 341.843C293.655 341.88 293.647 341.91 293.632 341.948C293.565 342.143 293.482 342.338 293.392 342.533C293.362 342.6 293.325 342.66 293.295 342.72C293.227 342.848 293.167 342.975 293.092 343.095C293.025 343.208 292.957 343.313 292.882 343.425C292.822 343.508 292.77 343.598 292.71 343.68C292.515 343.95 292.29 344.205 292.05 344.445C291.997 344.498 291.952 344.543 291.9 344.588C291.645 344.828 291.375 345.053 291.075 345.255C291.022 345.285 290.977 345.323 290.925 345.353L367.012 297.66C367.065 297.63 367.11 297.593 367.162 297.563C367.462 297.36 367.732 297.135 367.987 296.895C368.04 296.85 368.092 296.805 368.137 296.753C368.377 296.513 368.595 296.258 368.797 295.988C368.812 295.973 368.827 295.958 368.842 295.935C368.887 295.868 368.925 295.8 368.97 295.733C369.045 295.62 369.112 295.515 369.18 295.403C369.195 295.373 369.217 295.343 369.24 295.313C369.292 295.215 369.337 295.118 369.382 295.028C369.412 294.96 369.45 294.9 369.48 294.84C369.487 294.825 369.502 294.803 369.51 294.788C369.585 294.63 369.652 294.465 369.712 294.3C369.72 294.285 369.72 294.27 369.727 294.263C369.742 294.225 369.75 294.195 369.757 294.158C369.795 294.053 369.832 293.948 369.862 293.835C369.885 293.768 369.9 293.7 369.915 293.625C369.93 293.58 369.937 293.535 369.952 293.49C369.96 293.453 369.975 293.423 369.982 293.385C370.012 293.243 370.042 293.093 370.065 292.95C370.072 292.928 370.072 292.905 370.072 292.875C370.08 292.838 370.08 292.8 370.087 292.77C370.102 292.688 370.11 292.605 370.125 292.515C370.14 292.395 370.147 292.275 370.155 292.155C370.155 292.14 370.155 292.118 370.162 292.103C370.162 292.095 370.162 292.088 370.162 292.08C370.17 291.938 370.17 291.788 370.17 291.645C370.17 291.585 370.162 291.518 370.162 291.458C370.162 291.435 370.162 291.39 370.155 291.345Z" fill="url(#paint12_linear_62_4371)"/>
<path d="M41.8501 246.105V305.595L93.3676 335.34V275.85L41.8501 246.105Z" fill="url(#paint13_linear_62_4371)"/>
<path d="M93.3677 335.34L148.853 303.308V243.818L93.3677 275.85V335.34Z" fill="url(#paint14_linear_62_4371)"/>
<path d="M41.8501 246.105L97.3276 214.073L148.853 243.818L93.3676 275.85L41.8501 246.105Z" fill="url(#paint15_linear_62_4371)"/>
<path d="M249.998 362.558C249.998 362.43 249.99 362.31 249.983 362.19C249.975 362.123 249.975 362.048 249.968 361.98C249.96 361.943 249.96 361.905 249.953 361.868C249.938 361.77 249.923 361.68 249.908 361.59C249.893 361.508 249.878 361.425 249.855 361.343C249.848 361.305 249.833 361.275 249.825 361.245C249.825 361.23 249.818 361.223 249.818 361.208C249.81 361.178 249.803 361.148 249.795 361.118C249.773 361.05 249.75 360.983 249.72 360.915C249.698 360.848 249.668 360.788 249.638 360.728C249.623 360.69 249.6 360.653 249.578 360.615C249.57 360.608 249.57 360.6 249.563 360.593C249.555 360.578 249.548 360.57 249.54 360.555C249.51 360.495 249.473 360.443 249.443 360.39C249.405 360.338 249.375 360.285 249.338 360.24C249.3 360.195 249.263 360.15 249.225 360.105C249.225 360.105 249.225 360.105 249.225 360.098C249.225 360.098 249.225 360.098 249.218 360.09C249.173 360.045 249.135 360 249.09 359.955C249.045 359.91 248.993 359.873 248.94 359.835C248.888 359.798 248.835 359.76 248.783 359.73L123.998 281.13C124.02 281.145 124.035 281.16 124.05 281.175C122.94 280.418 121.14 280.785 119.205 282.368C116.22 284.82 114.053 289.253 114.36 292.268C114.473 293.378 114.908 294.143 115.56 294.54C115.553 294.54 115.545 294.533 115.538 294.533L240.323 373.133C240.51 373.253 240.728 373.328 240.953 373.388C241.005 373.403 241.058 373.41 241.118 373.425C241.35 373.463 241.59 373.485 241.853 373.463C241.875 373.463 241.898 373.455 241.92 373.455C242.168 373.433 242.423 373.373 242.685 373.29C242.753 373.268 242.82 373.253 242.888 373.223C243.173 373.118 243.465 372.99 243.773 372.825C243.78 372.818 243.795 372.818 243.803 372.81C243.96 372.72 244.118 372.623 244.283 372.518C244.313 372.503 244.335 372.48 244.365 372.458C244.395 372.435 244.433 372.413 244.463 372.39C244.53 372.345 244.605 372.293 244.673 372.248C244.785 372.165 244.89 372.083 245.003 371.993C245.04 371.963 245.07 371.933 245.108 371.91C245.175 371.858 245.243 371.798 245.303 371.745C245.4 371.663 245.49 371.58 245.588 371.49C245.678 371.408 245.76 371.325 245.843 371.243C245.925 371.16 246.008 371.078 246.09 370.995C246.12 370.965 246.143 370.943 246.173 370.913C246.18 370.905 246.188 370.898 246.195 370.883C246.24 370.838 246.285 370.793 246.323 370.748C246.398 370.665 246.473 370.583 246.548 370.5C246.623 370.418 246.698 370.328 246.765 370.245C246.84 370.163 246.908 370.073 246.975 369.99C247.035 369.915 247.095 369.84 247.155 369.758C247.155 369.75 247.163 369.75 247.163 369.743C247.17 369.735 247.17 369.728 247.178 369.72C247.245 369.63 247.313 369.54 247.373 369.458C247.44 369.368 247.5 369.278 247.568 369.188C247.628 369.098 247.688 369.008 247.755 368.918C247.815 368.828 247.875 368.738 247.935 368.64C247.965 368.595 247.995 368.55 248.018 368.498C248.025 368.49 248.033 368.475 248.033 368.468C248.055 368.43 248.078 368.393 248.1 368.355C248.16 368.258 248.213 368.168 248.273 368.07C248.333 367.973 248.385 367.875 248.438 367.778C248.498 367.665 248.558 367.56 248.618 367.448C248.663 367.358 248.708 367.268 248.753 367.178C248.76 367.163 248.768 367.155 248.768 367.14C248.775 367.118 248.79 367.095 248.798 367.073C248.88 366.908 248.955 366.743 249.023 366.578C249.098 366.413 249.15 366.248 249.21 366.083C249.263 365.94 249.323 365.805 249.375 365.663C249.495 365.318 249.593 364.98 249.683 364.65C249.698 364.575 249.728 364.508 249.743 364.433C249.743 364.418 249.75 364.403 249.75 364.395C249.81 364.118 249.863 363.848 249.9 363.585C249.915 363.473 249.923 363.36 249.93 363.255C249.93 363.218 249.938 363.18 249.945 363.135C249.945 363.09 249.953 363.045 249.96 363.008C249.998 362.85 249.998 362.7 249.998 362.558Z" fill="url(#paint16_linear_62_4371)"/>
<path d="M188.482 330.765V390.255L240 420V360.51L188.482 330.765Z" fill="url(#paint17_linear_62_4371)"/>
<path d="M240 420L295.485 387.968V328.478L240 360.51V420Z" fill="url(#paint18_linear_62_4371)"/>
<path d="M188.482 330.765L243.96 298.733L295.485 328.478L240 360.51L188.482 330.765Z" fill="url(#paint19_linear_62_4371)"/>
<path d="M386.632 275.85C386.715 285.765 386.692 295.68 386.722 305.595C386.692 315.51 386.707 325.425 386.632 335.34C386.55 325.425 386.572 315.51 386.542 305.595C386.572 295.68 386.55 285.765 386.632 275.85Z" fill="white"/>
<path d="M240 191.19C240.083 201.105 240.06 211.02 240.09 220.935C240.06 230.85 240.075 240.765 240 250.68C239.918 240.765 239.94 230.85 239.91 220.935C239.94 211.02 239.918 201.105 240 191.19Z" fill="white"/>
<path d="M240 360.51C240.083 370.425 240.06 380.34 240.09 390.255C240.06 400.17 240.075 410.085 240 420C239.918 410.085 239.94 400.17 239.91 390.255C239.94 380.34 239.918 370.425 240 360.51Z" fill="white"/>
<path d="M93.3678 275.85C93.4503 285.765 93.4278 295.68 93.4578 305.595C93.4278 315.51 93.4428 325.425 93.3678 335.34C93.2853 325.425 93.3078 315.51 93.2778 305.595C93.3078 295.68 93.2853 285.765 93.3678 275.85Z" fill="white"/>
<path d="M442.118 243.818C432.908 249.225 423.653 254.55 414.42 259.913C405.158 265.223 395.918 270.578 386.633 275.85C395.843 270.443 405.098 265.118 414.33 259.755C423.593 254.445 432.825 249.083 442.118 243.818Z" fill="white"/>
<path d="M295.485 159.158C286.275 164.565 277.02 169.89 267.787 175.253C258.525 180.563 249.285 185.918 240 191.19C249.21 185.783 258.465 180.458 267.697 175.095C276.96 169.785 286.193 164.43 295.485 159.158Z" fill="white"/>
<path d="M295.485 328.478C286.275 333.885 277.02 339.21 267.787 344.573C258.525 349.883 249.285 355.238 240 360.51C249.21 355.103 258.465 349.778 267.697 344.415C276.96 339.098 286.193 333.743 295.485 328.478Z" fill="white"/>
<path d="M148.853 243.818C139.643 249.225 130.388 254.55 121.155 259.913C111.893 265.223 102.653 270.578 93.3677 275.85C102.578 270.443 111.833 265.118 121.065 259.755C130.328 254.445 139.56 249.083 148.853 243.818Z" fill="white"/>
<path d="M386.633 275.85C378.008 270.96 369.428 265.988 360.825 261.06C352.253 256.073 343.658 251.138 335.115 246.105C343.74 250.995 352.32 255.968 360.923 260.895C369.488 265.883 378.09 270.825 386.633 275.85Z" fill="white"/>
<path d="M240 191.19C231.375 186.3 222.795 181.328 214.192 176.4C205.62 171.413 197.025 166.478 188.482 161.445C197.107 166.335 205.687 171.308 214.29 176.235C222.855 181.223 231.45 186.165 240 191.19Z" fill="white"/>
<path d="M240 360.51C231.375 355.62 222.795 350.648 214.192 345.72C205.62 340.733 197.025 335.798 188.482 330.765C197.107 335.655 205.687 340.628 214.29 345.555C222.855 350.543 231.45 355.478 240 360.51Z" fill="white"/>
<path d="M93.3676 275.85C84.7426 270.96 76.1626 265.988 67.5601 261.06C58.9876 256.073 50.3926 251.138 41.8501 246.105C50.4751 250.995 59.0551 255.968 67.6576 260.895C76.2226 265.883 84.8176 270.825 93.3676 275.85Z" fill="white"/>
</g>
<defs>
<radialGradient id="paint0_radial_62_4371" cx="0" cy="0" r="1" gradientUnits="userSpaceOnUse" gradientTransform="translate(386.633 335.34) scale(109.521 50.5891)">
<stop/>
<stop offset="0.0408" stop-color="#242424"/>
<stop offset="0.0994" stop-color="#525252"/>
<stop offset="0.1638" stop-color="#7B7B7B"/>
<stop offset="0.2324" stop-color="#9F9F9F"/>
<stop offset="0.3063" stop-color="#BDBDBD"/>
<stop offset="0.3875" stop-color="#D5D5D5"/>
<stop offset="0.4787" stop-color="#E8E8E8"/>
<stop offset="0.5856" stop-color="#F5F5F5"/>
<stop offset="0.7233" stop-color="#FDFDFD"/>
<stop offset="1" stop-color="white"/>
</radialGradient>
<radialGradient id="paint1_radial_62_4371" cx="0" cy="0" r="1" gradientUnits="userSpaceOnUse" gradientTransform="translate(240 419.998) scale(109.521 50.5891)">
<stop/>
<stop offset="0.0408" stop-color="#242424"/>
<stop offset="0.0994" stop-color="#525252"/>
<stop offset="0.1638" stop-color="#7B7B7B"/>
<stop offset="0.2324" stop-color="#9F9F9F"/>
<stop offset="0.3063" stop-color="#BDBDBD"/>
<stop offset="0.3875" stop-color="#D5D5D5"/>
<stop offset="0.4787" stop-color="#E8E8E8"/>
<stop offset="0.5856" stop-color="#F5F5F5"/>
<stop offset="0.7233" stop-color="#FDFDFD"/>
<stop offset="1" stop-color="white"/>
</radialGradient>
<radialGradient id="paint2_radial_62_4371" cx="0" cy="0" r="1" gradientUnits="userSpaceOnUse" gradientTransform="translate(93.3671 337.013) scale(109.521 50.5891)">
<stop/>
<stop offset="0.0408" stop-color="#242424"/>
<stop offset="0.0994" stop-color="#525252"/>
<stop offset="0.1638" stop-color="#7B7B7B"/>
<stop offset="0.2324" stop-color="#9F9F9F"/>
<stop offset="0.3063" stop-color="#BDBDBD"/>
<stop offset="0.3875" stop-color="#D5D5D5"/>
<stop offset="0.4787" stop-color="#E8E8E8"/>
<stop offset="0.5856" stop-color="#F5F5F5"/>
<stop offset="0.7233" stop-color="#FDFDFD"/>
<stop offset="1" stop-color="white"/>
</radialGradient>
<radialGradient id="paint3_radial_62_4371" cx="0" cy="0" r="1" gradientUnits="userSpaceOnUse" gradientTransform="translate(240 250.681) scale(120.873 55.8327)">
<stop/>
<stop offset="0.0408" stop-color="#242424"/>
<stop offset="0.0994" stop-color="#525252"/>
<stop offset="0.1638" stop-color="#7B7B7B"/>
<stop offset="0.2324" stop-color="#9F9F9F"/>
<stop offset="0.3063" stop-color="#BDBDBD"/>
<stop offset="0.3875" stop-color="#D5D5D5"/>
<stop offset="0.4787" stop-color="#E8E8E8"/>
<stop offset="0.5856" stop-color="#F5F5F5"/>
<stop offset="0.7233" stop-color="#FDFDFD"/>
<stop offset="1" stop-color="white"/>
</radialGradient>
<linearGradient id="paint4_linear_62_4371" x1="188.48" y1="206.064" x2="240" y2="206.064" gradientUnits="userSpaceOnUse">
<stop stop-color="#2C1863"/>
<stop offset="0.2627" stop-color="#2A1C68"/>
<stop offset="0.5902" stop-color="#222978"/>
<stop offset="0.9508" stop-color="#173D91"/>
<stop offset="1" stop-color="#154095"/>
</linearGradient>
<linearGradient id="paint5_linear_62_4371" x1="240" y1="204.92" x2="295.483" y2="204.92" gradientUnits="userSpaceOnUse">
<stop stop-color="#11469D"/>
<stop offset="0.3678" stop-color="#0C4EA7"/>
<stop offset="1" stop-color="#0064C3"/>
</linearGradient>
<linearGradient id="paint6_linear_62_4371" x1="188.48" y1="160.302" x2="295.483" y2="160.302" gradientUnits="userSpaceOnUse">
<stop stop-color="#39078C"/>
<stop offset="1" stop-color="#0064C3"/>
</linearGradient>
<linearGradient id="paint7_linear_62_4371" x1="323.342" y1="248.383" x2="334.005" y2="230.021" gradientUnits="userSpaceOnUse">
<stop stop-color="#2B2899"/>
<stop offset="0.6854" stop-color="#01E5F6"/>
<stop offset="0.7467" stop-color="#02E1F4"/>
<stop offset="0.8112" stop-color="#04D4EE"/>
<stop offset="0.8771" stop-color="#07BFE4"/>
<stop offset="0.9436" stop-color="#0BA2D6"/>
<stop offset="1" stop-color="#1083C7"/>
</linearGradient>
<linearGradient id="paint8_linear_62_4371" x1="172.615" y1="217.075" x2="180.789" y2="231.052" gradientUnits="userSpaceOnUse">
<stop stop-color="#2B2899"/>
<stop offset="0.0243" stop-color="#29309D"/>
<stop offset="0.2633" stop-color="#187DC3"/>
<stop offset="0.4608" stop-color="#0CB5DE"/>
<stop offset="0.6067" stop-color="#04D8F0"/>
<stop offset="0.6854" stop-color="#01E5F6"/>
<stop offset="0.7467" stop-color="#02E1F4"/>
<stop offset="0.8112" stop-color="#04D4EE"/>
<stop offset="0.8771" stop-color="#07BFE4"/>
<stop offset="0.9436" stop-color="#0BA2D6"/>
<stop offset="1" stop-color="#1083C7"/>
</linearGradient>
<linearGradient id="paint9_linear_62_4371" x1="335.114" y1="290.722" x2="386.633" y2="290.722" gradientUnits="userSpaceOnUse">
<stop stop-color="#2C1863"/>
<stop offset="0.2627" stop-color="#2A1C68"/>
<stop offset="0.5902" stop-color="#222978"/>
<stop offset="0.9508" stop-color="#173D91"/>
<stop offset="1" stop-color="#154095"/>
</linearGradient>
<linearGradient id="paint10_linear_62_4371" x1="386.633" y1="289.578" x2="442.116" y2="289.578" gradientUnits="userSpaceOnUse">
<stop stop-color="#11469D"/>
<stop offset="0.3678" stop-color="#0C4EA7"/>
<stop offset="1" stop-color="#0064C3"/>
</linearGradient>
<linearGradient id="paint11_linear_62_4371" x1="335.114" y1="244.961" x2="442.116" y2="244.961" gradientUnits="userSpaceOnUse">
<stop stop-color="#39078C"/>
<stop offset="1" stop-color="#0064C3"/>
</linearGradient>
<linearGradient id="paint12_linear_62_4371" x1="323.443" y1="305.908" x2="331.931" y2="319.79" gradientUnits="userSpaceOnUse">
<stop stop-color="#2B2899"/>
<stop offset="0.0715" stop-color="#234CAB"/>
<stop offset="0.1778" stop-color="#197AC1"/>
<stop offset="0.2843" stop-color="#10A1D4"/>
<stop offset="0.3892" stop-color="#0ABEE3"/>
<stop offset="0.492" stop-color="#05D4EE"/>
<stop offset="0.5918" stop-color="#02E1F4"/>
<stop offset="0.6854" stop-color="#01E5F6"/>
<stop offset="0.7467" stop-color="#02E1F4"/>
<stop offset="0.8112" stop-color="#04D4EE"/>
<stop offset="0.8771" stop-color="#07BFE4"/>
<stop offset="0.9436" stop-color="#0BA2D6"/>
<stop offset="1" stop-color="#1083C7"/>
</linearGradient>
<linearGradient id="paint13_linear_62_4371" x1="41.8473" y1="290.722" x2="93.367" y2="290.722" gradientUnits="userSpaceOnUse">
<stop stop-color="#2C1863"/>
<stop offset="0.2627" stop-color="#2A1C68"/>
<stop offset="0.5902" stop-color="#222978"/>
<stop offset="0.9508" stop-color="#173D91"/>
<stop offset="1" stop-color="#154095"/>
</linearGradient>
<linearGradient id="paint14_linear_62_4371" x1="93.3671" y1="289.578" x2="148.85" y2="289.578" gradientUnits="userSpaceOnUse">
<stop stop-color="#11469D"/>
<stop offset="0.3678" stop-color="#0C4EA7"/>
<stop offset="1" stop-color="#0064C3"/>
</linearGradient>
<linearGradient id="paint15_linear_62_4371" x1="41.8473" y1="244.961" x2="148.85" y2="244.961" gradientUnits="userSpaceOnUse">
<stop stop-color="#39078C"/>
<stop offset="1" stop-color="#0064C3"/>
</linearGradient>
<linearGradient id="paint16_linear_62_4371" x1="177.232" y1="334.689" x2="187.26" y2="319.321" gradientUnits="userSpaceOnUse">
<stop stop-color="#2B2899"/>
<stop offset="0.6714" stop-color="#01E5F6"/>
<stop offset="0.8198" stop-color="#01E3F5"/>
<stop offset="0.8732" stop-color="#02DCF2"/>
<stop offset="0.9113" stop-color="#04D1EC"/>
<stop offset="0.9421" stop-color="#07C0E4"/>
<stop offset="0.9685" stop-color="#0AAADA"/>
<stop offset="0.9915" stop-color="#0E8FCD"/>
<stop offset="1" stop-color="#1083C7"/>
</linearGradient>
<linearGradient id="paint17_linear_62_4371" x1="188.48" y1="375.381" x2="240" y2="375.381" gradientUnits="userSpaceOnUse">
<stop stop-color="#2C1863"/>
<stop offset="0.2627" stop-color="#2A1C68"/>
<stop offset="0.5902" stop-color="#222978"/>
<stop offset="0.9508" stop-color="#173D91"/>
<stop offset="1" stop-color="#154095"/>
</linearGradient>
<linearGradient id="paint18_linear_62_4371" x1="240" y1="374.237" x2="295.483" y2="374.237" gradientUnits="userSpaceOnUse">
<stop stop-color="#11469D"/>
<stop offset="0.3678" stop-color="#0C4EA7"/>
<stop offset="1" stop-color="#0064C3"/>
</linearGradient>
<linearGradient id="paint19_linear_62_4371" x1="188.48" y1="329.619" x2="295.483" y2="329.619" gradientUnits="userSpaceOnUse">
<stop stop-color="#39078C"/>
<stop offset="1" stop-color="#0064C3"/>
</linearGradient>
<clipPath id="clip0_62_4371">
<rect width="480" height="480" fill="white"/>
</clipPath>
</defs>
</svg>
