<?xml version="1.0" encoding="utf-8"?>
<!-- Generator: Adobe Illustrator 24.1.2, SVG Export Plug-In . SVG Version: 6.00 Build 0)  -->
<svg version="1.1" id="Layer_1" xmlns="http://www.w3.org/2000/svg" xmlns:xlink="http://www.w3.org/1999/xlink" x="0px" y="0px"
	 viewBox="0 0 500 500" style="enable-background:new 0 0 500 500;" xml:space="preserve">
<style type="text/css">
	.st0{fill:#95BCDB;}
	.st1{fill:#DBECFF;}
	.st2{fill:#B9D2ED;}
	.st3{fill:#89ADC9;}
	.st4{fill:#C2DFFF;}
	.st5{fill:#8CC3FF;}
	.st6{fill:#E3E3E3;}
	.st7{fill:#DBDBDB;}
	.st8{fill:#F5F5F5;}
	.st9{fill:#4E6F8A;}
	.st10{fill:#F0F0F0;}
	.st11{opacity:0.15;fill:#006DB3;}
	.st12{opacity:0.11;}
	.st13{fill:#CFCFCF;}
	.st14{fill:#FFFFFF;}
</style>
<g>
	<g>
		<g>
			<g>
				<g>
					<g>
						<g>
							<g>
								<polygon class="st0" points="272.67,416.67 272.67,379.59 242.35,394.75 242.35,431.84 								"/>
								<polygon class="st1" points="243.22,430.53 271.8,416.24 271.8,380.9 243.22,395.19 								"/>
								<polygon class="st0" points="257,424.26 258.02,423.75 258.02,387.57 257,388.08 								"/>
							</g>
							<polygon class="st2" points="271.27,381.16 271.27,415.82 258.02,422.43 258.02,423.13 271.8,416.24 271.8,380.9 							"/>
							<polygon class="st2" points="256.48,388.56 256.48,423.22 243.22,429.83 243.22,430.53 257,423.64 257,388.3 							"/>
						</g>
					</g>
				</g>
				<g>
					<g>
						<g>
							<g>
								<polygon class="st0" points="303,401.55 303,364.47 272.67,379.63 272.67,416.72 								"/>
								<polygon class="st1" points="273.55,415.41 302.12,401.12 302.12,365.78 273.55,380.07 								"/>
								<polygon class="st0" points="287.33,409.14 288.35,408.63 288.35,372.45 287.33,372.96 								"/>
							</g>
							<polygon class="st2" points="301.6,366.04 301.6,400.7 288.35,407.32 288.35,408.01 302.12,401.12 302.12,365.78 							"/>
							<polygon class="st2" points="286.8,373.44 286.8,408.1 273.55,414.72 273.55,415.41 287.33,408.52 287.33,373.18 							"/>
						</g>
					</g>
				</g>
				<g>
					<g>
						<g>
							<g>
								<polygon class="st0" points="333.32,386.39 333.32,349.3 303,364.47 303,401.55 								"/>
								<polygon class="st1" points="303.87,400.24 332.45,385.95 332.45,350.61 303.87,364.9 								"/>
								<polygon class="st0" points="317.65,393.97 318.67,393.46 318.67,357.28 317.65,357.8 								"/>
							</g>
							<polygon class="st2" points="331.92,350.88 331.92,385.53 318.67,392.15 318.67,392.84 332.45,385.95 332.45,350.61 							
								"/>
							<polygon class="st2" points="317.13,358.28 317.13,392.93 303.87,399.55 303.87,400.24 317.65,393.35 317.65,358.01 							
								"/>
						</g>
					</g>
				</g>
			</g>
			<g>
				<g>
					<g>
						<g>
							<g>
								<polygon class="st0" points="362.78,371.74 362.78,334.65 332.45,349.82 332.45,386.91 								"/>
								<polygon class="st1" points="333.32,385.59 361.9,371.3 361.9,335.97 333.32,350.26 								"/>
								<polygon class="st0" points="347.1,379.32 348.12,378.81 348.12,342.64 347.1,343.15 								"/>
							</g>
							<polygon class="st2" points="361.38,336.23 361.38,370.89 348.12,377.5 348.12,378.19 361.9,371.3 361.9,335.97 							"/>
							<polygon class="st2" points="346.58,343.63 346.58,378.29 333.32,384.9 333.32,385.59 347.1,378.7 347.1,343.37 							"/>
						</g>
					</g>
				</g>
				<g>
					<g>
						<g>
							<g>
								<polygon class="st0" points="393.1,356.62 393.1,319.54 362.78,334.7 362.78,371.79 								"/>
								<polygon class="st1" points="363.65,370.48 392.23,356.18 392.23,320.85 363.65,335.14 								"/>
								<polygon class="st0" points="377.43,364.21 378.45,363.69 378.45,327.52 377.43,328.03 								"/>
							</g>
							<polygon class="st2" points="391.7,321.11 391.7,355.77 378.45,362.38 378.45,363.07 392.23,356.18 392.23,320.85 							"/>
							<polygon class="st2" points="376.9,328.51 376.9,363.17 363.65,369.78 363.65,370.48 377.43,363.59 377.43,328.25 							"/>
						</g>
					</g>
				</g>
				<g>
					<g>
						<g>
							<g>
								<polygon class="st0" points="408.7,348.73 408.7,311.64 393.1,319.53 393.1,356.62 								"/>
								<polygon class="st1" points="393.98,355.31 407.83,348.29 407.83,312.96 393.98,319.97 								"/>
							</g>
							<polygon class="st2" points="407.23,313.34 407.23,348 393.98,354.62 393.98,355.31 407.75,348.42 407.75,313.08 							"/>
						</g>
					</g>
				</g>
			</g>
		</g>
		<g>
			<g>
				<g>
					<g>
						<g>
							<g>
								<polygon class="st3" points="212.02,416.67 212.02,379.59 242.35,394.75 242.35,431.84 								"/>
								<polygon class="st4" points="241.47,429.7 212.9,415.41 212.9,380.9 241.47,395.19 								"/>
								<polygon class="st3" points="227.7,424.26 226.68,423.75 226.68,387.57 227.7,388.08 								"/>
							</g>
							<polygon class="st5" points="213.42,381.16 213.42,415.82 226.68,422.43 226.68,423.13 212.9,416.24 212.9,380.9 							"/>
							<polygon class="st5" points="228.22,388.56 228.22,423.22 241.47,429.83 241.47,430.53 227.7,423.64 227.7,388.3 							"/>
						</g>
					</g>
				</g>
				<g>
					<g>
						<g>
							<g>
								<polygon class="st3" points="181.7,401.55 181.7,364.47 212.02,379.63 212.02,416.72 								"/>
								<polygon class="st4" points="211.15,415.41 182.57,401.12 182.57,365.78 211.15,380.07 								"/>
								<polygon class="st3" points="197.37,409.14 196.35,408.63 196.35,372.45 197.37,372.96 								"/>
							</g>
							<polygon class="st5" points="183.1,366.04 183.1,400.7 196.35,407.32 196.35,408.01 182.57,401.12 182.57,365.78 							"/>
							<polygon class="st5" points="197.9,373.44 197.9,408.1 211.15,414.72 211.15,415.41 197.37,408.52 197.37,373.18 							"/>
						</g>
					</g>
				</g>
				<g>
					<g>
						<g>
							<g>
								<polygon class="st3" points="151.37,386.39 151.37,349.3 181.7,364.47 181.7,401.55 								"/>
								<polygon class="st4" points="180.82,400.24 152.25,385.95 152.25,350.61 180.82,364.9 								"/>
								<polygon class="st3" points="167.04,393.97 166.02,393.46 166.02,357.28 167.04,357.8 								"/>
							</g>
							<polygon class="st5" points="152.77,350.88 152.77,385.53 166.02,392.15 166.02,392.84 152.25,385.95 152.25,350.61 							
								"/>
							<polygon class="st5" points="167.57,358.28 167.57,392.93 180.82,399.55 180.82,400.24 167.04,393.35 167.04,358.01 							
								"/>
						</g>
					</g>
				</g>
			</g>
			<g>
				<g>
					<g>
						<g>
							<g>
								<polygon class="st3" points="121.92,371.74 121.92,334.65 152.25,349.82 152.25,386.91 								"/>
								<polygon class="st4" points="151.37,385.59 122.8,371.3 122.8,335.97 151.37,350.26 								"/>
								<polygon class="st3" points="137.59,379.32 136.57,378.81 136.57,342.64 137.59,343.15 								"/>
							</g>
							<polygon class="st5" points="123.32,336.23 123.32,370.89 136.57,377.5 136.57,378.19 122.8,371.3 122.8,335.97 							"/>
							<polygon class="st5" points="138.12,343.63 138.12,378.29 151.37,384.9 151.37,385.59 137.59,378.7 137.59,343.37 							"/>
						</g>
					</g>
				</g>
				<g>
					<g>
						<g>
							<g>
								<polygon class="st3" points="91.6,356.62 91.6,319.54 121.92,334.7 121.92,371.79 								"/>
								<polygon class="st4" points="121.05,370.48 92.47,356.18 92.47,320.85 121.05,335.14 								"/>
								<polygon class="st3" points="107.27,364.21 106.25,363.69 106.25,327.52 107.27,328.03 								"/>
							</g>
							<polygon class="st5" points="93,321.11 93,355.77 106.25,362.38 106.25,363.07 92.47,356.18 92.47,320.85 							"/>
							<polygon class="st5" points="107.79,328.51 107.79,363.17 121.05,369.78 121.05,370.48 107.27,363.59 107.27,328.25 							
								"/>
						</g>
					</g>
				</g>
			</g>
		</g>
	</g>
	<g>
		<polygon class="st6" points="416,309.62 241.59,396.05 241.59,378.95 416,292.52 		"/>
		<polygon class="st7" points="241.59,396.05 84.3,318.01 84.3,300.91 241.59,378.95 		"/>
		<polygon class="st8" points="241.59,379.49 84.3,300.91 258.71,215.04 416,293.07 		"/>
	</g>
	<g>
		<g>
			<g>
				<g>
					<g>
						<g>
							<g>
								<polygon class="st0" points="272.67,359.46 272.67,331.77 242.35,346.94 242.35,374.62 								"/>
								<polygon class="st1" points="243.22,373.31 271.8,359.02 271.8,333.09 243.22,347.38 								"/>
								<polygon class="st0" points="257,367.04 258.02,366.53 258.02,339.76 257,340.27 								"/>
							</g>
							<polygon class="st2" points="271.27,333.35 271.27,358.6 258.02,365.22 258.02,365.91 271.8,359.02 271.8,333.09 							"/>
							<polygon class="st2" points="256.48,340.75 256.48,366 243.22,372.62 243.22,373.31 257,366.42 257,340.49 							"/>
						</g>
					</g>
				</g>
				<g>
					<g>
						<g>
							<g>
								<polygon class="st0" points="303,344.34 303,316.66 272.67,331.82 272.67,359.5 								"/>
								<polygon class="st1" points="273.55,358.19 302.12,343.9 302.12,317.97 273.55,332.26 								"/>
								<polygon class="st0" points="287.33,351.92 288.35,351.41 288.35,324.64 287.33,325.15 								"/>
							</g>
							<polygon class="st2" points="301.6,318.23 301.6,343.48 288.35,350.1 288.35,350.79 302.12,343.9 302.12,317.97 							"/>
							<polygon class="st2" points="286.8,325.63 286.8,350.88 273.55,357.5 273.55,358.19 287.33,351.3 287.33,325.37 							"/>
						</g>
					</g>
				</g>
				<g>
					<g>
						<g>
							<g>
								<polygon class="st0" points="333.32,329.17 333.32,301.49 303,316.66 303,344.34 								"/>
								<polygon class="st1" points="303.87,343.02 332.45,328.73 332.45,302.8 303.87,317.09 								"/>
								<polygon class="st0" points="317.65,336.75 318.67,336.24 318.67,309.47 317.65,309.98 								"/>
							</g>
							<polygon class="st2" points="331.92,303.06 331.92,328.31 318.67,334.93 318.67,335.62 332.45,328.73 332.45,302.8 							
								"/>
							<polygon class="st2" points="317.13,310.46 317.13,335.72 303.87,342.33 303.87,343.02 317.65,336.13 317.65,310.2 							
								"/>
						</g>
					</g>
				</g>
			</g>
			<g>
				<g>
					<g>
						<g>
							<g>
								<polygon class="st0" points="362.78,314.52 362.78,286.84 332.45,302.01 332.45,329.69 								"/>
								<polygon class="st1" points="333.32,328.38 361.9,314.09 361.9,288.15 333.32,302.45 								"/>
								<polygon class="st0" points="347.1,322.11 348.12,321.6 348.12,294.83 347.1,295.34 								"/>
							</g>
							<polygon class="st2" points="361.38,288.42 361.38,313.67 348.12,320.28 348.12,320.98 361.9,314.09 361.9,288.15 							"/>
							<polygon class="st2" points="346.58,295.82 346.58,321.07 333.32,327.68 333.32,328.38 347.1,321.49 347.1,295.56 							"/>
						</g>
					</g>
				</g>
				<g>
					<g>
						<g>
							<g>
								<polygon class="st0" points="393.1,299.4 393.1,271.72 362.78,286.89 362.78,314.57 								"/>
								<polygon class="st1" points="363.65,313.26 392.23,298.97 392.23,273.04 363.65,287.33 								"/>
								<polygon class="st0" points="377.43,306.99 378.45,306.48 378.45,279.71 377.43,280.22 								"/>
							</g>
							<polygon class="st2" points="391.7,273.3 391.7,298.55 378.45,305.17 378.45,305.86 392.23,298.97 392.23,273.04 							"/>
							<polygon class="st2" points="376.9,280.7 376.9,305.95 363.65,312.57 363.65,313.26 377.43,306.37 377.43,280.44 							"/>
						</g>
					</g>
				</g>
				<g>
					<g>
						<g>
							<g>
								<polygon class="st0" points="408.7,291.51 408.7,263.83 393.1,271.72 393.1,299.4 								"/>
								<polygon class="st1" points="393.98,298.09 407.83,291.08 407.83,265.14 393.98,272.16 								"/>
							</g>
							<polygon class="st2" points="407.23,265.53 407.23,290.78 393.98,297.4 393.98,298.09 407.75,291.2 407.75,265.27 							"/>
						</g>
					</g>
				</g>
			</g>
		</g>
		<g>
			<g>
				<g>
					<g>
						<g>
							<g>
								<polygon class="st3" points="212.02,359.46 212.02,331.77 242.35,346.94 242.35,374.62 								"/>
								<polygon class="st4" points="241.47,373.31 212.9,359.02 212.9,333.09 241.47,347.38 								"/>
								<polygon class="st3" points="227.7,367.04 226.68,366.53 226.68,339.76 227.7,340.27 								"/>
							</g>
							<polygon class="st5" points="213.42,333.35 213.42,358.6 226.68,365.22 226.68,365.91 212.9,359.02 212.9,333.09 							"/>
							<polygon class="st5" points="228.22,340.75 228.22,366 241.47,372.62 241.47,373.31 227.7,366.42 227.7,340.49 							"/>
						</g>
					</g>
				</g>
				<g>
					<g>
						<g>
							<g>
								<polygon class="st3" points="181.7,344.34 181.7,316.66 212.02,331.82 212.02,359.5 								"/>
								<polygon class="st4" points="211.15,358.19 182.57,343.9 182.57,317.97 211.15,332.26 								"/>
								<polygon class="st3" points="197.37,351.92 196.35,351.41 196.35,324.64 197.37,325.15 								"/>
							</g>
							<polygon class="st5" points="183.1,318.23 183.1,343.48 196.35,350.1 196.35,350.79 182.57,343.9 182.57,317.97 							"/>
							<polygon class="st5" points="197.9,325.63 197.9,350.88 211.15,357.5 211.15,358.19 197.37,351.3 197.37,325.37 							"/>
						</g>
					</g>
				</g>
				<g>
					<g>
						<g>
							<g>
								<polygon class="st3" points="151.37,329.17 151.37,301.49 181.7,316.66 181.7,344.34 								"/>
								<polygon class="st4" points="180.82,343.02 152.25,328.73 152.25,302.8 180.82,317.09 								"/>
								<polygon class="st3" points="167.04,336.75 166.02,336.24 166.02,309.47 167.04,309.98 								"/>
							</g>
							<polygon class="st5" points="152.77,303.06 152.77,328.31 166.02,334.93 166.02,335.62 152.25,328.73 152.25,302.8 							
								"/>
							<polygon class="st5" points="167.57,310.46 167.57,335.72 180.82,342.33 180.82,343.02 167.04,336.13 167.04,310.2 							
								"/>
						</g>
					</g>
				</g>
			</g>
			<g>
				<g>
					<g>
						<g>
							<g>
								<polygon class="st3" points="121.92,314.52 121.92,286.84 152.25,302.01 152.25,329.69 								"/>
								<polygon class="st4" points="151.37,328.38 122.8,314.09 122.8,288.15 151.37,302.45 								"/>
								<polygon class="st3" points="137.59,322.11 136.57,321.6 136.57,294.83 137.59,295.34 								"/>
							</g>
							<polygon class="st5" points="123.32,288.42 123.32,313.67 136.57,320.28 136.57,320.98 122.8,314.09 122.8,288.15 							"/>
							<polygon class="st5" points="138.12,295.82 138.12,321.07 151.37,327.68 151.37,328.38 137.59,321.49 137.59,295.56 							
								"/>
						</g>
					</g>
				</g>
				<g>
					<g>
						<g>
							<g>
								<polygon class="st3" points="91.6,299.4 91.6,271.72 121.92,286.89 121.92,314.57 								"/>
								<polygon class="st4" points="121.05,313.26 92.47,298.97 92.47,273.04 121.05,287.33 								"/>
								<polygon class="st3" points="107.27,306.99 106.25,306.48 106.25,279.71 107.27,280.22 								"/>
							</g>
							<polygon class="st5" points="93,273.3 93,298.55 106.25,305.17 106.25,305.86 92.47,298.97 92.47,273.04 							"/>
							<polygon class="st5" points="107.79,280.7 107.79,305.95 121.05,312.57 121.05,313.26 107.27,306.37 107.27,280.44 							
								"/>
						</g>
					</g>
				</g>
			</g>
		</g>
	</g>
	<g>
		<polygon class="st6" points="416,264.36 241.59,350.79 241.59,333.69 416,247.27 		"/>
		<polygon class="st7" points="241.59,350.79 84.3,272.75 84.3,255.66 241.59,333.69 		"/>
		<polygon class="st8" points="241.59,334.24 84.3,255.66 258.71,169.78 416,247.82 		"/>
	</g>
	<g>
		<g>
			<g>
				<g>
					<g>
						<g>
							<g>
								<polygon class="st0" points="272.67,313.75 272.67,286.07 242.35,301.24 242.35,328.92 								"/>
								<polygon class="st1" points="243.22,327.61 271.8,313.31 271.8,287.38 243.22,301.67 								"/>
								<polygon class="st0" points="257,321.33 258.02,320.82 258.02,294.05 257,294.56 								"/>
							</g>
							<polygon class="st2" points="271.27,287.65 271.27,312.9 258.02,319.51 258.02,320.2 271.8,313.31 271.8,287.38 							"/>
							<polygon class="st2" points="256.48,295.05 256.48,320.3 243.22,326.91 243.22,327.61 257,320.71 257,294.78 							"/>
						</g>
					</g>
				</g>
				<g>
					<g>
						<g>
							<g>
								<polygon class="st0" points="303,298.63 303,270.95 272.67,286.12 272.67,313.8 								"/>
								<polygon class="st1" points="273.55,312.49 302.12,298.2 302.12,272.26 273.55,286.56 								"/>
								<polygon class="st0" points="287.33,306.22 288.35,305.71 288.35,278.94 287.33,279.45 								"/>
							</g>
							<polygon class="st2" points="301.6,272.53 301.6,297.78 288.35,304.39 288.35,305.09 302.12,298.2 302.12,272.26 							"/>
							<polygon class="st2" points="286.8,279.93 286.8,305.18 273.55,311.79 273.55,312.49 287.33,305.6 287.33,279.67 							"/>
						</g>
					</g>
				</g>
				<g>
					<g>
						<g>
							<g>
								<polygon class="st0" points="333.32,283.47 333.32,255.78 303,270.95 303,298.63 								"/>
								<polygon class="st1" points="303.87,297.32 332.45,283.03 332.45,257.1 303.87,271.39 								"/>
								<polygon class="st0" points="317.65,291.05 318.67,290.54 318.67,263.77 317.65,264.28 								"/>
							</g>
							<polygon class="st2" points="331.92,257.36 331.92,282.61 318.67,289.23 318.67,289.92 332.45,283.03 332.45,257.1 							
								"/>
							<polygon class="st2" points="317.13,264.76 317.13,290.01 303.87,296.63 303.87,297.32 317.65,290.43 317.65,264.5 							
								"/>
						</g>
					</g>
				</g>
			</g>
			<g>
				<g>
					<g>
						<g>
							<g>
								<polygon class="st0" points="362.78,268.82 362.78,241.14 332.45,256.3 332.45,283.98 								"/>
								<polygon class="st1" points="333.32,282.67 361.9,268.38 361.9,242.45 333.32,256.74 								"/>
								<polygon class="st0" points="347.1,276.4 348.12,275.89 348.12,249.12 347.1,249.63 								"/>
							</g>
							<polygon class="st2" points="361.38,242.71 361.38,267.96 348.12,274.58 348.12,275.27 361.9,268.38 361.9,242.45 							"/>
							<polygon class="st2" points="346.58,250.11 346.58,275.36 333.32,281.98 333.32,282.67 347.1,275.78 347.1,249.85 							"/>
						</g>
					</g>
				</g>
				<g>
					<g>
						<g>
							<g>
								<polygon class="st0" points="393.1,253.7 393.1,226.02 362.78,241.19 362.78,268.87 								"/>
								<polygon class="st1" points="363.65,267.55 392.23,253.26 392.23,227.33 363.65,241.62 								"/>
								<polygon class="st0" points="377.43,261.28 378.45,260.77 378.45,234 377.43,234.51 								"/>
							</g>
							<polygon class="st2" points="391.7,227.59 391.7,252.85 378.45,259.46 378.45,260.15 392.23,253.26 392.23,227.33 							"/>
							<polygon class="st2" points="376.9,235 376.9,260.25 363.65,266.86 363.65,267.55 377.43,260.66 377.43,234.73 							"/>
						</g>
					</g>
				</g>
				<g>
					<g>
						<g>
							<g>
								<polygon class="st0" points="408.7,245.81 408.7,218.13 393.1,226.02 393.1,253.7 								"/>
								<polygon class="st1" points="393.98,252.39 407.83,245.37 407.83,219.44 393.98,226.46 								"/>
							</g>
							<polygon class="st2" points="407.23,219.83 407.23,245.08 393.98,251.69 393.98,252.39 407.75,245.5 407.75,219.57 							
								"/>
						</g>
					</g>
				</g>
			</g>
		</g>
		<g>
			<g>
				<g>
					<g>
						<g>
							<g>
								<polygon class="st3" points="212.02,313.75 212.02,286.07 242.35,301.24 242.35,328.92 								"/>
								<polygon class="st4" points="241.47,327.61 212.9,313.31 212.9,287.38 241.47,301.67 								"/>
								<polygon class="st3" points="227.7,321.33 226.68,320.82 226.68,294.05 227.7,294.56 								"/>
							</g>
							<polygon class="st5" points="213.42,287.65 213.42,312.9 226.68,319.51 226.68,320.2 212.9,313.31 212.9,287.38 							"/>
							<polygon class="st5" points="228.22,295.05 228.22,320.3 241.47,326.91 241.47,327.61 227.7,320.71 227.7,294.78 							"/>
						</g>
					</g>
				</g>
				<g>
					<g>
						<g>
							<g>
								<polygon class="st3" points="181.7,298.63 181.7,270.95 212.02,286.12 212.02,313.8 								"/>
								<polygon class="st4" points="211.15,312.49 182.57,298.2 182.57,272.26 211.15,286.56 								"/>
								<polygon class="st3" points="197.37,306.22 196.35,305.71 196.35,278.94 197.37,279.45 								"/>
							</g>
							<polygon class="st5" points="183.1,272.53 183.1,297.78 196.35,304.39 196.35,305.09 182.57,298.2 182.57,272.26 							"/>
							<polygon class="st5" points="197.9,279.93 197.9,305.18 211.15,311.79 211.15,312.49 197.37,305.6 197.37,279.67 							"/>
						</g>
					</g>
				</g>
				<g>
					<g>
						<g>
							<g>
								<polygon class="st3" points="151.37,283.47 151.37,255.78 181.7,270.95 181.7,298.63 								"/>
								<polygon class="st4" points="180.82,297.32 152.25,283.03 152.25,257.1 180.82,271.39 								"/>
								<polygon class="st3" points="167.04,291.05 166.02,290.54 166.02,263.77 167.04,264.28 								"/>
							</g>
							<polygon class="st5" points="152.77,257.36 152.77,282.61 166.02,289.23 166.02,289.92 152.25,283.03 152.25,257.1 							
								"/>
							<polygon class="st5" points="167.57,264.76 167.57,290.01 180.82,296.63 180.82,297.32 167.04,290.43 167.04,264.5 							
								"/>
						</g>
					</g>
				</g>
			</g>
			<g>
				<g>
					<g>
						<g>
							<g>
								<polygon class="st3" points="121.92,268.82 121.92,241.14 152.25,256.3 152.25,283.98 								"/>
								<polygon class="st4" points="151.37,282.67 122.8,268.38 122.8,242.45 151.37,256.74 								"/>
								<polygon class="st3" points="137.59,276.4 136.57,275.89 136.57,249.12 137.59,249.63 								"/>
							</g>
							<polygon class="st5" points="123.32,242.71 123.32,267.96 136.57,274.58 136.57,275.27 122.8,268.38 122.8,242.45 							"/>
							<polygon class="st5" points="138.12,250.11 138.12,275.36 151.37,281.98 151.37,282.67 137.59,275.78 137.59,249.85 							
								"/>
						</g>
					</g>
				</g>
				<g>
					<g>
						<g>
							<g>
								<polygon class="st3" points="91.6,253.7 91.6,226.02 121.92,241.19 121.92,268.87 								"/>
								<polygon class="st4" points="121.05,267.55 92.47,253.26 92.47,227.33 121.05,241.62 								"/>
								<polygon class="st3" points="107.27,261.28 106.25,260.77 106.25,234 107.27,234.51 								"/>
							</g>
							<polygon class="st5" points="93,227.59 93,252.85 106.25,259.46 106.25,260.15 92.47,253.26 92.47,227.33 							"/>
							<polygon class="st5" points="107.79,235 107.79,260.25 121.05,266.86 121.05,267.55 107.27,260.66 107.27,234.73 							"/>
						</g>
					</g>
				</g>
			</g>
		</g>
	</g>
	<g>
		<polygon class="st6" points="416,218.43 241.59,304.86 241.59,287.76 416,201.33 		"/>
		<polygon class="st7" points="241.59,304.86 84.3,226.82 84.3,209.72 241.59,287.76 		"/>
		<polygon class="st8" points="241.59,288.3 84.3,209.72 258.71,123.85 416,201.88 		"/>
	</g>
	<g>
		<g>
			<g>
				<g>
					<g>
						<g>
							<g>
								<polygon class="st0" points="272.67,268.11 272.67,240.43 242.35,255.6 242.35,283.28 								"/>
								<polygon class="st1" points="243.22,281.96 271.8,267.67 271.8,241.74 243.22,256.03 								"/>
								<polygon class="st0" points="257,275.69 258.02,275.18 258.02,248.41 257,248.92 								"/>
							</g>
							<polygon class="st2" points="271.27,242 271.27,267.26 258.02,273.87 258.02,274.56 271.8,267.67 271.8,241.74 							"/>
							<polygon class="st2" points="256.48,249.41 256.48,274.66 243.22,281.27 243.22,281.96 257,275.07 257,249.14 							"/>
						</g>
					</g>
				</g>
				<g>
					<g>
						<g>
							<g>
								<polygon class="st0" points="303,252.99 303,225.31 272.67,240.48 272.67,268.16 								"/>
								<polygon class="st1" points="273.55,266.85 302.12,252.55 302.12,226.62 273.55,240.91 								"/>
								<polygon class="st0" points="287.33,260.58 288.35,260.06 288.35,233.3 287.33,233.81 								"/>
							</g>
							<polygon class="st2" points="301.6,226.89 301.6,252.14 288.35,258.75 288.35,259.45 302.12,252.55 302.12,226.62 							"/>
							<polygon class="st2" points="286.8,234.29 286.8,259.54 273.55,266.15 273.55,266.85 287.33,259.96 287.33,234.02 							"/>
						</g>
					</g>
				</g>
				<g>
					<g>
						<g>
							<g>
								<polygon class="st0" points="333.32,237.82 333.32,210.14 303,225.31 303,252.99 								"/>
								<polygon class="st1" points="303.87,251.68 332.45,237.39 332.45,211.46 303.87,225.75 								"/>
								<polygon class="st0" points="317.65,245.41 318.67,244.9 318.67,218.13 317.65,218.64 								"/>
							</g>
							<polygon class="st2" points="331.92,211.72 331.92,236.97 318.67,243.59 318.67,244.28 332.45,237.39 332.45,211.46 							
								"/>
							<polygon class="st2" points="317.13,219.12 317.13,244.37 303.87,250.99 303.87,251.68 317.65,244.79 317.65,218.86 							
								"/>
						</g>
					</g>
				</g>
			</g>
			<g>
				<g>
					<g>
						<g>
							<g>
								<polygon class="st0" points="362.78,223.18 362.78,195.5 332.45,210.66 332.45,238.34 								"/>
								<polygon class="st1" points="333.32,237.03 361.9,222.74 361.9,196.81 333.32,211.1 								"/>
								<polygon class="st0" points="347.1,230.76 348.12,230.25 348.12,203.48 347.1,203.99 								"/>
							</g>
							<polygon class="st2" points="361.38,197.07 361.38,222.32 348.12,228.94 348.12,229.63 361.9,222.74 361.9,196.81 							"/>
							<polygon class="st2" points="346.58,204.47 346.58,229.72 333.32,236.34 333.32,237.03 347.1,230.14 347.1,204.21 							"/>
						</g>
					</g>
				</g>
				<g>
					<g>
						<g>
							<g>
								<polygon class="st0" points="393.1,208.06 393.1,180.38 362.78,195.54 362.78,223.23 								"/>
								<polygon class="st1" points="363.65,221.91 392.23,207.62 392.23,181.69 363.65,195.98 								"/>
								<polygon class="st0" points="377.43,215.64 378.45,215.13 378.45,188.36 377.43,188.87 								"/>
							</g>
							<polygon class="st2" points="391.7,181.95 391.7,207.2 378.45,213.82 378.45,214.51 392.23,207.62 392.23,181.69 							"/>
							<polygon class="st2" points="376.9,189.35 376.9,214.61 363.65,221.22 363.65,221.91 377.43,215.02 377.43,189.09 							"/>
						</g>
					</g>
				</g>
				<g>
					<g>
						<g>
							<g>
								<polygon class="st0" points="408.7,200.17 408.7,172.49 393.1,180.38 393.1,208.06 								"/>
								<polygon class="st1" points="393.98,206.75 407.83,199.73 407.83,173.8 393.98,180.81 								"/>
							</g>
							<polygon class="st2" points="407.23,174.19 407.23,199.44 393.98,206.05 393.98,206.75 407.75,199.86 407.75,173.92 							
								"/>
						</g>
					</g>
				</g>
			</g>
		</g>
		<g>
			<g>
				<g>
					<g>
						<g>
							<g>
								<polygon class="st3" points="212.02,268.11 212.02,240.43 242.35,255.6 242.35,283.28 								"/>
								<polygon class="st4" points="241.47,281.96 212.9,267.67 212.9,241.74 241.47,256.03 								"/>
								<polygon class="st3" points="227.7,275.69 226.68,275.18 226.68,248.41 227.7,248.92 								"/>
							</g>
							<polygon class="st5" points="213.42,242 213.42,267.26 226.68,273.87 226.68,274.56 212.9,267.67 212.9,241.74 							"/>
							<polygon class="st5" points="228.22,249.41 228.22,274.66 241.47,281.27 241.47,281.96 227.7,275.07 227.7,249.14 							"/>
						</g>
					</g>
				</g>
				<g>
					<g>
						<g>
							<g>
								<polygon class="st3" points="181.7,252.99 181.7,225.31 212.02,240.48 212.02,268.16 								"/>
								<polygon class="st4" points="211.15,266.85 182.57,252.55 182.57,226.62 211.15,240.91 								"/>
								<polygon class="st3" points="197.37,260.58 196.35,260.06 196.35,233.3 197.37,233.81 								"/>
							</g>
							<polygon class="st5" points="183.1,226.89 183.1,252.14 196.35,258.75 196.35,259.45 182.57,252.55 182.57,226.62 							"/>
							<polygon class="st5" points="197.9,234.29 197.9,259.54 211.15,266.15 211.15,266.85 197.37,259.96 197.37,234.02 							"/>
						</g>
					</g>
				</g>
				<g>
					<g>
						<g>
							<g>
								<polygon class="st3" points="151.37,237.82 151.37,210.14 181.7,225.31 181.7,252.99 								"/>
								<polygon class="st4" points="180.82,251.68 152.25,237.39 152.25,211.46 180.82,225.75 								"/>
								<polygon class="st3" points="167.04,245.41 166.02,244.9 166.02,218.13 167.04,218.64 								"/>
							</g>
							<polygon class="st5" points="152.77,211.72 152.77,236.97 166.02,243.59 166.02,244.28 152.25,237.39 152.25,211.46 							
								"/>
							<polygon class="st5" points="167.57,219.12 167.57,244.37 180.82,250.99 180.82,251.68 167.04,244.79 167.04,218.86 							
								"/>
						</g>
					</g>
				</g>
			</g>
			<g>
				<g>
					<g>
						<g>
							<g>
								<polygon class="st3" points="121.92,223.18 121.92,195.5 152.25,210.66 152.25,238.34 								"/>
								<polygon class="st4" points="151.37,237.03 122.8,222.74 122.8,196.81 151.37,211.1 								"/>
								<polygon class="st3" points="137.59,230.76 136.57,230.25 136.57,203.48 137.59,203.99 								"/>
							</g>
							<polygon class="st5" points="123.32,197.07 123.32,222.32 136.57,228.94 136.57,229.63 122.8,222.74 122.8,196.81 							"/>
							<polygon class="st5" points="138.12,204.47 138.12,229.72 151.37,236.34 151.37,237.03 137.59,230.14 137.59,204.21 							
								"/>
						</g>
					</g>
				</g>
				<g>
					<g>
						<g>
							<g>
								<polygon class="st3" points="91.6,208.06 91.6,180.38 121.92,195.54 121.92,223.23 								"/>
								<polygon class="st4" points="121.05,221.91 92.47,207.62 92.47,181.69 121.05,195.98 								"/>
								<polygon class="st3" points="107.27,215.64 106.25,215.13 106.25,188.36 107.27,188.87 								"/>
							</g>
							<polygon class="st5" points="93,181.95 93,207.2 106.25,213.82 106.25,214.51 92.47,207.62 92.47,181.69 							"/>
							<polygon class="st5" points="107.79,189.35 107.79,214.61 121.05,221.22 121.05,221.91 107.27,215.02 107.27,189.09 							
								"/>
						</g>
					</g>
				</g>
			</g>
		</g>
	</g>
	<g>
		<g>
			<polygon class="st7" points="254.13,83.2 411.84,162.04 411.84,151.05 254.13,72.21 			"/>
			<polygon class="st8" points="254.13,72.21 258.52,69.99 416,148.97 411.84,151.05 			"/>
		</g>
		<g>
			<polygon class="st6" points="258.71,85.49 88.69,170.25 88.69,159.26 258.4,74.35 			"/>
			<polygon class="st8" points="262.67,72.21 258.28,69.99 84.3,157.04 88.69,159.26 			"/>
			<polygon class="st9" points="84.3,168.03 88.69,170.25 88.69,159.26 84.3,157.04 			"/>
		</g>
		<g>
			<polygon class="st6" points="416,172.5 241.59,258.93 241.59,241.83 416,155.4 			"/>
			<polygon class="st7" points="241.59,258.93 84.3,180.89 84.3,163.79 241.59,241.83 			"/>
			<polygon class="st10" points="242.01,232.04 103.64,162.64 258.71,85.49 396.62,154.43 			"/>
		</g>
		<g>
			<polygon class="st6" points="416,160.14 242.01,247.19 242.01,236.2 416,149.16 			"/>
			<polygon class="st8" points="416,149.16 411.61,146.93 237.62,233.98 242.01,236.2 			"/>
			<polygon class="st9" points="237.62,244.97 242.01,247.19 242.01,236.2 237.62,233.98 			"/>
		</g>
		<g>
			<polygon class="st7" points="84.3,168.36 242.01,247.19 242.01,236.2 84.3,157.04 			"/>
			<polygon class="st8" points="84.3,157.04 88.69,155.14 246.17,234.12 242.01,236.2 			"/>
		</g>
	</g>
	<polygon class="st11" points="408.7,176.11 408.7,176.11 307.96,244.16 283.46,262.76 277.61,270.46 241.59,288.3 241.59,258.93 	
		"/>
	<polygon class="st11" points="408.7,222.05 408.7,222.05 313.83,287.38 283.46,308.84 277.61,316.53 241.59,334.38 241.59,305 	"/>
	<polygon class="st11" points="408.7,267.97 408.7,267.97 310.76,336.75 283.46,354.62 277.63,361.73 241.59,379.49 241.59,350.79 	
		"/>
	<polygon class="st11" points="409.01,313.08 326.81,371.56 273.55,406.87 242.35,431.84 242.35,431.84 241.59,396.05 	"/>
	<polygon class="st11" points="126.11,276.4 241.59,334.38 241.59,305 208.97,288.68 167.57,280.44 117.88,266.85 	"/>
	<polygon class="st11" points="126.11,321.65 241.59,379.63 241.59,350.25 208.97,333.93 167.57,325.69 117.88,312.1 	"/>
	<polygon class="st11" points="126.13,373.84 241.59,431 241.59,396.17 208.97,379.84 167.57,371.61 104.5,363.07 	"/>
	<polygon class="st11" points="126.11,230.33 241.59,288.3 241.59,258.93 208.97,242.6 167.57,234.36 117.88,220.77 	"/>
	<polygon class="st12" points="396.62,143.44 381.93,139.96 329.37,120.81 223.62,102.98 243.22,93.19 258.4,74.35 	"/>
	<g>
		<g>
			<g>
				<polygon class="st13" points="264.64,176.65 259.32,179.31 209.58,154.44 209.58,151.6 214.9,151.78 264.64,174.28 				"/>
				<polygon class="st13" points="234.94,167.03 229.62,164.37 263.54,147.41 268.85,150.07 				"/>
				<polygon class="st13" points="293.33,162.31 288.01,164.96 238.27,140.09 238.27,137.26 243.59,137.44 293.33,159.47 				"/>
			</g>
			<path class="st13" d="M204.94,135.12c-25.69,12.84-25.69,33.67,0,46.52c25.69,12.84,67.34,12.84,93.03,0
				c25.69-12.84,25.69-33.67,0-46.52C272.28,122.27,230.63,122.27,204.94,135.12z M293.55,179.42c-23.25,11.63-60.95,11.63-84.19,0
				c-23.25-11.62-23.25-30.47,0-42.1c23.25-11.62,60.95-11.62,84.19,0C316.8,148.95,316.8,167.8,293.55,179.42z"/>
		</g>
		<g>
			<g>
				<polygon class="st14" points="264.64,173.81 259.32,176.47 209.58,151.6 214.9,148.94 				"/>
				<polygon class="st14" points="234.94,164.19 229.62,161.53 263.54,144.57 268.85,147.23 				"/>
				<polygon class="st14" points="293.33,159.47 288.01,162.13 238.27,137.26 243.59,134.6 				"/>
			</g>
			<path class="st14" d="M204.94,132.28c-25.69,12.84-25.69,33.67,0,46.52c25.69,12.84,67.34,12.84,93.03,0
				c25.69-12.84,25.69-33.67,0-46.52C272.28,119.43,230.63,119.43,204.94,132.28z M293.55,176.58c-23.25,11.63-60.95,11.63-84.19,0
				c-23.25-11.62-23.25-30.47,0-42.1c23.25-11.62,60.95-11.62,84.19,0C316.8,146.11,316.8,164.96,293.55,176.58z"/>
		</g>
	</g>
</g>
</svg>
