<?xml version="1.0" encoding="utf-8"?>
<!-- Generator: Adobe Illustrator 24.1.2, SVG Export Plug-In . SVG Version: 6.00 Build 0)  -->
<svg version="1.1" id="Layer_1" xmlns="http://www.w3.org/2000/svg" xmlns:xlink="http://www.w3.org/1999/xlink" x="0px" y="0px"
	 viewBox="0 0 524 524" style="enable-background:new 0 0 524 524;" xml:space="preserve">
<style type="text/css">
	.st0{opacity:0.41;}
	.st1{fill:url(#SVGID_1_);}
	.st2{fill:url(#SVGID_2_);}
	.st3{fill:url(#SVGID_3_);}
	.st4{fill:url(#SVGID_4_);}
	.st5{fill:#005888;}
	.st6{fill:url(#SVGID_5_);}
	.st7{fill:url(#SVGID_6_);}
	.st8{fill:url(#SVGID_7_);}
	.st9{fill:url(#SVGID_8_);}
	.st10{fill:url(#SVGID_9_);}
	.st11{fill:url(#SVGID_10_);}
	.st12{fill:#FFFFFF;}
	.st13{fill:url(#SVGID_11_);}
	.st14{fill:url(#SVGID_12_);}
	.st15{fill:url(#SVGID_13_);}
	.st16{fill:url(#SVGID_14_);}
	.st17{fill:url(#SVGID_15_);}
	.st18{fill:url(#SVGID_16_);}
	.st19{fill:url(#SVGID_17_);}
	.st20{fill:url(#SVGID_18_);}
	.st21{fill:url(#SVGID_19_);}
	.st22{fill:url(#SVGID_20_);}
	.st23{fill:url(#SVGID_21_);}
	.st24{fill:url(#SVGID_22_);}
	.st25{fill:url(#SVGID_23_);}
	.st26{fill:url(#SVGID_24_);}
	.st27{fill:url(#SVGID_25_);}
	.st28{fill:url(#SVGID_26_);}
	.st29{fill:url(#SVGID_27_);}
	.st30{fill:url(#SVGID_28_);}
	.st31{fill:url(#SVGID_29_);}
	.st32{fill:url(#SVGID_30_);}
	.st33{fill:url(#SVGID_31_);}
	.st34{fill:url(#SVGID_32_);}
	.st35{fill:#97449A;}
	.st36{fill:url(#SVGID_33_);}
	.st37{fill:url(#SVGID_34_);}
	.st38{fill:url(#SVGID_35_);}
	.st39{fill:url(#SVGID_36_);}
	.st40{fill:url(#SVGID_37_);}
	.st41{fill:url(#SVGID_38_);}
	.st42{fill:url(#SVGID_39_);}
	.st43{fill:url(#SVGID_40_);}
	.st44{fill:url(#SVGID_41_);}
	.st45{fill:url(#SVGID_42_);}
	.st46{fill:url(#SVGID_43_);}
	.st47{fill:url(#SVGID_44_);}
	.st48{fill:url(#SVGID_45_);}
	.st49{fill:url(#SVGID_46_);}
	.st50{fill:url(#SVGID_47_);}
	.st51{fill:url(#SVGID_48_);}
	.st52{fill:url(#SVGID_49_);}
	.st53{fill:url(#SVGID_50_);}
	.st54{fill:url(#SVGID_51_);}
	.st55{fill:url(#SVGID_52_);}
	.st56{fill:url(#SVGID_53_);}
	.st57{fill:url(#SVGID_54_);}
	.st58{fill:url(#SVGID_55_);}
</style>
<g>
	<g class="st0">
		
			<linearGradient id="SVGID_1_" gradientUnits="userSpaceOnUse" x1="279.41" y1="103.3394" x2="257.589" y2="66.1143" gradientTransform="matrix(1 0 0 -1 0 524)">
			<stop  offset="0" style="stop-color:#0D1335"/>
			<stop  offset="0.2944" style="stop-color:#0E1436"/>
			<stop  offset="0.4933" style="stop-color:#11163B"/>
			<stop  offset="0.664" style="stop-color:#161942"/>
			<stop  offset="0.8188" style="stop-color:#1C1C4C"/>
			<stop  offset="0.9615" style="stop-color:#231F5A"/>
			<stop  offset="1" style="stop-color:#25205E"/>
		</linearGradient>
		<path class="st1" d="M371.3,475.6l-31.6,16c-2.5,1.4-5.7,1.4-8.2,0l-155.9-84.5c-7.5-4.2-7.7-14.7,0-18.9l24.6-12.1l171.1,92.9
			C373.9,470.4,373.9,474.1,371.3,475.6z"/>
	</g>
	
		<linearGradient id="SVGID_2_" gradientUnits="userSpaceOnUse" x1="259.1911" y1="406.4587" x2="252.4571" y2="31.6227" gradientTransform="matrix(1 0 0 -1 0 524)">
		<stop  offset="0" style="stop-color:#F2F2F2"/>
		<stop  offset="1" style="stop-color:#939598"/>
	</linearGradient>
	<path class="st2" d="M327,132.6c7.1,4.1,12.9,14.5,12.9,23.2L338.9,475c0,8.7-5.9,12.4-13,8.2L186,402.3
		c-7.1-4.1-12.9-14.5-12.9-23.2l0.9-319.2c0-8.7,5.9-12.4,13-8.2L327,132.6z"/>
	
		<linearGradient id="SVGID_3_" gradientUnits="userSpaceOnUse" x1="257.2604" y1="260.6432" x2="238.1824" y2="-1.9658" gradientTransform="matrix(1 0 0 -1 0 524)">
		<stop  offset="0" style="stop-color:#0DA6C6"/>
		<stop  offset="0.129" style="stop-color:#138BB7"/>
		<stop  offset="0.2684" style="stop-color:#1774A9"/>
		<stop  offset="0.4108" style="stop-color:#19629F"/>
		<stop  offset="0.5542" style="stop-color:#1B5597"/>
		<stop  offset="0.6991" style="stop-color:#1D4A92"/>
		<stop  offset="0.8465" style="stop-color:#1F448F"/>
		<stop  offset="1" style="stop-color:#20428E"/>
	</linearGradient>
	<path class="st3" d="M179.1,387c0,1.8,0.9,3.4,2.4,4.3l144.1,83.2c3.2,1.9,7.3-0.4,7.3-4.2l0.2-57.2v-2l0.2-89.8v-2.1l0.1-47.1v-2
		l0.3-108c0-1.8-0.9-3.4-2.4-4.3L187.3,74.6c-3.2-1.9-7.3,0.5-7.3,4.2l-0.2,95.2v2l-0.1,47.1v2l-0.2,73.7v2L179.1,387z"/>
	
		<linearGradient id="SVGID_4_" gradientUnits="userSpaceOnUse" x1="341.5616" y1="104.1044" x2="255.0985" y2="478.7802" gradientTransform="matrix(1 0 0 -1 0 524)">
		<stop  offset="0" style="stop-color:#F2F2F2"/>
		<stop  offset="1" style="stop-color:#939598"/>
	</linearGradient>
	<path class="st4" d="M178.1,51l16.2-9.4c0,0,0,0,0.1,0c0.2-0.1,0.4-0.2,0.6-0.3h0.1c0.1,0,0.1,0,0.2-0.1c0.1,0,0.2-0.1,0.3-0.1
		c0.1,0,0.2,0,0.3-0.1c0.1,0,0.2,0,0.2-0.1h0.1c0.2,0,0.5-0.1,0.7-0.1h0.1c0.2,0,0.5,0,0.7,0c0.1,0,0.1,0,0.2,0c0.1,0,0.2,0,0.3,0
		c0.1,0,0.2,0,0.4,0c0.1,0,0.2,0,0.3,0.1c0.2,0,0.3,0.1,0.5,0.1c0.1,0,0.2,0,0.3,0.1c0.1,0,0.2,0.1,0.3,0.1c0.3,0.1,0.6,0.2,0.8,0.3
		c0.1,0,0.2,0.1,0.3,0.1c0.1,0,0.2,0.1,0.3,0.1c0.1,0,0.2,0.1,0.3,0.1c0.4,0.2,0.7,0.4,1.2,0.6l139.9,80.8c0.4,0.2,0.8,0.5,1.3,0.7
		c0.1,0.1,0.2,0.2,0.4,0.3c0.3,0.2,0.5,0.4,0.8,0.6c0.1,0.1,0.3,0.2,0.4,0.3c0.2,0.2,0.5,0.4,0.7,0.7c0.1,0.1,0.2,0.2,0.4,0.3
		c0.1,0.1,0.1,0.1,0.2,0.1c0.1,0.1,0.2,0.2,0.3,0.3c0.3,0.3,0.5,0.5,0.8,0.8c0.1,0.1,0.1,0.1,0.2,0.2c0.1,0.1,0.2,0.3,0.4,0.4
		c0.1,0.2,0.3,0.4,0.4,0.5c0.1,0.1,0.1,0.1,0.2,0.2c0.2,0.2,0.3,0.4,0.5,0.6c0.1,0.1,0.2,0.2,0.3,0.4l0.1,0.1
		c0.2,0.4,0.5,0.7,0.7,1.2c0,0,0,0.1,0.1,0.1c0.1,0.1,0.1,0.2,0.2,0.3c0.1,0.2,0.3,0.5,0.4,0.7c0.1,0.1,0.1,0.2,0.2,0.4
		c0.1,0.1,0.1,0.3,0.2,0.4c0.1,0.1,0.1,0.2,0.2,0.3c0.1,0.3,0.3,0.6,0.4,0.9c0,0.1,0.1,0.1,0.1,0.2c0,0,0,0,0,0.1
		c0.2,0.4,0.4,0.7,0.5,1.2c0,0.1,0.1,0.1,0.1,0.2c0.1,0.1,0.1,0.3,0.2,0.4c0.1,0.2,0.2,0.4,0.2,0.6c0.1,0.2,0.1,0.3,0.2,0.5
		c0.1,0.2,0.1,0.3,0.2,0.5c0,0.1,0.1,0.2,0.1,0.3c0.1,0.2,0.2,0.5,0.2,0.7c0,0.2,0.1,0.3,0.1,0.5v0.1c0.1,0.3,0.1,0.5,0.2,0.8
		c0.1,0.2,0.1,0.5,0.2,0.7v0.1c0,0.1,0,0.3,0.1,0.4c0.1,0.4,0.2,0.9,0.2,1.4c0,0.1,0,0.1,0,0.2c0,0.2,0,0.5,0.1,0.7
		c0,0.2,0,0.3,0,0.5c0,0.5,0.1,1,0.1,1.6l-0.9,319.2c0,4.4-1.6,7.5-4,9l-16.2,9.4c2.5-1.5,4-4.6,4-9l0.9-319.2c0-0.5,0-1-0.1-1.6
		c0-0.2,0-0.3,0-0.5c0-0.3-0.1-0.6-0.1-0.9c-0.1-0.4-0.1-0.9-0.2-1.4c0-0.2-0.1-0.3-0.1-0.5c-0.1-0.2-0.1-0.5-0.2-0.7
		c-0.1-0.3-0.1-0.6-0.2-0.9c0-0.2-0.1-0.3-0.1-0.5c-0.1-0.3-0.2-0.7-0.3-1c-0.1-0.2-0.1-0.3-0.2-0.5c-0.1-0.3-0.3-0.7-0.4-1
		c-0.1-0.1-0.1-0.3-0.2-0.4c-0.2-0.5-0.4-0.9-0.6-1.5c0-0.1-0.1-0.1-0.1-0.2c-0.2-0.4-0.4-0.8-0.6-1.3c-0.1-0.1-0.1-0.3-0.2-0.4
		c-0.2-0.4-0.4-0.7-0.6-1.2c-0.1-0.1-0.1-0.2-0.2-0.3c-0.3-0.4-0.6-0.9-0.8-1.4c-0.1-0.1-0.2-0.2-0.3-0.4c-0.2-0.3-0.4-0.6-0.7-0.9
		c-0.1-0.2-0.3-0.4-0.4-0.5c-0.2-0.2-0.4-0.4-0.5-0.6c-0.2-0.3-0.5-0.5-0.8-0.8c-0.2-0.2-0.3-0.3-0.5-0.5c-0.1-0.1-0.2-0.2-0.4-0.3
		c-0.2-0.2-0.5-0.4-0.7-0.7c-0.1-0.1-0.3-0.2-0.4-0.3c-0.3-0.2-0.5-0.4-0.8-0.6c-0.1-0.1-0.2-0.2-0.4-0.3c-0.4-0.3-0.8-0.5-1.3-0.7
		L187,51.8c-0.4-0.2-0.7-0.4-1.2-0.6c-0.1,0-0.2-0.1-0.3-0.1c-0.2-0.1-0.4-0.2-0.6-0.2c-0.3-0.1-0.6-0.2-0.8-0.3
		c-0.2-0.1-0.4-0.1-0.5-0.1c-0.2,0-0.3-0.1-0.5-0.1c-0.2,0-0.4-0.1-0.6-0.1c-0.1,0-0.2,0-0.3,0c-0.3,0-0.6,0-0.9,0H181
		c-0.3,0-0.6,0.1-0.9,0.1c-0.1,0-0.2,0-0.2,0.1c-0.2,0.1-0.4,0.1-0.7,0.2c-0.1,0-0.1,0-0.2,0.1C178.7,50.7,178.4,50.8,178.1,51z"/>
	<path class="st5" d="M285.5,119.6c-0.2,0-0.5-0.1-0.7-0.2l-52.3-29.2c-0.7-0.4-1-1.4-0.6-2.1c0.4-0.7,1.4-1,2.1-0.6l52.3,29.2
		c0.7,0.4,1,1.4,0.6,2.1C286.5,119.3,286,119.6,285.5,119.6z"/>
	
		<linearGradient id="SVGID_5_" gradientUnits="userSpaceOnUse" x1="189.8464" y1="203.887" x2="195.1944" y2="220.924" gradientTransform="matrix(1 0 0 -1 0 524)">
		<stop  offset="0" style="stop-color:#BDBEC0"/>
		<stop  offset="0.2229" style="stop-color:#DADADA"/>
		<stop  offset="0.439" style="stop-color:#F2F2F2"/>
		<stop  offset="0.5699" style="stop-color:#FFFFFF"/>
		<stop  offset="0.6741" style="stop-color:#F1F0F0"/>
		<stop  offset="0.8551" style="stop-color:#D5D5D6"/>
		<stop  offset="1" style="stop-color:#BDBEC0"/>
	</linearGradient>
	<path class="st6" d="M191.2,317c0-0.2,0-0.3,0-0.5s0-0.4,0-0.5c0-0.1,0-0.2,0-0.4c0-0.1,0-0.2,0-0.3c0-0.2,0-0.3,0.1-0.5
		c0-0.1,0-0.2,0-0.3c0-0.2,0.1-0.4,0.1-0.5c0-0.1,0-0.1,0-0.2c0.1-0.3,0.1-0.5,0.2-0.7v-0.1c0.1-0.2,0.1-0.4,0.2-0.7
		c0-0.1,0-0.1,0.1-0.2c0.1-0.2,0.2-0.4,0.2-0.6v-0.1c0.1-0.2,0.2-0.5,0.3-0.7c0-0.1,0.1-0.1,0.1-0.2c0.1-0.2,0.2-0.3,0.3-0.5
		c0-0.1,0.1-0.2,0.1-0.3c0.1-0.1,0.2-0.3,0.2-0.4c0.1-0.1,0.1-0.2,0.2-0.3c0.1-0.1,0.1-0.2,0.2-0.3c0.1-0.2,0.2-0.3,0.4-0.5
		c0.1-0.1,0.2-0.2,0.2-0.3c0.1-0.1,0.1-0.2,0.2-0.2c0.1-0.1,0.2-0.2,0.3-0.4c0.1-0.1,0.1-0.1,0.2-0.2c0.1-0.1,0.2-0.2,0.4-0.4
		c0.1-0.1,0.1-0.1,0.2-0.2c0.2-0.2,0.4-0.3,0.6-0.5c0.1-0.1,0.3-0.2,0.4-0.3c0,0,0.1,0,0.1-0.1c0.1-0.1,0.2-0.1,0.3-0.2
		c0,0,0.1,0,0.1-0.1c0.1-0.1,0.2-0.1,0.3-0.1c0,0,0,0,0.1,0c0.1-0.1,0.2-0.1,0.3-0.2c0.2-0.1,0.4-0.1,0.5-0.2c0.1,0,0.3-0.1,0.4-0.1
		h0.1c0.1,0,0.3,0,0.4,0c0,0,0,0,0.1,0c0.1,0,0.2,0,0.3,0h0.1c0.1,0,0.2,0,0.3,0s0.2,0,0.3,0.1h0.1c0.1,0,0.2,0.1,0.3,0.1h0.1
		l-5.1-2.2c-0.1,0-0.2-0.1-0.3-0.1c-0.1,0-0.2-0.1-0.3-0.1c-0.1,0-0.2,0-0.3,0c0,0,0,0-0.1,0s-0.2,0-0.3,0s-0.2,0-0.4,0
		c-0.1,0-0.3,0.1-0.4,0.1c-0.2,0-0.3,0.1-0.5,0.2c-0.1,0-0.2,0.1-0.3,0.2c0,0,0,0-0.1,0c-0.1,0-0.2,0.1-0.3,0.1c0,0,0,0-0.1,0
		c-0.1,0.1-0.2,0.1-0.3,0.2c0,0-0.1,0-0.1,0.1c-0.1,0.1-0.3,0.2-0.4,0.3c-0.2,0.1-0.4,0.3-0.6,0.5c-0.1,0.1-0.1,0.1-0.2,0.2
		c-0.1,0.1-0.2,0.2-0.4,0.4c-0.1,0.1-0.1,0.1-0.2,0.2c-0.1,0.1-0.2,0.2-0.3,0.4c-0.1,0.1-0.1,0.2-0.2,0.2l-0.1,0.1
		c0,0.1-0.1,0.1-0.1,0.2c-0.1,0.2-0.3,0.3-0.4,0.5c0,0.1-0.1,0.1-0.1,0.2l-0.1,0.1c-0.1,0.1-0.1,0.2-0.2,0.3c0,0.1-0.1,0.1-0.1,0.2
		s-0.1,0.1-0.1,0.2c-0.1,0.1-0.1,0.2-0.1,0.3c0,0.1-0.1,0.1-0.1,0.2c-0.1,0.1-0.1,0.2-0.2,0.3c0,0.1-0.1,0.1-0.1,0.2v0.1
		c-0.1,0.2-0.2,0.4-0.3,0.6v0.1c-0.1,0.1-0.1,0.3-0.2,0.4c0,0.1,0,0.1-0.1,0.2c0,0.1,0,0.1-0.1,0.2c0,0.1,0,0.1-0.1,0.2
		c-0.1,0.2-0.1,0.3-0.2,0.5v0.1c-0.1,0.2-0.1,0.4-0.2,0.6v0.1c0,0.1,0,0.1-0.1,0.2c0,0.1,0,0.2-0.1,0.3c0,0.1,0,0.2,0,0.2
		c0,0.1,0,0.2,0,0.3s0,0.1,0,0.2c0,0.1,0,0.2,0,0.3c0,0.1,0,0.2,0,0.3v0.1c0,0.1,0,0.2,0,0.2c0,0.2,0,0.4,0,0.5v0.1
		c0,0.1,0,0.2,0,0.3c0,0.1,0,0.2,0,0.2c0,0.2,0,0.5,0.1,0.7c0.3,2.1,1.3,3.6,2.5,4.1l5.1,2.2c-1.4-0.5-2.3-2-2.5-4.1
		c0-0.2,0-0.5-0.1-0.7C191.2,317.2,191.2,317.1,191.2,317z"/>
	
		<linearGradient id="SVGID_6_" gradientUnits="userSpaceOnUse" x1="207.2975" y1="216.5407" x2="194.4545" y2="208.8057" gradientTransform="matrix(1 0 0 -1 0 524)">
		<stop  offset="0" style="stop-color:#BDBEC0"/>
		<stop  offset="0.3912" style="stop-color:#DADADA"/>
		<stop  offset="0.7703" style="stop-color:#F2F2F2"/>
		<stop  offset="1" style="stop-color:#FFFFFF"/>
	</linearGradient>
	<path class="st7" d="M196.6,305.5c3.5-2.6,6.8-1.3,7.3,3c0.5,4.3-1.8,10-5.3,12.6c-3.5,2.6-6.8,1.3-7.3-3S193,308.1,196.6,305.5z"
		/>
	
		<linearGradient id="SVGID_7_" gradientUnits="userSpaceOnUse" x1="152.1552" y1="222.6593" x2="175.7412" y2="248.6523" gradientTransform="matrix(1 0 0 -1 0 524)">
		<stop  offset="0" style="stop-color:#BDBEC0"/>
		<stop  offset="0.2229" style="stop-color:#DADADA"/>
		<stop  offset="0.439" style="stop-color:#F2F2F2"/>
		<stop  offset="0.5699" style="stop-color:#FFFFFF"/>
		<stop  offset="0.6741" style="stop-color:#F1F0F0"/>
		<stop  offset="0.8551" style="stop-color:#D5D5D6"/>
		<stop  offset="1" style="stop-color:#BDBEC0"/>
	</linearGradient>
	<path class="st8" d="M190.8,311.8c0.1-0.1,0.1-0.1,0.1-0.1c2.1-2.5,3-5.6,2.9-8.7c0-0.3,0-0.6-0.1-0.8c0-0.1,0-0.2,0-0.3v-0.1
		c0,0,0,0,0-0.1c0-0.1,0-0.1,0-0.2s0-0.1,0-0.2V301c0-0.2-0.1-0.3-0.1-0.4v-0.2c0,0,0,0,0-0.1c0-0.1,0-0.1,0-0.2c0,0,0,0,0-0.1v-0.1
		c0-0.1,0-0.1-0.1-0.2l-0.1-0.2c0-0.1-0.1-0.1-0.1-0.2v-0.1V299c0-0.1-0.1-0.1-0.1-0.2c0,0,0-0.1-0.1-0.1v-0.1c0,0,0,0,0-0.1
		c0,0,0-0.1-0.1-0.1c0,0,0-0.1-0.1-0.1v-0.1c0-0.1-0.1-0.1-0.1-0.2v-0.1c0,0,0-0.1-0.1-0.1c-0.1-0.1-0.1-0.2-0.2-0.3
		c0-0.1-0.1-0.1-0.1-0.2l-0.1-0.1l-0.1-0.1c-0.1-0.2-0.2-0.3-0.3-0.4c0,0,0-0.1-0.1-0.1c-0.4-0.5-0.9-1.2-1.4-1.9l-3-4
		c-0.1-0.1-0.1-0.2-0.2-0.3l-1.8-2.4c-0.4-0.5-0.9-1.2-1.4-1.9l-6.2-8.2c-0.1-0.1-0.1-0.2-0.2-0.3l-1-1.4c-0.1-0.1-0.1-0.1-0.2-0.2
		c-0.4-0.5-0.9-1.2-1.3-1.7c-0.1-0.2-0.3-0.4-0.4-0.5l-0.4-0.5c-0.3-0.4-0.6-0.8-0.9-1.3l-2-2.6c-0.2-0.3-0.4-0.6-0.6-0.8l-0.2-0.3
		c-0.2-0.2-0.4-0.5-0.5-0.7c-0.2-0.3-0.5-0.7-0.8-1l-0.3-0.4c0-0.1-0.1-0.1-0.1-0.2c-0.1-0.2-0.3-0.4-0.4-0.5l-0.4-0.5
		c-0.3-0.4-0.6-0.8-0.9-1.3l-0.8-1.2c-0.3-0.4-0.7-0.9-1.2-1.4c0,0,0,0-0.1-0.1c-0.2-0.2-0.3-0.3-0.5-0.5c-0.2-0.1-0.3-0.3-0.4-0.4
		c-0.2-0.2-0.4-0.3-0.7-0.5c0,0,0,0-0.1,0c-0.2-0.2-0.5-0.4-0.8-0.6c0,0-0.1,0-0.1-0.1c-0.1,0-0.2-0.1-0.2-0.1
		c-0.2-0.1-0.3-0.2-0.5-0.3c-0.3-0.1-0.5-0.3-0.8-0.4c0,0,0,0-0.1,0c-0.1,0-0.1-0.1-0.2-0.1c-2.5-1.2-5.1-1.4-7.4-1.2h-0.1
		c0,0,0,0-0.1,0h-0.1c-0.1,0-0.3,0-0.4,0s-0.2,0-0.3,0c-0.1,0-0.2,0-0.3,0c-0.1,0-0.1,0-0.2,0c-0.1,0-0.3,0-0.4,0.1
		c-0.2,0-0.4,0.1-0.6,0.1c-0.1,0-0.2,0-0.3,0.1c-0.1,0-0.2,0.1-0.3,0.1c-0.1,0-0.1,0-0.2,0c-0.6,0.1-0.9,0.3-1.3,0.3H148
		c-0.1,0-0.2,0.1-0.2,0.1c-0.2,0.1-0.4,0.2-0.6,0.2c-0.1,0-0.1,0-0.2,0.1c-0.3,0.1-0.6,0.2-0.8,0.4c-0.2,0.1-0.4,0.2-0.7,0.3
		c-0.2,0.1-0.3,0.2-0.5,0.2c-0.2,0.1-0.4,0.2-0.6,0.3c-1.3,0.7-2.5,1.6-3.7,2.5c-0.2,0.2-0.4,0.3-0.6,0.5c0,0,0,0-0.1,0.1
		c-0.2,0.2-0.4,0.4-0.6,0.6c-0.1,0.1-0.1,0.1-0.2,0.2c-0.2,0.2-0.5,0.5-0.7,0.7c-0.2,0.2-0.3,0.3-0.5,0.5c-0.1,0.1-0.1,0.1-0.2,0.2
		c-0.1,0.2-0.3,0.3-0.4,0.5c-0.1,0.1-0.2,0.2-0.2,0.3c-0.1,0.1-0.2,0.2-0.3,0.3c-0.2,0.2-0.4,0.5-0.5,0.7c-1.8,2.4-3,5-3.8,7.6
		c-0.1,0.2-0.1,0.4-0.2,0.6c0,0.1-0.1,0.3-0.1,0.4v0.1c-0.2,1-0.3,2-0.4,2.9c0,0.2,0,0.3,0,0.5c0,0.1,0,0.1,0,0.2c0,0.1,0,0.2,0,0.2
		c0,0.1,0,0.1,0,0.2c0,0.2,0,0.3,0,0.5v0.1v0.1c0,0.2,0,0.3,0,0.5c0,0.2,0,0.3,0.1,0.5c0,0,0,0,0,0.1c0,0.2,0.1,0.4,0.1,0.6
		c0,0,0,0,0,0.1v0.1c0,0.1,0,0.2,0.1,0.3v0.1c0.1,0.3,0.1,0.5,0.2,0.7c0,0.1,0,0.1,0.1,0.2c0.1,0.3,0.2,0.5,0.2,0.7
		c0,0,0,0.1,0.1,0.2c0,0,0,0.1,0.1,0.1v0.1c0.4,1.2,0.9,2.2,1.7,3.1c0.1,0.1,0.1,0.2,0.2,0.3c0,0,0,0,0,0.1l0.1,0.1c0,0,0,0,0,0.1
		c0,0,0,0,0,0.1c0,0,0,0,0,0.1c0.2,0.2,0.3,0.4,0.5,0.6l0.1,0.1c0.1,0.1,0.1,0.2,0.2,0.2l0.1,0.1c0,0,0,0,0.1,0.1
		c0.2,0.2,0.3,0.3,0.5,0.5c0,0,0,0,0.1,0.1c0.1,0.1,0.1,0.1,0.2,0.2c0.1,0.1,0.1,0.1,0.2,0.2l0.1,0.1c0.2,0.1,0.3,0.3,0.5,0.4
		c0.2,0.2,0.4,0.3,0.7,0.5l0.1,0.1c11.9,7.5,24,15.1,35.9,22.6c0.2,0.1,0.4,0.3,0.6,0.4c0,0,0.1,0,0.1,0.1c0,0,0.1,0,0.1,0.1
		c0.1,0,0.2,0.1,0.2,0.1h0.1c0.1,0,0.1,0.1,0.2,0.1c0,0,0.1,0,0.1,0.1h0.1c0,0,0.1,0,0.1,0.1l0.1,0.1l0.2,0.1h0.1
		c0.1,0,0.1,0,0.2,0.1c0.1,0,0.1,0,0.2,0.1h0.1c0,0,0.1,0,0.2,0.1c0.2,0.1,0.6,0.2,1.2,0.3c0.1,0,0.1,0,0.2,0s0.1,0,0.2,0h0.1
		c0.2,0,0.3,0,0.5,0.1c0.2,0,0.4,0,0.6,0c0.1,0,0.1,0,0.2,0c0.1,0,0.1,0,0.2,0c0.2,0,0.3,0,0.5,0c0.1,0,0.1,0,0.2,0c0,0,0,0,0.1,0
		c0,0,0,0,0.1,0h0.1h0.1c0.2,0,0.3,0,0.5,0c0.2,0,0.5-0.1,0.7-0.1c0,0,0,0,0.1,0c0.1,0,0.3-0.1,0.5-0.1c0.1,0,0.1,0,0.2,0l0.7-0.2
		H184c0.1,0,0.1,0,0.2,0h0.1c0,0,0,0-0.1,0c0.2-0.1,0.3-0.1,0.5-0.2c0.1,0,0.2-0.1,0.3-0.1c0.2-0.1,0.3-0.1,0.5-0.2
		c0,0,0.1,0,0.1-0.1c0.1-0.1,0.2-0.1,0.4-0.2c0,0,0.1,0,0.1-0.1h0.1h0.1c0.2-0.1,0.3-0.2,0.5-0.3c0.1-0.1,0.3-0.2,0.5-0.3h0.1h0.1
		c0.1,0,0.1-0.1,0.2-0.1c0,0,0.1,0,0.1-0.1c0.1,0,0.1-0.1,0.2-0.1c0.1-0.1,0.2-0.1,0.3-0.2c0,0,0,0,0.1,0s0.1-0.1,0.1-0.1
		c0.1-0.1,0.3-0.3,0.4-0.4c0.1-0.1,0.3-0.3,0.4-0.4c0.1-0.1,0.2-0.2,0.3-0.3C190.4,312.2,190.6,312,190.8,311.8z"/>
	
		<linearGradient id="SVGID_8_" gradientUnits="userSpaceOnUse" x1="171.3164" y1="205.2078" x2="194.9404" y2="231.2408" gradientTransform="matrix(1 0 0 -1 0 524)">
		<stop  offset="0" style="stop-color:#BDBEC0"/>
		<stop  offset="0.2229" style="stop-color:#DADADA"/>
		<stop  offset="0.439" style="stop-color:#F2F2F2"/>
		<stop  offset="0.5699" style="stop-color:#FFFFFF"/>
		<stop  offset="0.6741" style="stop-color:#F1F0F0"/>
		<stop  offset="0.8551" style="stop-color:#D5D5D6"/>
		<stop  offset="1" style="stop-color:#BDBEC0"/>
	</linearGradient>
	<path class="st9" d="M191.6,296.7c-0.1-0.1-0.1-0.2-0.2-0.2c0,0,0,0.1,0.1,0.1C191.5,296.6,191.6,296.6,191.6,296.7z"/>
	
		<linearGradient id="SVGID_9_" gradientUnits="userSpaceOnUse" x1="142.1427" y1="267.1519" x2="142.5807" y2="246.9689" gradientTransform="matrix(1 0 0 -1 0 524)">
		<stop  offset="1.065560e-07" style="stop-color:#064961"/>
		<stop  offset="1" style="stop-color:#29AAE1"/>
	</linearGradient>
	<path class="st10" d="M151.2,268.4c1.5-2.9,1.4-6.2-2-9c-5.1-4.3-14.6-3.2-16.5,4.2c-0.5,2.3-0.2,4.7,0.7,6.8
		c1.5,3.7,3.7,8,8.3,6.4c1.7-0.6,3.1-1.7,4.6-2.8C148.4,272.4,150.2,270.5,151.2,268.4z"/>
	
		<linearGradient id="SVGID_10_" gradientUnits="userSpaceOnUse" x1="183.085" y1="240.3302" x2="292.94" y2="240.3302" gradientTransform="matrix(1 0 0 -1 0 524)">
		<stop  offset="0" style="stop-color:#BDBEC0"/>
		<stop  offset="0.2229" style="stop-color:#DADADA"/>
		<stop  offset="0.439" style="stop-color:#F2F2F2"/>
		<stop  offset="0.5699" style="stop-color:#FFFFFF"/>
		<stop  offset="0.6741" style="stop-color:#F1F0F0"/>
		<stop  offset="0.8551" style="stop-color:#D5D5D6"/>
		<stop  offset="1" style="stop-color:#BDBEC0"/>
	</linearGradient>
	<path class="st11" d="M292.9,255.5c0-0.3,0-0.5,0-0.8c0-0.2,0-0.3,0-0.5c0-0.4,0-0.7,0-1.2c0-0.2,0-0.3,0-0.5c0-0.1,0-0.3,0-0.4
		c0-0.2,0-0.4,0-0.5c0-0.2,0-0.4,0-0.6c0-0.2,0-0.5,0-0.7v-0.1v-0.1v-0.1v-0.1c0-0.3,0-0.7-0.1-1c0-0.1,0-0.2,0-0.2
		c0-0.2,0-0.4-0.1-0.6c0-0.1,0-0.3,0-0.4v-0.2V247v-0.1c0-0.4-0.1-0.7-0.1-1.2v-0.1v-0.1v-0.1v-0.1v-0.1v-0.1V245v-0.1v-0.1v-0.1
		v-0.1v-0.1v-0.1v-0.1v-0.1v-0.1V244v-0.1v-0.1v-0.1c0,0,0,0,0-0.1l-0.4-2.8c0-0.2-0.1-0.5-0.1-0.7c0,0.2,0.1,0.4,0.1,0.6
		c0-0.2-0.1-0.4-0.1-0.7c0-0.2-0.1-0.5-0.1-0.7V239c0-0.1,0-0.2-0.1-0.3c0-0.1,0-0.1,0-0.2v-0.1v-0.1c-0.2-0.9-0.4-1.6-0.5-2.2
		c0-0.1-0.1-0.3-0.1-0.4c0-0.1-0.1-0.2-0.1-0.3c-0.1-0.2-0.1-0.4-0.2-0.6c-0.1-0.3-0.2-0.6-0.3-0.8c-0.3-0.7-0.6-1.5-0.9-2.2
		c-0.3-0.6-0.6-1.4-0.9-1.9c-0.3-0.5-0.6-1-0.9-1.7c0-0.1-0.1-0.1-0.1-0.2l-0.1-0.3c-0.1-0.1-0.1-0.2-0.2-0.3
		c-0.1-0.1-0.2-0.3-0.2-0.4c-0.2-0.3-0.3-0.5-0.5-0.8c-0.2-0.3-0.4-0.6-0.6-0.9c0-0.1-0.1-0.1-0.1-0.2c-1-1.5-2.3-2.9-3.9-4.4
		l-0.1-0.1l-0.1-0.1c-0.1-0.1-0.2-0.2-0.2-0.2c-0.1-0.1-0.2-0.2-0.3-0.3c-0.6-0.6-1.5-1.4-2.2-1.9c0,0-0.1,0-0.1-0.1
		c-0.4-0.3-0.7-0.6-1.2-0.9c-0.1-0.1-0.2-0.2-0.3-0.2c-0.7-0.5-1.7-1.2-2.4-1.7c0.3,0.2,0.6,0.4,0.9,0.6c-0.3-0.2-0.7-0.5-1-0.6
		l-0.8-0.5c0,0-0.1,0-0.1-0.1c-0.3-0.2-0.6-0.4-0.9-0.6c-0.2-0.1-0.5-0.3-0.8-0.5c0,0,0,0-0.1,0h-0.1c-0.4-0.2-0.8-0.5-1.4-0.7
		c-1-0.5-1.8-0.9-2.3-1.2c-0.9-0.4-2-0.9-3.1-1.4h-0.1H265h-0.1h-0.1h-0.1h-0.1c-0.5-0.2-1.2-0.4-1.8-0.6l-0.2-0.1
		c-0.1,0-0.1,0-0.2-0.1c-0.2-0.1-0.4-0.1-0.6-0.2c-0.1,0-0.1,0-0.2-0.1c-0.1,0-0.1,0-0.2-0.1c-0.8-0.3-1.8-0.6-2.7-0.8
		c-0.2-0.1-0.4-0.1-0.5-0.1H258c0,0,0,0-0.1,0h-0.1c-0.8-0.2-2-0.5-3-0.7c-0.1,0-0.2,0-0.3-0.1h-0.1c0,0,0,0-0.1,0h-0.1
		c-0.7-0.2-1.5-0.3-2.2-0.4c-0.6-0.1-1.2-0.2-1.4-0.2h-0.1c-0.1,0-0.2,0-0.3,0h-0.1h-0.1c-0.4-0.1-0.9-0.1-1.4-0.2
		c-0.4-0.1-0.7-0.1-1.2-0.1c-0.3,0-0.6-0.1-0.9-0.1c-1.5-0.2-3.7-0.3-6.3-0.4c-0.2,0-0.4,0-0.5,0c-0.4,0-0.9,0-1.4,0
		c-0.6,0-1.2,0-1.8,0c0,0,0,0-0.1,0c-0.1,0-0.2,0-0.3,0s-0.1,0-0.2,0c-0.4,0-0.7,0-1.2,0.1c-0.7,0-1.3,0.1-1.9,0.1c0,0,0,0-0.1,0
		c-0.1,0-0.3,0-0.4,0c-0.5,0-1.2,0.1-1.8,0.2c-0.6,0.1-1.3,0.1-1.9,0.2c-0.1,0-0.4,0-0.6,0.1c-2,0.3-3.7,0.6-5.2,0.9
		c-0.3,0.1-0.7,0.2-1,0.2c-0.5,0.1-1,0.2-1.5,0.4c-0.8,0.2-1.8,0.4-2.5,0.7c-0.3,0.1-0.7,0.2-1.2,0.4c-0.1,0-0.2,0.1-0.3,0.1
		c-0.3,0.1-0.6,0.2-0.9,0.3c-0.1,0-0.3,0.1-0.4,0.1l0.4-0.2l-0.6,0.2l-0.3,0.1l-0.2,0.1c-0.9,0.3-1.9,0.7-2.7,1
		c-0.1,0-0.2,0.1-0.3,0.1c-0.4,0.2-0.9,0.4-1.5,0.6c-0.5,0.2-1,0.5-1.5,0.7c0,0,0,0-0.1,0H208h-0.1c-0.2,0.1-0.4,0.2-0.5,0.3
		c-0.6,0.3-1.4,0.7-2.1,1.2c-0.1,0-0.2,0.1-0.2,0.1c-0.8,0.5-1.9,1.2-2.8,1.8c-0.1,0-0.1,0.1-0.2,0.1c-0.1,0.1-0.2,0.1-0.3,0.2
		c-1.2,0.7-2.4,1.8-3.7,2.8c0,0,0,0-0.1,0.1l-0.1,0.1c-0.2,0.2-0.4,0.3-0.5,0.5c-0.1,0.1-0.2,0.2-0.3,0.3c-0.3,0.3-0.6,0.6-1,0.9
		c-0.2,0.2-0.4,0.4-0.6,0.6c-0.5,0.5-0.9,0.9-1.4,1.5c-0.2,0.2-0.4,0.4-0.5,0.6c-0.4,0.5-0.8,0.9-1.3,1.5c-0.2,0.3-0.4,0.6-0.6,0.8
		c0,0.1-0.1,0.1-0.1,0.2c-0.1,0.1-0.1,0.2-0.2,0.3l-0.1,0.1c0,0,0,0.1-0.1,0.1c-0.3,0.4-0.6,0.8-0.8,1.4v0.1v0.1
		c-0.4,0.6-0.7,1.4-1.3,2.1c-0.2,0.3-0.4,0.7-0.6,1.3c0,0,0,0,0,0.1c0,0,0,0,0,0.1c0,0.1-0.1,0.2-0.1,0.2c-0.1,0.2-0.2,0.3-0.2,0.5
		v0.1c0,0,0,0,0,0.1c-0.1,0.3-0.3,0.7-0.4,1v0.1v0.1c-0.1,0.1-0.1,0.3-0.1,0.4c-0.3,0.7-0.5,1.6-0.7,2.3c-0.2,0.5-0.3,1.2-0.4,1.7
		c0,0.2-0.1,0.4-0.1,0.7c0,0.1-0.1,0.2-0.1,0.4c0,0.2-0.1,0.5-0.1,0.7c0,0,0,0,0,0.1v0.1v0.1c0,0.1,0,0.1,0,0.2c0,0.1,0,0.1,0,0.2
		v0.1c0,0.1,0,0.2-0.1,0.4v0.1c-0.1,0.9-0.3,1.9-0.4,2.8c0,0,0,0,0,0.1v0.1v0.1v0.1v0.1v0.1v0.1v0.1v0.1v0.1c-0.1,0.6-0.1,1-0.1,1.3
		c0,0.3-0.1,0.7-0.1,1.2v0.1v0.2v0.1c0,0.1,0,0.2,0,0.4c0,0.2,0,0.4-0.1,0.6c0,0.1,0,0.2,0,0.2c0,0.3,0,0.7-0.1,1v0.1v0.1v0.1v0.1
		c0,0.2,0,0.5,0,0.7c0,0.2,0,0.4,0,0.6c0,0.2,0,0.3,0,0.5c0,0.1,0,0.3,0,0.4c0,0.2,0,0.3,0,0.5c0,0.9,0,1.8,0,2.6v0.1v0.1
		c0,0.2,0,0.5,0,0.7c0,0.2,0,0.3,0,0.5c0,0.4,0,0.8,0,1.3v0.1v0.1c0,0.4,0,0.8,0.1,1.3c0.1,1.5,0.2,3.8,0.6,6.8
		c0,0.3,0.1,0.5,0.1,0.8c0,0.1,0,0.2,0.1,0.4c0,0,0,0,0,0.1c0,0.1,0,0.3,0.1,0.5c0,0.2,0.1,0.4,0.1,0.6v0.1v0.1v0.1
		c0,0.1,0,0.2,0.1,0.4c0,0.1,0,0.2,0.1,0.3c0,0.2,0.1,0.4,0.1,0.5s0,0.2,0.1,0.3c0,0.1,0,0.1,0,0.2c0,0.2,0.1,0.5,0.1,0.7v0.1v0.1
		c0,0.1,0,0.2,0.1,0.3c0.1,0.3,0.1,0.6,0.2,0.8c4.5,21.3,9,42.5,13.5,63.8v0.1c0,0.1,0,0.1,0,0.2c0,0.1,0,0.1,0,0.2l0.1,0.4v0.1
		c0.2,1.2,0.5,1.9,0.6,2.1v0.1v0.1l0.1,0.3v0.1v0.1c0,0,0,0,0-0.1c0.1,0.2,0.2,0.4,0.2,0.6c0,0.1,0.1,0.2,0.1,0.3
		c0.1,0.1,0.1,0.2,0.2,0.4c0,0.1,0.1,0.1,0.1,0.2c0,0,0,0,0,0.1c0,0,0,0.1,0.1,0.1c0.1,0.1,0.1,0.3,0.2,0.4c0.1,0.3,0.3,0.6,0.4,0.8
		c0.1,0.1,0.2,0.3,0.2,0.4c0.1,0.2,0.2,0.3,0.3,0.5c1.7,2.7,3.9,5.2,6.6,7.3c0,0,0,0,0.1,0c0.1,0.1,0.3,0.2,0.4,0.3l0.1,0.1
		c0,0,0,0,0.1,0c0.3,0.2,0.5,0.4,0.9,0.6l0.1,0.1c0.1,0.1,0.5,0.3,1.2,0.7c0.1,0,0.1,0.1,0.2,0.1s0.1,0.1,0.2,0.1
		c0.2,0.1,0.3,0.2,0.5,0.3c0,0,0.1,0,0.1,0.1c0.1,0,0.1,0.1,0.2,0.1c2.7,1.6,5.7,2.9,8.7,3.9c0.5,0.2,1,0.3,1.6,0.5
		c0.3,0.1,0.6,0.2,0.9,0.3c0.4,0.1,0.8,0.2,1.3,0.3c0.1,0,0.1,0,0.2,0c0.4,0.1,0.7,0.2,1.2,0.2c0.1,0,0.3,0.1,0.4,0.1
		c0.4,0.1,0.8,0.1,1.2,0.2c0.1,0,0.1,0,0.2,0c0.2,0,0.4,0.1,0.6,0.1c0.8,0.1,1.7,0.3,2.4,0.3c0.2,0,0.4,0,0.6,0.1
		c3.8,0.4,7.9,0.5,11.9,0.1c2.1-0.2,4.2-0.5,6.1-0.9c6.7-1.5,13.3-4.2,18.3-8.3c0.4-0.3,0.8-0.7,1.4-1.2c0.3-0.3,0.6-0.5,0.8-0.8
		l0.1-0.1c0.6-0.6,1.3-1.3,1.8-2l0.1-0.1c0.3-0.3,0.5-0.6,0.7-0.9c0.1-0.1,0.2-0.2,0.2-0.3c0.2-0.3,0.4-0.5,0.6-0.8c0,0,0,0,0-0.1
		c0,0,0-0.1,0.1-0.1c0.5-0.8,0.9-1.5,1.3-2.1c0-0.1,0.1-0.1,0.1-0.2c0-0.1,0.1-0.1,0.1-0.2c0.1-0.1,0.1-0.3,0.2-0.4
		c0-0.1,0.1-0.2,0.1-0.3c0,0,0,0,0-0.1c0.1-0.2,0.1-0.3,0.2-0.5c0,0,0-0.1,0.1-0.1c0-0.1,0.1-0.2,0.1-0.3c0-0.1,0-0.1,0.1-0.1
		c0-0.1,0-0.1,0.1-0.2c0,0,0,0,0-0.1c0.2-0.4,0.3-0.8,0.5-1.4c0.1-0.4,0.3-1,0.4-1.5c0-0.2,0.1-0.4,0.1-0.6l0.1-0.3v-0.1v-0.1
		c0-0.1,0-0.1,0-0.2v-0.2v-0.1c4.4-21.3,8.8-42.7,13.2-63.9c0-0.2,0.1-0.5,0.2-0.8c0-0.1,0-0.2,0.1-0.3v-0.1v-0.1
		c0-0.2,0.1-0.4,0.1-0.6c0-0.1,0-0.1,0-0.2c0-0.1,0-0.2,0.1-0.3c0.1-0.5,0.1-0.7,0.2-1.3v-0.1v-0.1v-0.1c0-0.1,0-0.2,0.1-0.4
		c0-0.2,0.1-0.5,0.1-0.7c0,0,0,0,0-0.1c0-0.1,0-0.2,0-0.3l0.1-0.4v-0.1c0-0.2,0-0.3,0.1-0.5c0.4-3,0.5-5.3,0.6-6.8
		c0-0.4,0-0.8,0.1-1.3v-0.1v-0.1c0-0.2,0-0.5,0-0.7c0-0.2,0-0.4,0-0.5c0-0.1,0-0.3,0-0.4c0-0.1,0-0.3,0-0.4c0-0.1,0-0.3,0-0.4v-0.1
		v-0.1C292.9,255.6,292.9,255.5,292.9,255.5z M183.1,256c0,0.1,0,0.1,0,0.1V256z"/>
	<path class="st12" d="M282.8,253.8c-1.6,6.4-6.8,10.8-12.1,13.8c-7.1,4.1-15,6.7-23.1,7.4c-4.4,0.4-8.8,0.3-13-1.3
		c-3.2-1.3-9.5-5.3-6.8-9.9c2.5-4.3,12.2-2.3,15.9-2.4c11.2-0.5,21.5-6.8,31.2-12.9c2-1.3,4.4-2.4,6.3-1.2
		C283.2,248.8,283.4,251.6,282.8,253.8z"/>
	
		<linearGradient id="SVGID_11_" gradientUnits="userSpaceOnUse" x1="291.9083" y1="188.7517" x2="299.3273" y2="204.9937" gradientTransform="matrix(1 0 0 -1 0 524)">
		<stop  offset="0" style="stop-color:#BDBEC0"/>
		<stop  offset="0.2229" style="stop-color:#DADADA"/>
		<stop  offset="0.439" style="stop-color:#F2F2F2"/>
		<stop  offset="0.5699" style="stop-color:#FFFFFF"/>
		<stop  offset="0.6741" style="stop-color:#F1F0F0"/>
		<stop  offset="0.8551" style="stop-color:#D5D5D6"/>
		<stop  offset="1" style="stop-color:#BDBEC0"/>
	</linearGradient>
	<path class="st13" d="M293.2,332.2c0-0.2,0-0.3,0.1-0.5c0-0.2,0.1-0.3,0.1-0.5c0-0.1,0-0.2,0.1-0.4c0-0.1,0.1-0.2,0.1-0.3
		c0-0.2,0.1-0.3,0.1-0.5c0-0.1,0.1-0.2,0.1-0.3c0.1-0.2,0.1-0.4,0.2-0.5c0-0.1,0.1-0.1,0.1-0.2c0.1-0.2,0.2-0.5,0.3-0.7V328
		c0.1-0.2,0.2-0.4,0.3-0.6c0-0.1,0.1-0.1,0.1-0.2c0.1-0.2,0.2-0.4,0.3-0.6c0,0,0-0.1,0.1-0.1c0.1-0.2,0.3-0.5,0.4-0.7
		c0-0.1,0.1-0.1,0.1-0.2c0.1-0.2,0.2-0.3,0.3-0.5c0.1-0.1,0.1-0.2,0.2-0.2c0.1-0.1,0.2-0.3,0.3-0.4c0.1-0.1,0.2-0.2,0.3-0.3
		c0.1-0.1,0.2-0.2,0.2-0.3c0.1-0.2,0.3-0.3,0.4-0.5c0.1-0.1,0.2-0.2,0.3-0.3c0.1-0.1,0.1-0.1,0.2-0.2c0.1-0.1,0.2-0.2,0.4-0.3
		c0.1-0.1,0.1-0.1,0.2-0.2c0.1-0.1,0.3-0.2,0.4-0.3c0.1,0,0.1-0.1,0.2-0.1c0.2-0.1,0.4-0.3,0.6-0.4c0.1-0.1,0.3-0.2,0.4-0.2
		c0,0,0.1,0,0.1-0.1c0.1-0.1,0.2-0.1,0.3-0.1h0.1c0.1,0,0.2-0.1,0.3-0.1c0,0,0,0,0.1,0c0.1,0,0.2-0.1,0.4-0.1c0.2,0,0.4-0.1,0.5-0.1
		c0.1,0,0.3,0,0.4,0h0.1c0.1,0,0.3,0,0.4,0c0,0,0,0,0.1,0s0.2,0,0.3,0h0.1c0.1,0,0.2,0,0.3,0.1c0.1,0,0.2,0.1,0.3,0.1h0.1
		c0.1,0,0.2,0.1,0.2,0.1h0.1l-4.8-2.8c-0.1,0-0.2-0.1-0.2-0.1c-0.1,0-0.2-0.1-0.3-0.1c-0.1,0-0.2-0.1-0.3-0.1c0,0,0,0-0.1,0
		s-0.2,0-0.3,0c-0.1,0-0.3,0-0.4,0c-0.1,0-0.3,0-0.4,0c-0.2,0-0.4,0.1-0.5,0.1s-0.2,0.1-0.4,0.1c0,0,0,0-0.1,0
		c-0.1,0-0.2,0.1-0.3,0.1c0,0,0,0-0.1,0s-0.2,0.1-0.3,0.1c0,0-0.1,0-0.1,0.1c-0.1,0.1-0.3,0.1-0.4,0.2c-0.2,0.1-0.4,0.3-0.6,0.4
		c-0.1,0-0.1,0.1-0.2,0.1c-0.1,0.1-0.3,0.2-0.4,0.3c-0.1,0.1-0.1,0.1-0.2,0.2c-0.1,0.1-0.2,0.2-0.4,0.3c-0.1,0.1-0.1,0.1-0.2,0.2
		l-0.1,0.1l-0.1,0.1c-0.1,0.2-0.3,0.3-0.4,0.5c0,0.1-0.1,0.1-0.1,0.1l-0.1,0.1c-0.1,0.1-0.2,0.2-0.3,0.3c-0.1,0.1-0.1,0.1-0.2,0.2
		c0,0.1-0.1,0.1-0.1,0.2c-0.1,0.1-0.1,0.2-0.2,0.2c0,0.1-0.1,0.1-0.1,0.2c-0.1,0.1-0.1,0.2-0.2,0.3c0,0.1-0.1,0.1-0.1,0.2
		c0,0,0,0.1-0.1,0.1c-0.1,0.2-0.2,0.4-0.3,0.6c0,0,0,0.1-0.1,0.1c-0.1,0.1-0.2,0.3-0.2,0.4c0,0.1-0.1,0.1-0.1,0.2
		c0,0.1-0.1,0.1-0.1,0.2c0,0.1-0.1,0.1-0.1,0.2c-0.1,0.2-0.1,0.3-0.2,0.5v0.1c-0.1,0.2-0.2,0.4-0.2,0.6v0.1c0,0.1-0.1,0.1-0.1,0.2
		c0,0.1-0.1,0.2-0.1,0.3s0,0.2-0.1,0.2c0,0.1-0.1,0.2-0.1,0.3c0,0.1,0,0.1-0.1,0.2c0,0.1,0,0.2-0.1,0.3c0,0.1-0.1,0.2-0.1,0.3v0.1
		c0,0.1,0,0.2,0,0.2c0,0.2-0.1,0.3-0.1,0.5v0.1c0,0.1,0,0.2,0,0.3c0,0.1,0,0.2,0,0.2c0,0.2,0,0.5,0,0.7c0,2.2,0.7,3.7,2,4.4l4.8,2.8
		c-1.3-0.7-2-2.2-2-4.4c0-0.2,0-0.5,0-0.7C293.2,332.4,293.2,332.3,293.2,332.2z"/>
	
		<linearGradient id="SVGID_12_" gradientUnits="userSpaceOnUse" x1="310.4492" y1="199.3147" x2="296.7462" y2="193.2317" gradientTransform="matrix(1 0 0 -1 0 524)">
		<stop  offset="0" style="stop-color:#BDBEC0"/>
		<stop  offset="0.3912" style="stop-color:#DADADA"/>
		<stop  offset="0.7703" style="stop-color:#F2F2F2"/>
		<stop  offset="1" style="stop-color:#FFFFFF"/>
	</linearGradient>
	<path class="st14" d="M300,321.4c3.8-2.2,6.9-0.4,6.9,3.9c0,4.4-3,9.6-6.8,11.8c-3.8,2.2-6.9,0.4-6.9-3.9
		C293.2,328.9,296.3,323.6,300,321.4z"/>
	
		<linearGradient id="SVGID_13_" gradientUnits="userSpaceOnUse" x1="256.6507" y1="243.7134" x2="226.8067" y2="370.3094" gradientTransform="matrix(1 0 0 -1 0 524)">
		<stop  offset="0" style="stop-color:#BDBEC0"/>
		<stop  offset="0.2229" style="stop-color:#DADADA"/>
		<stop  offset="0.439" style="stop-color:#F2F2F2"/>
		<stop  offset="0.5699" style="stop-color:#FFFFFF"/>
		<stop  offset="0.6741" style="stop-color:#F1F0F0"/>
		<stop  offset="0.8551" style="stop-color:#D5D5D6"/>
		<stop  offset="1" style="stop-color:#BDBEC0"/>
	</linearGradient>
	<path class="st15" d="M296.7,210.6v0.6c0,0.2,0,0.4,0,0.6v0.1c0,0.2,0,0.3,0,0.5v0.1c0,0.1,0,0.1,0,0.1c0,0.1,0,0.2,0,0.3
		c0,0.1,0,0.3,0,0.4c0,0.1,0,0.3,0,0.5c0,0.1,0,0.1,0,0.2s0,0.1,0,0.2c0,0.2,0,0.4,0,0.6c0,0.1,0,0.2,0,0.3c0,0.8-0.1,1.7-0.2,2.4
		c0,0.2,0,0.4-0.1,0.6c0,0.1,0,0.1,0,0.2c0,0.1,0,0.2,0,0.3c0,0.2,0,0.3-0.1,0.5c0,0.4-0.1,0.8-0.2,1.3c0,0.2-0.1,0.5-0.1,0.7v0.1
		v0.1c0,0.1,0,0.2,0,0.3c0,0.1,0,0.2-0.1,0.4c0,0.2-0.1,0.3-0.1,0.5c0,0.1,0,0.3-0.1,0.4c-0.1,0.3-0.1,0.5-0.2,0.8
		c0,0.1,0,0.1,0,0.2s-0.1,0.3-0.1,0.4c0,0.1-0.1,0.3-0.1,0.4c-0.1,0.3-0.1,0.7-0.2,1c-0.2,0.9-0.4,1.7-0.7,2.7l-0.1,0.3
		c0,0.1-0.1,0.2-0.1,0.4c-0.2,0.7-0.5,1.5-0.7,2.2c0,0.1-0.1,0.2-0.1,0.3s0,0.1-0.1,0.2c-0.3,1-0.8,2.3-1.4,3.4
		c-0.6,1.4-1.3,2.6-2,4c-1.9,3.7-4.2,6.7-6.4,9.2c-0.1,0.1-0.1,0.2-0.2,0.2c-0.6,0.6-1.2,1.4-1.8,2c-0.5,0.5-1,1-1.5,1.5
		c-0.2,0.2-0.5,0.4-0.7,0.6c-0.4,0.3-0.7,0.7-1,0.9l-0.2,0.2l-0.1,0.1c-1,0.9-2,1.7-3.7,2.8c-0.1,0.1-0.3,0.2-0.4,0.3
		c0,0-0.1,0-0.1,0.1c-0.7,0.5-1.5,1-2.2,1.5c-0.1,0.1-0.2,0.1-0.2,0.1s-0.1,0-0.1,0.1l-0.1,0.1c-0.1,0-0.1,0.1-0.2,0.1
		c0,0,0,0-0.1,0c-0.1,0.1-0.2,0.1-0.3,0.2c-0.9,0.5-2,1.2-2.9,1.6c-1,0.5-2.2,1-3.2,1.5h-0.1H264c0,0,0,0-0.1,0h-0.1h-0.1
		c-0.2,0.1-0.4,0.2-0.6,0.2c-0.8,0.3-1.6,0.6-2.3,0.8c-0.1,0.1-0.3,0.1-0.4,0.2c-0.4,0.2-0.9,0.3-1.5,0.5c-0.3,0.1-0.5,0.2-0.8,0.3
		c-0.5,0.2-1.2,0.3-1.7,0.5h-0.1c-2.6,0.7-5.6,1.4-8.8,1.7c-0.1,0-0.2,0-0.2,0c-1.5,0.2-2.9,0.3-4.5,0.3c-0.9,0.1-1.5,0.1-2.4,0.1
		c-3.4,0-6.5-0.2-9.3-0.7c-0.1,0-0.3,0-0.4-0.1c-0.6-0.1-1.3-0.2-1.9-0.3c-0.4-0.1-0.8-0.2-1.4-0.3c-0.2,0-0.4-0.1-0.6-0.1
		c-0.3-0.1-0.7-0.2-1.2-0.2c-0.1,0-0.7-0.2-1.8-0.4c-0.6-0.2-1.2-0.3-1.6-0.5c-0.9-0.3-2.1-0.7-3.4-1.2c-1.5-0.5-2.5-0.9-3.9-1.6
		c0,0,0,0-0.1,0c-1-0.5-2.1-1-3-1.6c-0.2-0.1-0.4-0.2-0.6-0.3c-0.1,0-0.1-0.1-0.2-0.1l-0.7-0.4c-2.4-1.4-4.7-2.9-6.8-4.7
		c-0.6-0.5-1.3-1-1.8-1.6c-0.1-0.1-0.3-0.2-0.4-0.4c-0.2-0.2-0.5-0.4-0.7-0.6c-0.4-0.4-0.8-0.8-1.3-1.3c-0.8-0.8-2-2.1-2.8-3
		c0,0,0,0-0.1-0.1c-0.6-0.8-1.3-1.6-1.9-2.3c-0.1-0.1-0.2-0.2-0.3-0.3c-0.2-0.3-0.4-0.6-0.7-0.9c-0.1-0.1-0.1-0.2-0.2-0.3
		c-0.1-0.2-0.3-0.4-0.4-0.6c-0.1-0.2-0.3-0.5-0.5-0.7c-0.1-0.1-0.2-0.3-0.2-0.4c-0.2-0.3-0.4-0.6-0.5-0.9c-0.1-0.1-0.1-0.2-0.2-0.3
		l-0.1-0.1l-0.2-0.3c0-0.1-0.1-0.2-0.1-0.3c-0.1-0.2-0.2-0.4-0.3-0.6c-0.1-0.2-0.3-0.5-0.4-0.7c-0.2-0.4-0.4-0.8-0.6-1.3
		c-0.1-0.2-0.2-0.4-0.3-0.6c-0.2-0.3-0.3-0.7-0.5-1c-0.3-0.7-0.6-1.5-0.9-2.2c-0.1-0.2-0.1-0.3-0.2-0.5c-0.2-0.4-0.3-0.8-0.5-1.3
		c0-0.1,0-0.1-0.1-0.1c0-0.1-0.1-0.2-0.1-0.3s-0.1-0.1-0.1-0.2c0-0.1-0.1-0.1-0.1-0.2c-0.1-0.2-0.2-0.4-0.2-0.6
		c-0.3-0.9-0.5-1.7-0.7-2.3c-0.1-0.4-0.2-0.8-0.3-1.3c-0.1-0.3-0.2-0.6-0.2-0.9c0,0,0,0,0-0.1c-0.1-0.4-0.2-0.8-0.3-1.4
		c0-0.2-0.1-0.4-0.1-0.6V224c0,0,0,0,0-0.1c-0.1-0.4-0.2-0.8-0.2-1.2c-0.1-0.4-0.1-0.8-0.2-1.2c-0.1-0.3-0.1-0.5-0.1-0.8
		c0-0.1,0-0.2,0-0.3v-0.1c0,0,0,0,0-0.1c0-0.2-0.1-0.5-0.1-0.7c0-0.3-0.1-0.5-0.1-0.8c-0.1-0.6-0.1-1.3-0.2-1.9c0-0.1,0-0.1,0-0.2
		c-0.1-0.6-0.1-1.3-0.1-2c0-0.2,0-0.4,0-0.6v-0.2c0-0.6,0-1.2,0-2c0-0.2,0-0.5,0-0.7v-0.6c0-0.2,0-0.4,0-0.6c0-0.1,0-0.2,0-0.3
		c0-0.1,0-0.2,0-0.3c0-0.9,0.1-1.7,0.1-2.3c0-0.1,0-0.2,0-0.3c0-0.1,0-0.2,0-0.3c0-0.2,0-0.5,0.1-0.7c0-0.7,0.1-1.4,0.2-2.1
		c0,0,0-0.1,0-0.2c0-0.2,0-0.3,0.1-0.5v-0.1c0.1-0.7,0.2-1.5,0.3-2.1c0-0.2,0.1-0.7,0.2-1.3c0.2-0.9,0.3-1.9,0.6-2.8
		c0-0.1,0-0.2,0.1-0.3c0-0.2,0.1-0.4,0.1-0.5c0.1-0.4,0.2-0.7,0.3-1.2c0.2-0.8,0.5-1.8,0.8-2.6c0-0.1,0.1-0.2,0.1-0.2
		c0-0.1,0.1-0.2,0.1-0.4c0.1-0.2,0.1-0.4,0.2-0.7c1.5-4.2,3.5-8.2,5.8-11.7c1.2-1.8,2.6-3.7,4.4-5.7c0,0,0.1-0.1,0.1-0.2
		c0.3-0.4,0.8-0.9,1.3-1.4c0.4-0.4,0.8-0.8,1.3-1.3c0.9-0.9,1.9-1.8,2.7-2.5c0.7-0.6,1.7-1.5,2.8-2.2c2.1-1.6,4.3-3,6.5-4.2
		c0.5-0.2,0.9-0.5,1.4-0.7c0.7-0.3,1.8-0.9,3.2-1.6h0.1c0,0,0.1,0,0.1-0.1c0.2-0.1,0.3-0.1,0.5-0.2h0.1c0.6-0.3,1.4-0.5,2.1-0.8
		c0.1,0,0.2-0.1,0.3-0.1c0.1,0,0.1,0,0.2-0.1h0.1c0,0,0,0,0.1,0c0.1,0,0.2-0.1,0.3-0.1c0.1,0,0.1,0,0.2,0c0.2-0.1,0.4-0.1,0.6-0.2
		h0.1c3.2-1,5.7-1.6,5.8-1.6h0.1c0.3-0.1,0.6-0.1,0.9-0.2c0.1,0,0.1,0,0.2,0h0.1c0.5-0.1,1.2-0.2,1.7-0.3c4-0.7,8.5-1,13.3-0.7
		c0.1,0,0.2,0,0.2,0c5.6,0.3,10.6,1.3,14.6,2.6l0.2,0.1h0.1c6.9,2.2,12.3,5.2,15.9,8c0.5,0.3,0.9,0.7,1.6,1.2
		c6.5,4.8,11.8,11.1,15.4,18.4c0.2,0.3,0.3,0.7,0.5,1c0,0.1,0.1,0.1,0.1,0.2c0.6,1.4,1.2,2.6,1.7,4.1c0.6,1.8,1.2,3.7,1.7,5.6
		c0.6,2.8,1,5.8,1.3,8.8c0,0.3,0.1,0.5,0.1,0.8v0.4v0.1v0.1c0.1,0.5,0.1,1.2,0.1,1.8c0,0.2,0,0.4,0,0.7c0,0.5,0,1,0,1.8
		C296.6,210.1,296.7,210.4,296.7,210.6z"/>
	
		<linearGradient id="SVGID_14_" gradientUnits="userSpaceOnUse" x1="286.0903" y1="215.733" x2="301.1703" y2="219.02" gradientTransform="matrix(1 0 0 -1 0 524)">
		<stop  offset="0" style="stop-color:#BDBEC0"/>
		<stop  offset="0.2229" style="stop-color:#DADADA"/>
		<stop  offset="0.439" style="stop-color:#F2F2F2"/>
		<stop  offset="0.5699" style="stop-color:#FFFFFF"/>
		<stop  offset="0.6741" style="stop-color:#F1F0F0"/>
		<stop  offset="0.8551" style="stop-color:#D5D5D6"/>
		<stop  offset="1" style="stop-color:#BDBEC0"/>
	</linearGradient>
	<path class="st16" d="M302.7,319.2c-0.2-1.2-0.5-2.4-0.8-3.6l-0.8-3.6c-0.2-0.7-0.3-1.5-0.5-2.3l-0.5-2.4c-0.1-0.6-0.3-1.4-0.4-2
		l-0.4-2.1c-0.2-0.8-0.3-1.6-0.5-2.4l-0.5-2.3c-0.3-1.3-0.5-2.4-0.8-3.6l-0.8-3.6v-0.1v-0.1c0,0,0-0.1-0.1-0.1c0,0,0-0.1-0.1-0.1
		l-0.1-0.1l-0.1-0.1l-0.1-0.1l-0.1-0.1c-0.1,0-0.1-0.1-0.2-0.1l-0.1-0.1c-0.1,0-0.1-0.1-0.2-0.1l-0.1-0.1c-0.1,0-0.2-0.1-0.3-0.1
		c0,0-0.1,0-0.1-0.1c-0.1,0-0.3-0.1-0.5-0.1c-0.3-0.1-0.7-0.1-1.2-0.2c-0.3,0-0.5,0-0.8,0c-0.1,0-0.1,0-0.2,0c-0.1,0-0.1,0-0.2,0
		c-0.1,0-0.2,0-0.3,0c-0.2,0-0.4,0-0.7,0.1h-0.1h-0.1c-0.1,0-0.3,0-0.4,0.1c-0.2,0-0.4,0.1-0.6,0.1h-0.1h-0.1
		c-0.2,0-0.3,0.1-0.5,0.1c-0.2,0.1-0.5,0.1-0.7,0.2c-0.3,0.1-0.5,0.2-0.8,0.3c-0.1,0-0.1,0.1-0.2,0.1c-0.2,0.1-0.4,0.2-0.5,0.2
		c-0.1,0.1-0.3,0.1-0.4,0.2c-0.1,0-0.1,0.1-0.2,0.1c-0.1,0-0.2,0.1-0.2,0.1c-0.3,0.2-0.6,0.3-0.8,0.5c-0.1,0.1-0.2,0.1-0.3,0.2
		c0,0,0,0-0.1,0.1c0,0,0,0-0.1,0.1l-0.1,0.1c-0.1,0.1-0.1,0.1-0.2,0.2c0,0,0,0-0.1,0.1l-0.1,0.1l-0.1,0.1c0,0,0,0,0,0.1l-0.1,0.1
		l-0.1,0.1c0,0,0,0.1-0.1,0.1c0,0,0,0,0,0.1c0,0,0,0.1-0.1,0.1c0,0.1-0.1,0.1-0.1,0.2v0.1c0,0.1,0,0.1,0,0.2v0.1v0.1v0.1v0.1v0.1
		c0.2,1.2,0.5,2.3,0.7,3.6l0.8,3.6c0.2,0.7,0.3,1.5,0.5,2.2l0.5,2.4c0.1,0.6,0.3,1.4,0.4,2l0.4,2c0.2,0.8,0.3,1.7,0.5,2.4l0.5,2.3
		c0.3,1.3,0.5,2.4,0.8,3.6l0.8,3.6v0.1v0.1c0,0,0,0.1,0.1,0.1c0,0,0,0.1,0.1,0.1l0.1,0.1l0.1,0.1l0.1,0.1l0.1,0.1
		c0.1,0,0.1,0.1,0.2,0.1l0.1,0.1c0.1,0,0.1,0.1,0.2,0.1l0.1,0.1c0.1,0,0.2,0.1,0.3,0.1c0,0,0.1,0,0.1,0.1c0.1,0,0.3,0.1,0.5,0.1
		c0.3,0.1,0.7,0.1,1.2,0.2c0.3,0,0.5,0,0.8,0c0.1,0,0.1,0,0.2,0c0.1,0,0.1,0,0.2,0c0.1,0,0.2,0,0.3,0c0.2,0,0.4,0,0.7-0.1h0.1h0.1
		c0.1,0,0.3,0,0.4-0.1c0.2,0,0.4-0.1,0.6-0.1h0.1h0.1c0.2,0,0.3-0.1,0.5-0.1c0.2-0.1,0.5-0.1,0.7-0.2c0.3-0.1,0.5-0.2,0.8-0.3
		c0.1,0,0.1-0.1,0.2-0.1c0.2-0.1,0.4-0.2,0.5-0.2c0.1-0.1,0.3-0.1,0.4-0.2c0.1,0,0.1-0.1,0.2-0.1c0.1,0,0.2-0.1,0.2-0.1
		c0.3-0.2,0.6-0.3,0.8-0.5c0.1-0.1,0.2-0.1,0.3-0.2c0,0,0,0,0.1-0.1c0,0,0,0,0.1-0.1l0.1-0.1c0.1-0.1,0.1-0.1,0.2-0.2
		c0,0,0,0,0.1-0.1l0.1-0.1l0.1-0.1c0,0,0,0,0-0.1l0.1-0.1l0.1-0.1c0,0,0-0.1,0.1-0.1c0,0,0,0,0-0.1c0,0,0-0.1,0.1-0.1
		c0-0.1,0.1-0.1,0.1-0.2v-0.1c0-0.1,0-0.1,0-0.2v-0.1v-0.1v-0.1C302.7,319.4,302.7,319.3,302.7,319.2
		C302.7,319.3,302.7,319.3,302.7,319.2z"/>
	
		<linearGradient id="SVGID_15_" gradientUnits="userSpaceOnUse" x1="273.5663" y1="222.7355" x2="289.3103" y2="257.2025" gradientTransform="matrix(1 0 0 -1 0 524)">
		<stop  offset="0" style="stop-color:#BDBEC0"/>
		<stop  offset="0.2229" style="stop-color:#DADADA"/>
		<stop  offset="0.439" style="stop-color:#F2F2F2"/>
		<stop  offset="0.5699" style="stop-color:#FFFFFF"/>
		<stop  offset="0.6741" style="stop-color:#F1F0F0"/>
		<stop  offset="0.8551" style="stop-color:#D5D5D6"/>
		<stop  offset="1" style="stop-color:#BDBEC0"/>
	</linearGradient>
	<path class="st17" d="M276.9,295c0-0.3,0.1-0.7,0.1-1c0.1-0.4,0.1-0.7,0.2-1.2c0-0.3,0.1-0.5,0.1-0.8c0.1-0.2,0.1-0.5,0.2-0.7
		c0.1-0.3,0.2-0.7,0.3-1c0.1-0.2,0.1-0.4,0.2-0.6c0.1-0.4,0.2-0.7,0.4-1.2c0.1-0.2,0.1-0.3,0.2-0.5c0.2-0.5,0.4-1,0.6-1.6
		c0-0.1,0.1-0.1,0.1-0.2c0.2-0.5,0.4-0.9,0.6-1.4c0.1-0.1,0.1-0.3,0.2-0.4c0.2-0.4,0.4-0.8,0.7-1.4c0-0.1,0.1-0.2,0.1-0.2
		c0.3-0.5,0.6-1,0.9-1.5c0.1-0.1,0.2-0.3,0.3-0.4c0.2-0.3,0.5-0.7,0.7-1c0.1-0.2,0.3-0.3,0.4-0.5c0.2-0.3,0.4-0.5,0.6-0.8
		c0.2-0.2,0.4-0.4,0.5-0.7c0.2-0.2,0.4-0.4,0.5-0.6c0.3-0.3,0.6-0.7,0.9-1c0.2-0.2,0.4-0.4,0.6-0.6c0.2-0.1,0.3-0.3,0.5-0.4
		c0.3-0.2,0.5-0.5,0.8-0.7c0.2-0.1,0.3-0.3,0.5-0.4c0.3-0.2,0.6-0.4,0.9-0.7c0.1-0.1,0.3-0.2,0.4-0.3c0.4-0.3,0.9-0.6,1.4-0.8
		c0.3-0.2,0.6-0.3,0.9-0.5c0.1,0,0.2-0.1,0.2-0.1c0.2-0.1,0.4-0.2,0.7-0.3c0.1,0,0.2-0.1,0.2-0.1c0.2-0.1,0.4-0.2,0.6-0.2
		c0,0,0.1,0,0.2-0.1c0.3-0.1,0.5-0.2,0.8-0.2h0.1c0.4-0.1,0.8-0.2,1.3-0.2c0.3,0,0.6-0.1,0.9-0.1c0.1,0,0.1,0,0.2,0
		c0.3,0,0.5,0,0.8,0h0.1c0.2,0,0.4,0,0.6,0.1c0.1,0,0.1,0,0.2,0c0.2,0,0.5,0.1,0.7,0.2s0.4,0.1,0.6,0.2c0.1,0,0.1,0.1,0.2,0.1
		c0.2,0.1,0.3,0.2,0.5,0.2c0.1,0,0.1,0.1,0.2,0.1l-10.4-6h-0.1h-0.1c-0.2-0.1-0.3-0.2-0.5-0.3h-0.1h-0.1c-0.2-0.1-0.4-0.2-0.6-0.2
		c-0.2-0.1-0.5-0.1-0.7-0.2h-0.1h-0.1c-0.2,0-0.4-0.1-0.6-0.1h-0.1c-0.3,0-0.5,0-0.8,0h-0.1H287c-0.3,0-0.6,0-0.9,0.1
		c-0.4,0.1-0.8,0.1-1.3,0.2c0,0,0,0-0.1,0c-0.2,0.1-0.5,0.1-0.7,0.2c-0.1,0-0.1,0-0.2,0.1c-0.2,0.1-0.4,0.1-0.6,0.2h-0.1
		c-0.1,0-0.1,0-0.2,0.1c-0.2,0.1-0.4,0.2-0.7,0.3c-0.1,0-0.2,0.1-0.3,0.1c-0.3,0.1-0.6,0.3-0.9,0.5c-0.4,0.3-0.9,0.5-1.4,0.8
		c-0.1,0.1-0.3,0.2-0.4,0.3c-0.3,0.2-0.6,0.4-0.9,0.7c-0.2,0.1-0.3,0.3-0.5,0.4c-0.3,0.2-0.5,0.5-0.8,0.7c-0.2,0.1-0.3,0.3-0.5,0.4
		c-0.1,0.1-0.2,0.2-0.3,0.3c-0.1,0.1-0.2,0.2-0.3,0.3c-0.3,0.3-0.6,0.6-0.9,1c-0.1,0.1-0.2,0.2-0.3,0.3c-0.1,0.1-0.2,0.2-0.2,0.3
		c-0.2,0.2-0.4,0.4-0.5,0.7c-0.1,0.1-0.2,0.3-0.4,0.4c-0.1,0.1-0.2,0.2-0.3,0.4c-0.1,0.2-0.3,0.3-0.4,0.5c-0.1,0.1-0.2,0.2-0.3,0.4
		c-0.1,0.2-0.3,0.4-0.4,0.6c-0.1,0.1-0.2,0.3-0.3,0.4c0,0.1-0.1,0.1-0.1,0.2c-0.2,0.4-0.5,0.8-0.7,1.3v0.1c0,0.1-0.1,0.2-0.1,0.2
		c-0.2,0.3-0.3,0.6-0.5,0.8c-0.1,0.1-0.1,0.3-0.2,0.4c-0.1,0.1-0.1,0.3-0.2,0.4c-0.1,0.1-0.1,0.2-0.2,0.4c-0.2,0.3-0.3,0.7-0.5,1
		c0,0.1-0.1,0.1-0.1,0.2c-0.2,0.4-0.3,0.8-0.5,1.3c0,0.1-0.1,0.2-0.1,0.2c-0.1,0.2-0.1,0.3-0.2,0.5c-0.1,0.2-0.2,0.4-0.2,0.6
		c-0.1,0.2-0.1,0.3-0.1,0.5c-0.1,0.2-0.1,0.4-0.2,0.6c0,0.1-0.1,0.2-0.1,0.4c-0.1,0.2-0.1,0.4-0.2,0.6c-0.1,0.2-0.1,0.5-0.2,0.7
		c0,0.1,0,0.2-0.1,0.2c0,0.2-0.1,0.3-0.1,0.5c-0.1,0.4-0.1,0.7-0.2,1.2c0,0.1,0,0.2-0.1,0.3c0,0.2,0,0.5-0.1,0.7c0,0.2,0,0.3,0,0.5
		c0,0.5-0.1,1-0.1,1.6c0,4.6,1.7,7.9,4.3,9.3l10.4,6c-2.6-1.5-4.2-4.7-4.3-9.3c0-0.5,0-1,0.1-1.6C276.8,295.4,276.9,295.2,276.9,295
		z"/>
	
		<linearGradient id="SVGID_16_" gradientUnits="userSpaceOnUse" x1="313.2966" y1="245.0143" x2="284.2186" y2="232.1073" gradientTransform="matrix(1 0 0 -1 0 524)">
		<stop  offset="0" style="stop-color:#BDBEC0"/>
		<stop  offset="0.3912" style="stop-color:#DADADA"/>
		<stop  offset="0.7703" style="stop-color:#F2F2F2"/>
		<stop  offset="1" style="stop-color:#FFFFFF"/>
	</linearGradient>
	<path class="st18" d="M291.2,272.1c8.1-4.6,14.6-0.9,14.6,8.3c0,9.2-6.5,20.5-14.6,25.2c-8.1,4.6-14.6,0.9-14.6-8.3
		C276.7,287.9,283.2,276.7,291.2,272.1z"/>
	
		<linearGradient id="SVGID_17_" gradientUnits="userSpaceOnUse" x1="220.166" y1="356.4348" x2="259.556" y2="356.4348" gradientTransform="matrix(1 0 0 -1 0 524)">
		<stop  offset="1.065560e-07" style="stop-color:#064961"/>
		<stop  offset="1" style="stop-color:#29AAE1"/>
	</linearGradient>
	<path class="st19" d="M259.6,168.8c0-0.1,0-0.1,0-0.2C259.6,168.6,259.6,168.7,259.6,168.8c0-0.3,0-0.6,0-0.9v-0.1
		c0-0.1,0-0.3,0-0.4c0-0.1,0-0.2-0.1-0.3c0-0.2-0.1-0.3-0.1-0.5c0-0.2-0.1-0.4-0.1-0.5c-0.6-2.4-2.2-4.6-4.4-6.4
		c-0.2-0.2-0.5-0.4-0.8-0.6c-0.1-0.1-0.1-0.1-0.2-0.2l-0.1-0.1c0,0,0,0-0.1,0l-0.1-0.1c-0.1-0.1-0.2-0.2-0.4-0.2
		c-0.1-0.1-0.3-0.2-0.4-0.2c-0.3-0.2-0.6-0.3-0.8-0.5c-9-4.9-22.1-3.2-28.2,3.4c-0.1,0.1-0.2,0.2-0.3,0.3c0,0.1-0.1,0.1-0.1,0.2
		c-0.1,0.1-0.2,0.3-0.4,0.5c0,0,0,0.1-0.1,0.1c-0.1,0.1-0.2,0.3-0.3,0.4c0,0,0,0,0,0.1v0.1c-0.1,0.1-0.1,0.2-0.2,0.3
		c-0.3,0.4-0.5,0.8-0.7,1.3c0,0.1-0.1,0.2-0.1,0.3c-0.1,0.1-0.1,0.3-0.2,0.4v0.1c-0.1,0.2-0.2,0.4-0.2,0.7c0,0.1,0,0.2-0.1,0.2
		c-0.1,0.3-0.1,0.5-0.2,0.7c-0.1,0.3-0.1,0.6-0.1,1v0.1c0,0.2,0,0.4,0,0.7c0,0.1,0,0.1,0,0.2c0,0.1,0,0.1,0,0.2s0,0.2,0,0.2
		c0,0.1,0,0.2,0,0.3c0,0.1,0,0.2,0,0.2c0,0.1,0,0.2,0,0.3c0,0.1,0,0.2,0,0.2c0,0.1,0,0.2,0.1,0.3c0,0.1,0,0.2,0.1,0.2
		c0,0.1,0.1,0.2,0.1,0.3c0,0.1,0.1,0.2,0.1,0.2c0,0.1,0.1,0.2,0.1,0.3s0.1,0.2,0.1,0.2c0,0.1,0.1,0.2,0.1,0.3s0.1,0.2,0.1,0.2
		c0.1,0.1,0.1,0.2,0.2,0.3c0,0.1,0.1,0.2,0.1,0.2c0.1,0.1,0.1,0.2,0.2,0.3c0.1,0.1,0.1,0.2,0.2,0.2c0.1,0.1,0.1,0.2,0.2,0.3
		c0.1,0.1,0.1,0.1,0.2,0.2c0.1,0.1,0.2,0.2,0.2,0.3c0.1,0.1,0.1,0.1,0.2,0.2c0.1,0.1,0.2,0.2,0.3,0.3c0.1,0.1,0.1,0.1,0.2,0.2
		c0.1,0.1,0.2,0.2,0.3,0.2c0.1,0.1,0.2,0.1,0.2,0.2c0.1,0.1,0.2,0.2,0.3,0.3c0.1,0.1,0.2,0.1,0.2,0.2c0.1,0.1,0.3,0.2,0.4,0.3
		c0.1,0,0.1,0.1,0.2,0.1c0.2,0.1,0.4,0.3,0.7,0.4c0.5,0.3,0.9,0.5,1.5,0.8c0.2,0.1,0.3,0.1,0.5,0.2c0.3,0.1,0.7,0.3,1,0.4
		c0.5,0.2,0.9,0.3,1.5,0.5c0.1,0,0.3,0.1,0.4,0.1c0.2,0,0.3,0.1,0.5,0.1c0.1,0,0.3,0.1,0.4,0.1c0.4,0.1,0.8,0.2,1.3,0.3
		c0.1,0,0.3,0.1,0.4,0.1c0.1,0,0.2,0,0.3,0.1c0.3,0.1,0.7,0.1,1,0.2c0.2,0,0.3,0.1,0.5,0.1c0.1,0,0.2,0,0.3,0c0.3,0,0.6,0.1,0.9,0.1
		c0.2,0,0.4,0,0.6,0.1c0.1,0,0.2,0,0.3,0c0.3,0,0.6,0,1,0.1c0.2,0,0.4,0,0.6,0c0.1,0,0.2,0,0.2,0c0.4,0,0.7,0,1.2,0
		c0.2,0,0.4,0,0.6,0c0.1,0,0.1,0,0.2,0c0.6,0,1.2-0.1,1.8-0.1c0.1,0,0.2,0,0.3,0h0.1c0.5-0.1,1-0.1,1.6-0.2c0.1,0,0.3,0,0.4-0.1
		c0.1,0,0.3,0,0.4-0.1c0.2,0,0.4-0.1,0.5-0.1c0.3-0.1,0.6-0.1,0.9-0.2c0.3-0.1,0.5-0.1,0.8-0.2c0.3-0.1,0.6-0.2,0.9-0.3
		c0.1,0,0.2-0.1,0.3-0.1c0.3-0.1,0.5-0.2,0.8-0.3c0.1,0,0.1,0,0.2-0.1c0.5-0.2,0.9-0.4,1.4-0.6c0.1,0,0.2-0.1,0.3-0.1
		c0.4-0.2,0.9-0.4,1.4-0.7c0.2-0.1,0.3-0.2,0.4-0.3c0,0,0.1,0,0.1-0.1c0,0,0.1,0,0.1-0.1c0.1,0,0.1-0.1,0.2-0.1
		c0.1-0.1,0.2-0.1,0.3-0.2c0,0,0.1,0,0.1-0.1c0.1-0.1,0.1-0.1,0.2-0.2c0.1-0.1,0.2-0.1,0.3-0.2c0,0,0.1,0,0.1-0.1
		c0.1-0.1,0.1-0.1,0.2-0.2c0.1-0.1,0.2-0.1,0.3-0.2c0,0,0.1,0,0.1-0.1c0.1-0.1,0.1-0.1,0.2-0.2c0.1-0.1,0.1-0.1,0.2-0.2
		c0,0,0.1,0,0.1-0.1c0.1-0.1,0.1-0.1,0.2-0.2c0.1-0.1,0.2-0.2,0.3-0.3c0.1-0.1,0.1-0.1,0.2-0.2c0.1-0.1,0.2-0.2,0.2-0.3l0.1-0.1
		c0,0,0,0,0.1-0.1l0.1-0.1c0-0.1,0.1-0.1,0.1-0.2s0.1-0.1,0.1-0.2c0-0.1,0.1-0.1,0.1-0.2c0-0.1,0.1-0.1,0.1-0.2s0.1-0.1,0.1-0.2
		l0.1-0.1c0,0,0,0,0-0.1c0,0,0-0.1,0.1-0.1c0-0.1,0.1-0.1,0.1-0.2c0-0.1,0.1-0.1,0.1-0.2v-0.1c0-0.1,0.1-0.1,0.1-0.2
		c0-0.1,0-0.1,0.1-0.2v-0.1c0-0.1,0-0.1,0.1-0.2c0-0.1,0-0.1,0.1-0.2v-0.1c0-0.1,0-0.2,0.1-0.2c0-0.1,0-0.1,0-0.2v-0.1
		c0-0.1,0-0.2,0-0.2c0-0.1,0-0.1,0-0.2v-0.1c0-0.1,0-0.2,0-0.2c0-0.1,0-0.1,0-0.2C259.6,168.9,259.6,168.9,259.6,168.8z"/>
	<path class="st12" d="M272.8,195.5c2.9-2,6.3-4.4,9.7-3.5c2.5,0.7,4.3,3.1,4.7,5.8c0.4,2.6-0.3,5.2-1.4,7.7
		c-2.9,6.7-8.6,12.1-15.2,15.2c-6.6,3.2-14,4.5-21.3,4.4c-4.2,0-8.6-0.5-12.2-2.7c-3.6-2.2-6.2-6.4-5.4-10.6
		c0.8-4.2,4.8-7.1,8.9-8.3c4.1-1.2,8.5-0.9,12.7-1.4C260.3,201.6,267,199.2,272.8,195.5z"/>
	
		<linearGradient id="SVGID_18_" gradientUnits="userSpaceOnUse" x1="248.7576" y1="344.6409" x2="246.1446" y2="352.9019" gradientTransform="matrix(1 0 0 -1 0 524)">
		<stop  offset="0" style="stop-color:#FFFFFF"/>
		<stop  offset="1" style="stop-color:#FFFFFF"/>
	</linearGradient>
	<path class="st20" d="M250.5,171.3c0.8-0.2,1.8-0.5,2.7-0.4c0.7,0.1,1.3,0.4,1.4,0.7c0.1,0.3-0.1,0.6-0.4,0.9
		c-0.8,0.8-2.4,1.5-4.3,1.8c-1.9,0.4-4,0.5-6.1,0.5c-1.2,0-2.4-0.1-3.5-0.3c-1-0.2-1.8-0.7-1.6-1.3c0.2-0.5,1.4-0.8,2.5-0.9
		c1.2-0.1,2.4-0.1,3.6-0.2C246.9,172.1,248.8,171.8,250.5,171.3z"/>
	
		<linearGradient id="SVGID_19_" gradientUnits="userSpaceOnUse" x1="285.9276" y1="228.0062" x2="306.4547" y2="249.0162" gradientTransform="matrix(1 0 0 -1 0 524)">
		<stop  offset="1.065560e-07" style="stop-color:#064961"/>
		<stop  offset="1" style="stop-color:#29AAE1"/>
	</linearGradient>
	<path class="st21" d="M293.9,278.6c-0.2,0-0.4,0.1-0.6,0.1c-0.2,0.1-0.4,0.1-0.6,0.2c-0.2,0.1-0.4,0.2-0.6,0.3
		c-0.2,0.1-0.4,0.2-0.6,0.4c-0.2,0.1-0.4,0.3-0.6,0.5c-0.2,0.2-0.4,0.4-0.6,0.6c-0.1,0.1-0.1,0.1-0.2,0.2c-0.1,0.1-0.3,0.3-0.4,0.4
		c-0.2,0.2-0.3,0.4-0.5,0.6c0,0.1-0.1,0.1-0.1,0.2c-0.1,0.1-0.1,0.1-0.2,0.2c0,0.1-0.1,0.1-0.1,0.2c-0.1,0.2-0.2,0.4-0.3,0.5
		c0,0.1-0.1,0.1-0.1,0.2s-0.1,0.1-0.1,0.2c-0.1,0.2-0.2,0.3-0.3,0.5c0,0.1-0.1,0.2-0.1,0.3c0,0,0,0.1-0.1,0.1
		c-0.1,0.2-0.1,0.3-0.2,0.5c0,0.1-0.1,0.2-0.1,0.3c0,0,0,0.1-0.1,0.1c-0.1,0.2-0.1,0.3-0.2,0.5c0,0.1-0.1,0.2-0.1,0.3v0.1
		c-0.1,0.2-0.1,0.4-0.2,0.5c0,0.1-0.1,0.2-0.1,0.3v0.1c-0.1,0.3-0.2,0.6-0.2,0.9v0.1c-0.1,0.4-0.2,0.8-0.2,1.2v0.1
		c0,0.1,0,0.2,0,0.3c0,0.2,0,0.3-0.1,0.5c0,0.1,0,0.3,0,0.4c0,0.2,0,0.3,0,0.5c0,0.1,0,0.1,0,0.2c0,0.2,0,0.3,0,0.5v0.1
		c0,0.3,0,0.5,0,0.8c0,0.1,0,0.1,0,0.2c0,0.3,0.1,0.5,0.1,0.8c0,0.1,0,0.2,0.1,0.3c0,0,0,0,0,0.1v0.1v0.1c0,0.1,0,0.1,0,0.2
		c0,0,0,0,0,0.1v0.1c0,0.1,0,0.1,0.1,0.2c0,0,0,0,0,0.1v0.1c0,0.1,0,0.1,0.1,0.2c0,0,0,0,0,0.1c0,0,0,0.1,0.1,0.1v0.1c0,0,0,0,0,0.1
		c0,0.1,0,0.1,0.1,0.1c0,0.1,0.1,0.1,0.1,0.2c0,0,0,0.1,0.1,0.1c0,0.1,0.1,0.1,0.1,0.2c0,0,0,0,0,0.1c0,0,0,0,0,0.1
		c0,0,0,0.1,0.1,0.1c0,0,0,0.1,0.1,0.1c0,0,0,0.1,0.1,0.1c0,0,0,0.1,0.1,0.1l0.1,0.1c0,0,0,0,0,0.1c0,0,0,0,0,0.1l0.1,0.1l0.1,0.1
		l0.1,0.1c0,0,0,0,0.1,0.1c0,0,0.1,0,0.1,0.1c0,0,0.1,0,0.1,0.1c0,0,0.1,0,0.1,0.1c0,0,0.1,0,0.1,0.1c0,0,0.1,0,0.1,0.1h0.1
		c0,0,0.1,0,0.1,0.1h0.1c0,0,0,0,0.1,0h0.1c0,0,0,0-0.1,0c0.1,0,0.3,0.1,0.4,0.1h0.1c0.1,0,0.1,0,0.2,0c0.1,0,0.1,0,0.2,0
		c0.1,0,0.2,0,0.3,0c0.1,0,0.2,0,0.3,0c1.4,0.1,2.7-0.3,4-1.2c0.1-0.1,0.3-0.2,0.5-0.3l0.1-0.1c0,0,0,0,0.1,0l0.1-0.1
		c0.1,0,0.1-0.1,0.2-0.1c0.1-0.1,0.1-0.1,0.2-0.2c0.1-0.1,0.3-0.2,0.4-0.3c4.1-3.7,5.6-10.6,3.2-14.9c0-0.1-0.1-0.1-0.1-0.2
		c0,0,0-0.1-0.1-0.1c-0.1-0.1-0.1-0.2-0.2-0.3c0,0,0,0,0-0.1c-0.1-0.1-0.1-0.2-0.2-0.2l-0.1-0.1c-0.2-0.2-0.3-0.4-0.5-0.5l-0.1-0.1
		c-0.1-0.1-0.1-0.1-0.2-0.2c-0.1-0.1-0.1-0.1-0.2-0.2c0,0,0,0-0.1,0c-0.1-0.1-0.2-0.2-0.3-0.2c-0.1-0.1-0.3-0.2-0.5-0.2
		c-0.1,0-0.2-0.1-0.3-0.1h-0.1c-0.2-0.1-0.3-0.1-0.5-0.1c0,0,0,0-0.1,0c-0.2,0-0.3,0-0.5,0c0,0,0,0-0.1,0
		C294.3,278.6,294.2,278.6,293.9,278.6z M288.6,298.7C288.7,298.7,288.7,298.7,288.6,298.7L288.6,298.7z"/>
	
		<linearGradient id="SVGID_20_" gradientUnits="userSpaceOnUse" x1="284.6987" y1="232.4502" x2="291.9297" y2="232.5292" gradientTransform="matrix(1 0 0 -1 0 524)">
		<stop  offset="0" style="stop-color:#FFFFFF"/>
		<stop  offset="1" style="stop-color:#FFFFFF"/>
	</linearGradient>
	<path class="st22" d="M289.9,297.1c-1.7-0.5-2.8-2.2-3.2-3.9c-0.3-1.7,0-3.6,0.7-5.1c0.4-0.9,1-1.8,1.9-2.2c0.9-0.4,2.2,0,2.4,0.9
		c0.2,0.7-0.2,1.5-0.5,2.1c-0.6,1.7-0.5,3.6,0.3,5.1c0.4,0.7,0.9,1.5,0.6,2.2C292,297.2,290.8,297.4,289.9,297.1z"/>
	
		<linearGradient id="SVGID_21_" gradientUnits="userSpaceOnUse" x1="260.2404" y1="177.4016" x2="287.8374" y2="158.4686" gradientTransform="matrix(1 0 0 -1 0 524)">
		<stop  offset="0" style="stop-color:#BDBEC0"/>
		<stop  offset="0.2229" style="stop-color:#DADADA"/>
		<stop  offset="0.439" style="stop-color:#F2F2F2"/>
		<stop  offset="0.5699" style="stop-color:#FFFFFF"/>
		<stop  offset="0.6741" style="stop-color:#F1F0F0"/>
		<stop  offset="0.8551" style="stop-color:#D5D5D6"/>
		<stop  offset="1" style="stop-color:#BDBEC0"/>
	</linearGradient>
	<path class="st23" d="M303.5,341.9c0-0.2,0-0.4,0.1-0.6c0-0.1,0-0.1,0-0.2c0-0.1,0-0.1,0-0.2c0-0.2,0-0.3,0-0.5c0-0.1,0-0.1,0-0.2
		c0,0,0,0,0-0.1c0,0,0,0,0-0.1v-0.1v-0.1c0-0.2,0-0.3,0-0.5c0-0.2-0.1-0.5-0.1-0.7c0,0,0,0,0-0.1c0-0.1-0.1-0.3-0.1-0.5
		c0-0.1,0-0.1,0-0.2l-0.2-0.7v0.1c0-0.1,0-0.1,0-0.2v-0.1c0,0,0,0,0,0.1c0-0.2-0.1-0.3-0.2-0.5c0-0.1-0.1-0.2-0.1-0.3
		c-0.1-0.2-0.1-0.3-0.2-0.5c0,0,0-0.1-0.1-0.1c-0.1-0.1-0.1-0.2-0.2-0.4c0,0,0-0.1-0.1-0.1v-0.1v-0.1c-0.1-0.2-0.2-0.3-0.3-0.5
		c-0.1-0.1-0.2-0.3-0.3-0.5v-0.1v-0.1c0-0.1-0.1-0.1-0.1-0.2c0,0,0-0.1-0.1-0.1c0-0.1-0.1-0.1-0.1-0.2c-0.1-0.1-0.1-0.2-0.2-0.3
		c0,0,0,0,0-0.1c0-0.1-0.1-0.1-0.1-0.1c-0.1-0.1-0.3-0.3-0.4-0.4c-0.1-0.1-0.3-0.3-0.4-0.4c-0.1-0.1-0.2-0.2-0.3-0.3
		c-0.2-0.1-0.3-0.3-0.5-0.5c0,0,0,0-0.1,0c-2.4-2.1-5.5-3.2-8.6-3.1c-0.3,0-0.6,0-0.8,0.1c-0.1,0-0.2,0-0.3,0h-0.1
		c-0.5,0.1-0.9,0.2-1.4,0.3h-0.1h-0.1c0,0,0,0-0.1,0h-0.1c-0.1,0-0.2,0.1-0.2,0.1h-0.2c0,0-0.1,0-0.1,0.1c-0.1,0-0.1,0-0.2,0.1h-0.1
		c-0.1,0-0.1,0-0.2,0.1c-0.1,0-0.1,0-0.2,0.1h-0.1c0,0,0,0-0.1,0c0,0-0.1,0-0.1,0.1c0,0-0.1,0-0.1,0.1h-0.1c-0.1,0-0.1,0.1-0.2,0.1
		h-0.1c0,0-0.1,0-0.1,0.1c-0.1,0.1-0.2,0.1-0.3,0.2c-0.1,0-0.1,0.1-0.2,0.1l-0.1,0.1l-0.1,0.1c-0.2,0.1-0.3,0.2-0.4,0.3
		c0,0-0.1,0-0.1,0.1l-5,3.6l-0.1,0.1c-1,0.7-2.4,1.8-3.5,2.5l-5,3.6l-0.1,0.1c-0.6,0.4-1.5,1-2.2,1.6l-5.2,3.8
		c-0.4,0.3-0.8,0.6-1.3,0.8c-0.6,0.4-1.5,1-2.2,1.6l-5.2,3.8c-0.4,0.3-0.8,0.6-1.3,0.8c-0.6,0.4-1.5,1-2.2,1.6l-1.3,0.9
		c-0.4,0.3-0.9,0.7-1.4,1.2c0,0,0,0-0.1,0.1c-0.2,0.2-0.3,0.3-0.5,0.5c-0.1,0.2-0.3,0.3-0.4,0.4c-0.2,0.2-0.4,0.4-0.5,0.6
		c0,0,0,0,0,0.1c-0.2,0.2-0.4,0.5-0.6,0.8c0,0,0,0.1-0.1,0.1c0,0.1-0.1,0.2-0.1,0.2c-0.1,0.2-0.2,0.3-0.3,0.5
		c-0.1,0.3-0.3,0.5-0.4,0.8c0,0,0,0,0,0.1c0,0.1-0.1,0.1-0.1,0.2c-1.2,2.5-1.5,5.1-1.4,7.4c0,0,0,0,0,0.1v0.1v0.1c0,0.1,0,0.3,0,0.4
		c0,0.1,0,0.2,0,0.3c0,0.1,0,0.2,0,0.3c0,0.1,0,0.1,0,0.2c0,0.1,0,0.3,0.1,0.4c0,0.2,0.1,0.4,0.1,0.6c0,0.1,0,0.2,0.1,0.3
		c0,0.1,0,0.2,0.1,0.3c0,0.1,0,0.1,0,0.2c0.1,0.6,0.2,0.9,0.3,1.3v0.1c0,0.1,0.1,0.2,0.1,0.2c0.1,0.2,0.1,0.4,0.2,0.6
		c0,0.1,0,0.1,0.1,0.2c0.1,0.3,0.2,0.6,0.3,0.8c0.1,0.2,0.2,0.4,0.3,0.7c0.1,0.2,0.2,0.3,0.2,0.5c0.1,0.2,0.2,0.4,0.3,0.6
		c0.6,1.3,1.5,2.5,2.5,3.8c0.2,0.2,0.3,0.4,0.5,0.6c0,0,0,0,0.1,0.1c0.2,0.2,0.4,0.4,0.6,0.6c0.1,0.1,0.1,0.1,0.2,0.2
		c0.2,0.2,0.5,0.5,0.7,0.7c0.2,0.2,0.3,0.3,0.5,0.5c0.1,0.1,0.1,0.1,0.2,0.2c0.2,0.1,0.3,0.3,0.5,0.4c0.1,0.1,0.2,0.2,0.3,0.2
		c0.1,0.1,0.2,0.2,0.3,0.3c0.2,0.2,0.5,0.4,0.7,0.6c2.3,1.8,4.9,3.1,7.5,3.9c0.2,0.1,0.4,0.1,0.6,0.2c0.1,0,0.3,0.1,0.4,0.1h0.1
		c1,0.2,2,0.4,2.9,0.4c0.2,0,0.3,0,0.5,0c0.1,0,0.1,0,0.2,0c0.1,0,0.2,0,0.2,0c0.1,0,0.1,0,0.2,0c0.2,0,0.3,0,0.5,0h0.1h0.1
		c0.2,0,0.3,0,0.5,0c0.2,0,0.3,0,0.5,0c0,0,0,0,0.1,0c0.2,0,0.4-0.1,0.6-0.1c0,0,0,0,0.1,0h0.1c0.1,0,0.2,0,0.3,0h0.1
		c0.3-0.1,0.5-0.1,0.7-0.2c0.1,0,0.1,0,0.2-0.1c0.3-0.1,0.5-0.1,0.7-0.2c0,0,0.1,0,0.2-0.1h0.1h0.1c1.2-0.4,2.2-0.9,3.1-1.6
		c0.1-0.1,0.2-0.1,0.3-0.2c0,0,0,0,0.1,0l0.1-0.1c0,0,0,0,0.1,0c0,0,0,0,0.1,0c0,0,0,0,0.1,0c0.2-0.2,0.4-0.3,0.6-0.5l0.1-0.1
		c0.1-0.1,0.2-0.1,0.2-0.2l0.1-0.1c0,0,0,0,0.1-0.1c0.2-0.2,0.3-0.3,0.5-0.5c0,0,0,0,0.1-0.1c0.1-0.1,0.1-0.1,0.2-0.2
		c0.1-0.1,0.1-0.1,0.2-0.2l0.1-0.1c0.1-0.2,0.3-0.3,0.4-0.5c0.2-0.2,0.3-0.4,0.5-0.7l0.1-0.1c7.8-11.8,15.6-23.7,23.4-35.5
		c0.1-0.2,0.3-0.4,0.4-0.6c0,0,0-0.1,0.1-0.1c0,0,0-0.1,0.1-0.1c0-0.1,0.1-0.2,0.1-0.2v-0.1c0-0.1,0.1-0.1,0.1-0.2l0.1-0.1v-0.1
		c0,0,0-0.1,0.1-0.1l0.1-0.1l0.1-0.2v-0.1c0-0.1,0-0.1,0.1-0.2c0-0.1,0.1-0.1,0.1-0.2v-0.1c0,0,0-0.1,0.1-0.2c0.1-0.2,0.2-0.6,0.3-1
		c0-0.1,0-0.1,0-0.2c0-0.1,0-0.1,0-0.2c0,0,0,0,0-0.1C303.5,342.2,303.5,342.1,303.5,341.9z"/>
	
		<linearGradient id="SVGID_22_" gradientUnits="userSpaceOnUse" x1="275.6948" y1="199.9303" x2="303.2958" y2="180.9943" gradientTransform="matrix(1 0 0 -1 0 524)">
		<stop  offset="0" style="stop-color:#BDBEC0"/>
		<stop  offset="0.2229" style="stop-color:#DADADA"/>
		<stop  offset="0.439" style="stop-color:#F2F2F2"/>
		<stop  offset="0.5699" style="stop-color:#FFFFFF"/>
		<stop  offset="0.6741" style="stop-color:#F1F0F0"/>
		<stop  offset="0.8551" style="stop-color:#D5D5D6"/>
		<stop  offset="1" style="stop-color:#BDBEC0"/>
	</linearGradient>
	<path class="st24" d="M284,329.6c-0.1,0.1-0.2,0.1-0.2,0.2c0,0,0.1,0,0.1-0.1C283.9,329.7,283.9,329.7,284,329.6z"/>
	
		<linearGradient id="SVGID_23_" gradientUnits="userSpaceOnUse" x1="243.099" y1="145.7675" x2="263.287" y2="145.7675" gradientTransform="matrix(1 0 0 -1 0 524)">
		<stop  offset="1.065560e-07" style="stop-color:#064961"/>
		<stop  offset="1" style="stop-color:#29AAE1"/>
	</linearGradient>
	<path class="st25" d="M254.8,369.4c-2.9-1.5-6.2-1.5-9,1.8c-4.4,5-3.6,14.5,3.8,16.5c2.2,0.6,4.7,0.3,6.8-0.5
		c3.7-1.5,8.1-3.5,6.6-8.2c-0.5-1.7-1.7-3.2-2.7-4.7C258.8,372.4,256.9,370.5,254.8,369.4z"/>
	
		<linearGradient id="SVGID_24_" gradientUnits="userSpaceOnUse" x1="160.0466" y1="226.7736" x2="172.3206" y2="238.5666" gradientTransform="matrix(1 0 0 -1 0 524)">
		<stop  offset="0" style="stop-color:#FFFFFF"/>
		<stop  offset="0.5164" style="stop-color:#FFFFFF"/>
		<stop  offset="1" style="stop-color:#F2F2F2"/>
	</linearGradient>
	<path class="st26" d="M148.1,286.9c-0.9-0.6-1.9-1.4-2.5-2.3c-1-1.7-0.8-3.8,0-5.6c0.8-1.8,2.1-3.1,3.5-4.6c2.3-2.4,5.2-5,8.4-4.2
		c1.6,0.4,2.8,1.7,4,2.8c7.5,7.8,14.5,16,21,24.7c1.9,2.6,5.2,7.6,1.3,10c-3.4,2-8.8-1.8-11.5-3.4
		C163.5,299.4,156,292.7,148.1,286.9z"/>
	
		<linearGradient id="SVGID_25_" gradientUnits="userSpaceOnUse" x1="183.081" y1="303.605" x2="296.584" y2="303.605" gradientTransform="matrix(1 0 0 -1 0 524)">
		<stop  offset="0" style="stop-color:#231F1F"/>
		<stop  offset="1" style="stop-color:#282561"/>
	</linearGradient>
	<path class="st27" d="M296.6,213.3c0,0.1,0,0.3,0,0.4c0,0.1,0,0.3,0,0.5c0,0.1,0,0.1,0,0.2c0,0.1,0,0.1,0,0.2c0,0.2,0,0.4,0,0.6
		c0,0.1,0,0.2,0,0.3c0,0.8-0.1,1.7-0.2,2.4c0,0.2,0,0.4-0.1,0.6c0,0.1,0,0.1,0,0.2c0,0.1,0,0.2,0,0.3c0,0.2,0,0.3-0.1,0.5
		c0,0.1-0.1,0.2-0.1,0.3c-0.1,0.3-0.3,0.5-0.4,0.8c-0.1,0.1-0.1,0.2-0.2,0.3c-0.1,0.1-0.2,0.2-0.2,0.4c-0.2,0.3-0.4,0.6-0.6,0.9
		c-0.1,0.2-0.3,0.4-0.4,0.7c-0.2,0.3-0.5,0.6-0.7,0.9c-0.1,0.1-0.2,0.3-0.3,0.4c-0.1,0.1-0.2,0.2-0.2,0.3c-0.1,0.1-0.2,0.2-0.2,0.3
		c-0.4,0.4-0.7,0.9-1.2,1.4c-0.4,0.4-0.8,0.8-1.3,1.3c-0.1,0.1-0.2,0.2-0.3,0.3c-0.1,0.1-0.2,0.2-0.3,0.3c-0.2,0.2-0.4,0.3-0.5,0.5
		c-0.3,0.2-0.5,0.5-0.8,0.7c-0.3,0.2-0.5,0.4-0.8,0.7c-0.3,0.2-0.6,0.5-0.9,0.7c-0.3,0.2-0.6,0.4-0.9,0.6c-0.3,0.2-0.6,0.5-1,0.7
		c-0.3,0.2-0.6,0.4-0.9,0.6c-0.3,0.2-0.7,0.4-1,0.6c-0.1,0.1-0.2,0.1-0.3,0.2c-0.4,0.3-0.9,0.5-1.4,0.8c-0.8,0.5-1.7,0.9-2.6,1.4
		c-0.3,0.1-0.5,0.3-0.8,0.4c-0.6,0.3-1.3,0.6-2,0.9c-0.3,0.1-0.6,0.3-0.9,0.4c-0.7,0.3-1.5,0.6-2.2,0.8c-0.2,0.1-0.4,0.2-0.6,0.2
		c-0.9,0.3-1.9,0.7-2.9,1c-0.1,0-0.1,0-0.2,0.1c-0.3,0.1-0.6,0.2-0.9,0.3c-0.5,0.1-0.9,0.3-1.5,0.4c-0.4,0.1-0.8,0.2-1.2,0.3
		c-0.5,0.1-0.9,0.3-1.5,0.4c-0.4,0.1-0.8,0.2-1.3,0.3c-0.5,0.1-0.9,0.2-1.5,0.3c-0.4,0.1-0.8,0.2-1.3,0.3c-0.5,0.1-0.9,0.2-1.5,0.3
		c-0.1,0-0.3,0.1-0.4,0.1c-0.2,0-0.4,0.1-0.6,0.1c-0.8,0.1-1.7,0.3-2.5,0.4c-0.3,0-0.6,0.1-0.9,0.1c-1.2,0.1-2.2,0.3-3.4,0.4h-0.1
		c-0.2,0-0.4,0-0.6,0c-0.8,0.1-1.6,0.1-2.4,0.2c-0.3,0-0.7,0-1,0.1c-0.6,0-1.4,0.1-2,0.1c-0.2,0-0.3,0-0.5,0c-0.2,0-0.5,0-0.7,0
		c-0.5,0-1,0-1.6,0h-1.4c-0.5,0-1,0-1.6,0c-0.2,0-0.4,0-0.7,0c-0.2,0-0.4,0-0.6,0c-0.5,0-1,0-1.5-0.1c-0.4,0-0.9,0-1.4-0.1
		c-0.5,0-0.9-0.1-1.5-0.1c-0.3,0-0.5,0-0.8,0c-0.2,0-0.3,0-0.5-0.1c-0.5,0-0.9-0.1-1.5-0.1c-0.4,0-0.9-0.1-1.4-0.1
		c-0.5-0.1-0.9-0.1-1.5-0.2c-0.3,0-0.6-0.1-0.8-0.1c-0.1,0-0.3,0-0.4-0.1c-0.5-0.1-1-0.2-1.6-0.2c-0.4-0.1-0.8-0.1-1.3-0.2
		c-0.5-0.1-1-0.2-1.6-0.3c-0.3-0.1-0.6-0.1-0.9-0.2c-0.1,0-0.2,0-0.2-0.1c-0.8-0.2-1.7-0.3-2.5-0.5c-0.1,0-0.3-0.1-0.4-0.1
		c-0.9-0.2-1.9-0.5-2.8-0.7h-0.1c-0.1,0-0.3-0.1-0.4-0.1c-0.9-0.3-1.8-0.5-2.7-0.8c-0.3-0.1-0.6-0.2-0.8-0.3c-1-0.3-2-0.7-2.9-1
		h-0.1c-0.4-0.2-0.9-0.4-1.4-0.6c-0.3-0.1-0.7-0.3-1-0.4c-0.5-0.2-0.9-0.4-1.4-0.6c-0.3-0.1-0.6-0.3-0.9-0.4
		c-0.5-0.2-0.9-0.5-1.5-0.7c-0.2-0.1-0.5-0.2-0.7-0.4c-0.7-0.4-1.5-0.8-2.2-1.3c-6.5-3.9-11-8.4-13.7-13.2c0-0.1,0-0.2,0-0.3v-0.1
		c0,0,0,0,0-0.1c0-0.2-0.1-0.5-0.1-0.7c0-0.3-0.1-0.5-0.1-0.8c-0.1-0.6-0.1-1.3-0.2-1.9c0-0.1,0-0.1,0-0.2c-0.1-0.6-0.1-1.3-0.1-2
		c0-0.2,0-0.4,0-0.6V214c0-0.6,0-1.2,0-2c0-0.2,0-0.5,0-0.7v-0.6c0-0.2,0-0.4,0-0.6c0-0.1,0-0.2,0-0.3s0-0.2,0-0.3
		c0-0.9,0.1-1.7,0.1-2.3c0-0.1,0-0.2,0-0.3c0-0.1,0-0.2,0-0.3c0-0.2,0-0.5,0.1-0.7c0-0.7,0.1-1.4,0.2-2.1c0,0,0-0.1,0-0.2
		c0-0.2,0-0.3,0.1-0.5v-0.1c0.1-0.7,0.2-1.5,0.3-2.1c0-0.2,0.1-0.7,0.2-1.3c0.2-0.9,0.3-1.9,0.6-2.8c0-0.1,0-0.2,0.1-0.3
		c2.7,4.2,7,8.2,12.8,11.7c0.7,0.4,1.5,0.8,2.2,1.3c0.2,0.1,0.4,0.2,0.7,0.3c0.5,0.3,1,0.5,1.6,0.8c0.3,0.1,0.6,0.3,0.9,0.4
		c0.5,0.2,0.9,0.4,1.5,0.6c0.3,0.1,0.6,0.3,1,0.4c0.4,0.2,0.9,0.4,1.4,0.5c0.1,0,0.1,0,0.2,0.1c0.9,0.4,2,0.7,2.9,1
		c0.3,0.1,0.6,0.2,0.8,0.3c0.9,0.3,1.8,0.6,2.7,0.8c0.2,0.1,0.4,0.1,0.6,0.2c0.9,0.3,1.9,0.5,2.8,0.7c0.1,0,0.3,0.1,0.4,0.1
		c0.8,0.2,1.7,0.4,2.5,0.5c0.4,0.1,0.7,0.1,1.2,0.2c0.5,0.1,1,0.2,1.6,0.3c0.4,0.1,0.8,0.1,1.3,0.2c0.5,0.1,1,0.2,1.6,0.2
		c0.4,0.1,0.8,0.1,1.4,0.2c0.5,0.1,0.9,0.1,1.5,0.2c0.4,0,0.9,0.1,1.4,0.1c0.5,0,0.9,0.1,1.5,0.1c0.4,0,0.9,0.1,1.4,0.1
		c0.5,0,0.9,0.1,1.5,0.1c0.4,0,0.9,0.1,1.4,0.1c0.5,0,0.9,0,1.5,0.1c0.4,0,0.9,0,1.4,0c0.5,0,1,0,1.6,0c0.4,0,0.8,0,1.4,0s1,0,1.6,0
		c0.4,0,0.8,0,1.3,0c0.6,0,1.4-0.1,2-0.1c0.3,0,0.7,0,1-0.1c0.8-0.1,1.6-0.1,2.4-0.2c0.2,0,0.4,0,0.6-0.1c2.6-0.3,5.9-1.3,8.5-0.6
		c4.1,0.9,4.5,5.2,6.5,8.3c1.6,2.4,4,4.4,6.9,4.9c5.7,1.2,11.3-3.7,15.4-7.1c1.9-1.6,3.9-3.5,5.8-5.4
		C294.3,216.3,295.5,214.7,296.6,213.3z"/>
	<path class="st12" d="M191.1,221.7c-3.7-4.5-4.3-15.6-1.7-15.1c3.5,0.7,8.6,13.8,4.7,16C193.3,223.1,192.1,222.8,191.1,221.7z
		 M191.2,205.9c-1.2-1.2-3.8-4-4,2.2c-0.4,10.1,4.5,19.7,8.3,16.5C199.2,221.3,195.5,210.9,191.2,205.9z"/>
	<path class="st12" d="M218.6,235.6c-7.4-2.5-9.6-11.5-4.7-13.6c5.2-2.3,14.6,4.4,12.2,10.6C225,235.2,221.9,236.4,218.6,235.6z
		 M218.7,219.9c-9.6-2.3-11.3,5.8-7.3,12.1c5.2,8.2,15.4,7.5,17.1,0.7C229.9,227,224.6,221.4,218.7,219.9z"/>
	
		<linearGradient id="SVGID_26_" gradientUnits="userSpaceOnUse" x1="200.524" y1="215.0495" x2="223.853" y2="215.0495" gradientTransform="matrix(1 0 0 -1 0 524)">
		<stop  offset="0" style="stop-color:#231F1F"/>
		<stop  offset="1" style="stop-color:#282561"/>
	</linearGradient>
	<path class="st28" d="M223.9,335.3c0-0.1,0-0.2,0-0.3v-0.1l-0.2-42.9c0-0.1,0-0.2,0-0.2c0-0.1,0-0.2,0-0.3c0-0.1,0-0.2,0-0.3
		c0-0.1,0-0.2,0-0.3c0-0.1,0-0.2-0.1-0.3v-0.1c0,0,0,0,0-0.1c0-0.1,0-0.1,0-0.2c0-0.1,0-0.2-0.1-0.3c0-0.1-0.1-0.2-0.1-0.4
		c0-0.1-0.1-0.2-0.1-0.3c0-0.1-0.1-0.2-0.1-0.4v-0.1c0,0,0,0,0-0.1c0,0,0-0.1-0.1-0.1c0-0.1-0.1-0.2-0.1-0.4c0-0.1-0.1-0.2-0.1-0.3
		c0-0.1-0.1-0.2-0.2-0.3c-0.1-0.1-0.1-0.2-0.2-0.3c0-0.1-0.1-0.1-0.1-0.2c0,0,0,0,0-0.1c0,0,0-0.1-0.1-0.1c-0.1-0.1-0.1-0.2-0.2-0.3
		c-0.1-0.1-0.1-0.2-0.2-0.3c0,0,0,0,0-0.1c0-0.1-0.1-0.2-0.1-0.2c-0.1-0.1-0.2-0.3-0.3-0.4c0,0,0-0.1-0.1-0.1c0-0.1-0.1-0.1-0.1-0.2
		c-0.1-0.1-0.1-0.2-0.2-0.3c0-0.1-0.1-0.1-0.1-0.2c-0.1-0.2-0.2-0.3-0.3-0.5c-0.1-0.1-0.1-0.2-0.2-0.2c-0.1-0.1-0.1-0.1-0.2-0.2
		c-0.1-0.1-0.1-0.1-0.2-0.2c0-0.1-0.1-0.1-0.1-0.2c-0.1-0.1-0.2-0.2-0.3-0.4l-0.1-0.1c0,0,0,0-0.1-0.1l-0.1-0.1
		c-0.1-0.1-0.2-0.2-0.3-0.3c-0.1-0.1-0.1-0.1-0.2-0.2c0,0,0,0-0.1,0c-0.1-0.1-0.2-0.2-0.3-0.3s-0.2-0.2-0.3-0.3
		c-0.1-0.1-0.2-0.2-0.3-0.2c-0.1-0.1-0.2-0.2-0.3-0.2c0,0-0.1,0-0.1-0.1c0,0,0,0-0.1,0s-0.1-0.1-0.2-0.1c-0.1-0.1-0.2-0.1-0.3-0.2
		c-0.1,0-0.1-0.1-0.2-0.1c0,0,0,0-0.1,0c0,0,0,0-0.1,0c-0.1-0.1-0.2-0.1-0.3-0.2c-0.1-0.1-0.2-0.1-0.3-0.2c0,0,0,0-0.1,0l-6.2-2.9
		c-0.1,0-0.2-0.1-0.2-0.1c-0.1,0-0.2-0.1-0.3-0.1s-0.1,0-0.2-0.1c0,0,0,0-0.1,0s-0.2-0.1-0.3-0.1c-0.1,0-0.2-0.1-0.3-0.1
		c0,0,0,0-0.1,0c-0.1,0-0.1,0-0.2,0c-0.1,0-0.2,0-0.3-0.1H207c0,0,0,0-0.1,0h-0.1c-0.1,0-0.2,0-0.3,0c-0.1,0-0.1,0-0.2,0
		c0,0,0,0-0.1,0c0,0,0,0-0.1,0s-0.2,0-0.3,0h-0.1h-0.1h-0.1c-0.1,0-0.3,0.1-0.4,0.1h-0.1c-0.1,0-0.2,0.1-0.4,0.1
		c-0.2,0.1-0.4,0.2-0.5,0.3l-3.2,2.2c0.2-0.1,0.3-0.2,0.5-0.3c0.1-0.1,0.3-0.1,0.4-0.1h0.1c0.2,0,0.3-0.1,0.5-0.1h0.1
		c0.2,0,0.4,0,0.5,0c0,0,0,0,0.1,0c0.2,0,0.4,0,0.6,0c0,0,0,0,0.1,0c0.2,0,0.4,0.1,0.6,0.1c0.2,0.1,0.5,0.1,0.7,0.2
		c0.2,0.1,0.5,0.2,0.7,0.3l6.2,2.9c0.3,0.1,0.5,0.3,0.8,0.4c0,0,0,0,0.1,0c0.2,0.1,0.5,0.3,0.7,0.5c0,0,0,0,0.1,0
		c0.2,0.2,0.5,0.3,0.7,0.5c0.2,0.2,0.5,0.4,0.7,0.6c0.2,0.2,0.4,0.4,0.6,0.6c0,0,0,0,0.1,0.1c0.2,0.2,0.4,0.4,0.6,0.6
		c0.1,0.1,0.1,0.1,0.2,0.2c0.1,0.1,0.2,0.3,0.3,0.4c0.1,0.1,0.2,0.3,0.3,0.5c0.1,0.2,0.2,0.3,0.3,0.5c0,0.1,0.1,0.1,0.1,0.2
		c0.2,0.2,0.3,0.5,0.5,0.7c0,0,0,0,0,0.1c0.2,0.3,0.3,0.5,0.4,0.8c0,0,0,0,0,0.1c0.1,0.3,0.3,0.6,0.4,0.9c0.1,0.3,0.2,0.6,0.3,0.9
		c0,0,0,0,0,0.1c0.1,0.3,0.2,0.6,0.3,0.9c0.1,0.3,0.1,0.6,0.2,0.9c0,0,0,0,0,0.1c0.1,0.3,0.1,0.6,0.1,0.8c0,0.3,0,0.6,0,0.8
		l0.2,42.9c0,0.2,0,0.4,0,0.6c0,0,0,0,0,0.1c0,0.2,0,0.4-0.1,0.6v0.1c0,0.2-0.1,0.4-0.1,0.5v0.1c0,0.1-0.1,0.3-0.1,0.4
		c0,0.1-0.1,0.2-0.1,0.2c0,0.1-0.1,0.1-0.1,0.2c-0.1,0.2-0.3,0.4-0.4,0.6l-0.1,0.1c-0.2,0.2-0.4,0.4-0.6,0.5l3.2-2.2
		c0.2-0.1,0.4-0.3,0.6-0.5l0.1-0.1c0.2-0.2,0.3-0.4,0.4-0.6c0-0.1,0-0.1,0.1-0.2c0-0.1,0.1-0.2,0.1-0.2v-0.1c0-0.1,0.1-0.2,0.1-0.3
		v-0.1c0-0.1,0.1-0.3,0.1-0.4v-0.1v-0.1c0-0.1,0-0.1,0-0.2s0-0.2,0-0.3c0,0,0,0,0-0.1c0,0,0,0,0-0.1
		C223.9,335.4,223.9,335.3,223.9,335.3z"/>
	
		<linearGradient id="SVGID_27_" gradientUnits="userSpaceOnUse" x1="216.1895" y1="188.2118" x2="208.8325" y2="239.7848" gradientTransform="matrix(1 0 0 -1 0 524)">
		<stop  offset="3.409780e-07" style="stop-color:#6D3092"/>
		<stop  offset="1" style="stop-color:#29AAE1"/>
	</linearGradient>
	<path class="st29" d="M212,281.4c4.5,2.1,8.3,8.1,8.4,12.8l0.2,42.9c0,4.3-3,6.1-7.1,4.2l-0.1-0.1c-4-1.9-7.6-6.9-8.3-11.5
		l-6.3-45.8c-0.7-5,2.5-7.5,7-5.4L212,281.4z"/>
	
		<linearGradient id="SVGID_28_" gradientUnits="userSpaceOnUse" x1="71.5772" y1="380.7749" x2="165.899" y2="380.7749" gradientTransform="matrix(1 0 0 -1 0 524)">
		<stop  offset="0" style="stop-color:#29AAE1"/>
		<stop  offset="1" style="stop-color:#6D3092"/>
	</linearGradient>
	<path class="st30" d="M148.4,129.7c9.7,5.7,17.6,19.2,17.5,30.4v4.4c0,7.7-3.8,12.3-9.3,12.5l-1.7,16.2l-9.5-20.3l-56.3-32.5
		c-9.7-5.7-17.6-19.2-17.5-30.4v-4.4c0-11.1,8-15.6,17.6-10.1L148.4,129.7z"/>
	
		<linearGradient id="SVGID_29_" gradientUnits="userSpaceOnUse" x1="361.8458" y1="145.1943" x2="336.1738" y2="57.2663" gradientTransform="matrix(1 0 0 -1 0 524)">
		<stop  offset="0" style="stop-color:#6ECBD1"/>
		<stop  offset="1" style="stop-color:#6ECBD1"/>
	</linearGradient>
	<path class="st31" d="M388.9,392.6c10.8,6.2,19.5,21.3,19.4,33.6v4.8c0,12.4-8.8,17.3-19.5,11.1l-57.6-33.3l-16.6,10.9l2.7-20
		c-7.9-7.4-13.4-19.1-13.4-29v-4.8c0-12.4,8.8-17.3,19.5-11.1L388.9,392.6z"/>
	<path class="st12" d="M93.5,116.1c2,1.2,3.7,4,3.7,6.4c0,2.3-1.7,3.2-3.7,2.1s-3.7-4-3.7-6.4C89.7,115.9,91.4,115,93.5,116.1z"/>
	<path class="st12" d="M116.7,129.6c2,1.2,3.7,4,3.7,6.4c0,2.3-1.7,3.2-3.7,2.1c-2-1.2-3.7-4-3.7-6.4
		C113.1,129.4,114.8,128.5,116.7,129.6z"/>
	<path class="st12" d="M139.1,142.5c2,1.2,3.7,4,3.7,6.4c0,2.3-1.7,3.2-3.7,2.1c-2-1.2-3.7-4-3.7-6.4
		C135.4,142.2,137,141.4,139.1,142.5z"/>
	
		<linearGradient id="SVGID_30_" gradientUnits="userSpaceOnUse" x1="147.6291" y1="36.8221" x2="145.5261" y2="90.5101" gradientTransform="matrix(1 0 0 -1 0 524)">
		<stop  offset="0" style="stop-color:#3459A8"/>
		<stop  offset="1" style="stop-color:#097DBD"/>
	</linearGradient>
	<path class="st32" d="M143.3,432.3c-0.2-0.2-0.3-0.3-0.3-0.5v8.4c0,0.2,0.1,0.4,0.3,0.5l5.2,4.6v-8.4L143.3,432.3z"/>
	
		<linearGradient id="SVGID_31_" gradientUnits="userSpaceOnUse" x1="196.1651" y1="38.7218" x2="194.0632" y2="92.4098" gradientTransform="matrix(1 0 0 -1 0 524)">
		<stop  offset="0" style="stop-color:#3459A8"/>
		<stop  offset="1" style="stop-color:#097DBD"/>
	</linearGradient>
	<path class="st33" d="M196.7,432.8l-5,4.4v8.4l5-4.4c0.2-0.2,0.3-0.3,0.3-0.5v-8.4C196.9,432.4,196.9,432.6,196.7,432.8z"/>
	
		<linearGradient id="SVGID_32_" gradientUnits="userSpaceOnUse" x1="173.3936" y1="67.9951" x2="166.8446" y2="83.7621" gradientTransform="matrix(1 0 0 -1 0 524)">
		<stop  offset="0" style="stop-color:#3459A8"/>
		<stop  offset="1" style="stop-color:#097DBD"/>
	</linearGradient>
	<path class="st34" d="M183.7,444.1v8.4c0-2.1-1.4-4.1-4.1-5.7c-5.3-3.1-14-3.1-19.4,0c-2.6,1.6-4,3.6-4,5.6V444c0-2,1.4-4.1,4-5.6
		c5.3-3.1,14-3.1,19.4,0C182.4,440.1,183.7,442,183.7,444.1z"/>
	<path class="st35" d="M135.8,445.9v8.4l-0.1-4.1l0.1-8.4V445.9z"/>
	
		<linearGradient id="SVGID_33_" gradientUnits="userSpaceOnUse" x1="200.3509" y1="38.8861" x2="198.2489" y2="92.5741" gradientTransform="matrix(1 0 0 -1 0 524)">
		<stop  offset="0" style="stop-color:#3459A8"/>
		<stop  offset="1" style="stop-color:#097DBD"/>
	</linearGradient>
	<path class="st36" d="M202.8,446.8l-8.8,1v8.4l8.8-1c0.7-0.1,1.3-0.5,1.3-0.9v-8.4C204,446.3,203.5,446.7,202.8,446.8z"/>
	
		<linearGradient id="SVGID_34_" gradientUnits="userSpaceOnUse" x1="142.374" y1="36.6154" x2="140.272" y2="90.3034" gradientTransform="matrix(1 0 0 -1 0 524)">
		<stop  offset="0" style="stop-color:#3459A8"/>
		<stop  offset="1" style="stop-color:#097DBD"/>
	</linearGradient>
	<path class="st37" d="M137.1,446.9c-0.3,0-0.6-0.1-0.8-0.2c-0.3-0.2-0.5-0.4-0.5-0.6v8.4c0,0.2,0.2,0.5,0.5,0.6
		c0.2,0.1,0.5,0.2,0.8,0.2l9.1,1v-8.4L137.1,446.9z"/>
	
		<linearGradient id="SVGID_35_" gradientUnits="userSpaceOnUse" x1="147.5135" y1="87.6048" x2="146.4385" y2="38.5988" gradientTransform="matrix(1 0 0 -1 0 524)">
		<stop  offset="0" style="stop-color:#51C4CC"/>
		<stop  offset="1" style="stop-color:#097DBD"/>
	</linearGradient>
	<path class="st38" d="M148.1,450.6v8.4c-0.8-0.8-1.4-1.8-1.9-2.7v-8.4C146.6,448.9,147.2,449.8,148.1,450.6z"/>
	
		<linearGradient id="SVGID_36_" gradientUnits="userSpaceOnUse" x1="193.1892" y1="86.6041" x2="192.1142" y2="37.5972" gradientTransform="matrix(1 0 0 -1 0 524)">
		<stop  offset="0" style="stop-color:#51C4CC"/>
		<stop  offset="1" style="stop-color:#097DBD"/>
	</linearGradient>
	<path class="st39" d="M194,447.8v8.4c-0.5,1.2-1.3,2.3-2.3,3.4v-8.4C192.6,450.1,193.4,449,194,447.8z"/>
	
		<linearGradient id="SVGID_37_" gradientUnits="userSpaceOnUse" x1="179.125" y1="37.9134" x2="179.61" y2="67.9914" gradientTransform="matrix(1 0 0 -1 0 524)">
		<stop  offset="0" style="stop-color:#3459A8"/>
		<stop  offset="1" style="stop-color:#097DBD"/>
	</linearGradient>
	<path class="st40" d="M181.8,456.7v8.4c-1.5,0.4-3,0.8-4.6,1v-8.4C178.8,457.6,180.4,457.1,181.8,456.7z"/>
	
		<linearGradient id="SVGID_38_" gradientUnits="userSpaceOnUse" x1="160.0543" y1="38.2202" x2="160.5393" y2="68.2992" gradientTransform="matrix(1 0 0 -1 0 524)">
		<stop  offset="0" style="stop-color:#3459A8"/>
		<stop  offset="1" style="stop-color:#097DBD"/>
	</linearGradient>
	<path class="st41" d="M163.4,457.9v8.4c-2-0.3-4-0.8-5.9-1.5v-8.4C159.3,457,161.3,457.6,163.4,457.9z"/>
	
		<linearGradient id="SVGID_39_" gradientUnits="userSpaceOnUse" x1="142.863" y1="62.3877" x2="157.47" y2="62.3877" gradientTransform="matrix(1 0 0 -1 0 524)">
		<stop  offset="0" style="stop-color:#3459A8"/>
		<stop  offset="1" style="stop-color:#097DBD"/>
	</linearGradient>
	<path class="st42" d="M150.4,459.1c-0.6,0.2-1.5,0.2-2.1-0.1l-4.9-2.8c-0.3-0.2-0.5-0.4-0.5-0.6v8.4c0,0.2,0.2,0.5,0.5,0.6l4.9,2.8
		c0.5,0.3,1.4,0.3,2.1,0.1l7-2.7v-8.4L150.4,459.1z"/>
	
		<linearGradient id="SVGID_40_" gradientUnits="userSpaceOnUse" x1="181.759" y1="61.9683" x2="196.808" y2="61.9683" gradientTransform="matrix(1 0 0 -1 0 524)">
		<stop  offset="0" style="stop-color:#3459A8"/>
		<stop  offset="1" style="stop-color:#097DBD"/>
	</linearGradient>
	<path class="st43" d="M196.3,456.6l-4.9,2.8c-0.5,0.3-1.4,0.4-2.1,0.1l-7.5-2.9v8.4l7.5,2.9c0.6,0.2,1.5,0.2,2.1-0.1l4.9-2.8
		c0.3-0.2,0.5-0.4,0.5-0.6V456C196.8,456.2,196.6,456.4,196.3,456.6z"/>
	
		<linearGradient id="SVGID_41_" gradientUnits="userSpaceOnUse" x1="169.5549" y1="99.3243" x2="170.5249" y2="42.0783" gradientTransform="matrix(1 0 0 -1 0 524)">
		<stop  offset="0" style="stop-color:#51C4CC"/>
		<stop  offset="1" style="stop-color:#097DBD"/>
	</linearGradient>
	<path class="st44" d="M204,441.7c0-0.2-0.2-0.5-0.5-0.6c-0.2-0.1-0.5-0.2-0.8-0.2l-5.8-0.6l-3.4-0.4c-0.5-0.9-1.2-1.8-2-2.6l5-4.4
		c0.2-0.1,0.3-0.3,0.3-0.5c0-0.2-0.2-0.5-0.5-0.6l-4.9-2.8c-0.5-0.3-1.4-0.3-2.1-0.1l-7.5,2.9c-1.7-0.5-3.5-0.9-5.2-1.3l-2-5.7
		c-0.1-0.2-0.2-0.3-0.4-0.5c-0.3-0.2-0.7-0.3-1.2-0.3h-7c-0.7,0-1.5,0.3-1.6,0.7l-2,5.8c-1.3,0.2-2.5,0.5-3.7,0.8l-8.3-3.1
		c-0.6-0.2-1.5-0.2-2.1,0.1l-4.9,2.8c-0.3,0.2-0.4,0.4-0.4,0.6c0,0.2,0.1,0.3,0.3,0.5l5.2,4.6c-0.9,0.9-1.7,2-2.3,3l-3.2,0.4l-6,0.7
		c-0.7,0.1-1.4,0.5-1.4,0.9v4.1c0,0.1,0,0.2,0.1,0.2c0.1,0.2,0.2,0.3,0.4,0.4c0.2,0.1,0.5,0.2,0.8,0.2l9.1,1c0.4,0.9,1,1.9,1.9,2.7
		l-1.9,1.7l-3,2.6c-0.2,0.1-0.3,0.3-0.3,0.5c0,0.1,0.1,0.3,0.2,0.4c0.1,0.1,0.2,0.2,0.3,0.2l4.4,2.6l0.2,0.1l0.3,0.2
		c0.5,0.3,1.4,0.3,2.1,0.1l7-2.7c1.9,0.6,3.9,1.2,5.9,1.5l1.9,5.2c0.1,0.2,0.2,0.3,0.4,0.5c0.3,0.2,0.7,0.3,1.2,0.3h7
		c0.7,0,1.5-0.3,1.6-0.7l1.8-5.2c1.6-0.3,3.1-0.6,4.6-1l7.5,2.9c0.6,0.2,1.5,0.2,2.1-0.1l0.2-0.1l0.2-0.1l2.1-1.3l2.4-1.5
		c0.3-0.2,0.4-0.4,0.4-0.6v-0.1c0-0.1-0.1-0.2-0.2-0.4l-2.6-2.3l-2.3-2c1-1,1.8-2.2,2.3-3.4l8.8-1c0.7-0.1,1.4-0.5,1.4-0.9V441.7z
		 M160.3,449.7c-0.7-0.4-1.5-0.9-2-1.5c-0.7-0.7-1.3-1.5-1.6-2.2c-0.3-0.6-0.4-1.3-0.4-2c0-0.8,0.2-1.8,0.7-2.6
		c0.1-0.2,0.3-0.5,0.5-0.7c0.2-0.2,0.4-0.4,0.6-0.6c0.2-0.2,0.4-0.4,0.7-0.6c0.4-0.3,0.8-0.6,1.4-0.9c5.3-3,14-3,19.4,0
		c0.2,0.1,0.3,0.2,0.5,0.3c0.3,0.2,0.6,0.4,0.8,0.6c0.1,0.1,0.2,0.2,0.4,0.3c0.1,0.1,0.2,0.2,0.3,0.3c0.7,0.6,1.2,1.4,1.5,2.2
		c0.1,0.1,0.1,0.2,0.1,0.4c0.2,0.5,0.2,1,0.2,1.6c0,1.5-0.7,2.9-2.1,4.2c-0.5,0.5-1.2,0.9-1.9,1.4c-0.5,0.3-1.2,0.6-1.8,0.8
		C172.6,452.7,165.2,452.4,160.3,449.7z"/>
	
		<linearGradient id="SVGID_42_" gradientUnits="userSpaceOnUse" x1="163.326" y1="59.0025" x2="177.208" y2="59.0025" gradientTransform="matrix(1 0 0 -1 0 524)">
		<stop  offset="0" style="stop-color:#3459A8"/>
		<stop  offset="1" style="stop-color:#097DBD"/>
	</linearGradient>
	<path class="st45" d="M175.4,463.1c-0.1,0.4-0.8,0.7-1.6,0.7h-7c-0.4,0-0.8-0.1-1.2-0.3c-0.2-0.1-0.4-0.3-0.4-0.5l-1.9-5.2v8.4
		l1.9,5.2c0.1,0.2,0.2,0.3,0.4,0.5c0.3,0.2,0.7,0.3,1.2,0.3h7c0.7,0,1.5-0.3,1.6-0.7l1.8-5.2v-8.4L175.4,463.1z"/>
	
		<linearGradient id="SVGID_43_" gradientUnits="userSpaceOnUse" x1="114.2623" y1="90.1691" x2="112.6083" y2="132.4071" gradientTransform="matrix(1 0 0 -1 0 524)">
		<stop  offset="0" style="stop-color:#3459A8"/>
		<stop  offset="1" style="stop-color:#097DBD"/>
	</linearGradient>
	<path class="st46" d="M110.8,390.7c-0.1-0.1-0.2-0.3-0.2-0.4v6.6c0,0.1,0.1,0.3,0.2,0.4l4.2,3.6v-6.6L110.8,390.7z"/>
	
		<linearGradient id="SVGID_44_" gradientUnits="userSpaceOnUse" x1="152.2368" y1="91.6556" x2="150.5828" y2="133.8946" gradientTransform="matrix(1 0 0 -1 0 524)">
		<stop  offset="0" style="stop-color:#3459A8"/>
		<stop  offset="1" style="stop-color:#097DBD"/>
	</linearGradient>
	<path class="st47" d="M152.7,391l-4,3.5v6.6l4-3.5c0.1-0.1,0.2-0.3,0.2-0.4v-6.6C152.9,390.8,152.9,390.9,152.7,391z"/>
	
		<linearGradient id="SVGID_45_" gradientUnits="userSpaceOnUse" x1="134.4116" y1="114.6969" x2="129.2596" y2="127.1009" gradientTransform="matrix(1 0 0 -1 0 524)">
		<stop  offset="0" style="stop-color:#3459A8"/>
		<stop  offset="1" style="stop-color:#097DBD"/>
	</linearGradient>
	<path class="st48" d="M142.5,399.9v6.6c0-1.6-1-3.2-3.1-4.4c-4.2-2.4-11.1-2.4-15.3,0c-2.1,1.3-3.1,2.8-3.1,4.4v-6.6
		c0-1.6,1-3.1,3.1-4.4c4.2-2.4,11-2.4,15.3,0C141.5,396.8,142.5,398.3,142.5,399.9z"/>
	
		<linearGradient id="SVGID_46_" gradientUnits="userSpaceOnUse" x1="155.6307" y1="91.789" x2="153.9767" y2="134.027" gradientTransform="matrix(1 0 0 -1 0 524)">
		<stop  offset="0" style="stop-color:#3459A8"/>
		<stop  offset="1" style="stop-color:#097DBD"/>
	</linearGradient>
	<path class="st49" d="M157.5,402l-6.9,0.8v6.6l6.9-0.8c0.6-0.1,1-0.4,1-0.7v-6.6C158.6,401.7,158.1,402,157.5,402z"/>
	
		<linearGradient id="SVGID_47_" gradientUnits="userSpaceOnUse" x1="110.0038" y1="90.0023" x2="108.3498" y2="132.2413" gradientTransform="matrix(1 0 0 -1 0 524)">
		<stop  offset="0" style="stop-color:#3459A8"/>
		<stop  offset="1" style="stop-color:#097DBD"/>
	</linearGradient>
	<path class="st50" d="M105.8,402.1c-0.2,0-0.5-0.1-0.6-0.2c-0.2-0.1-0.4-0.3-0.4-0.5v6.6c0,0.2,0.1,0.4,0.4,0.5
		c0.2,0.1,0.4,0.2,0.6,0.2l7.1,0.8V403L105.8,402.1z"/>
	
		<linearGradient id="SVGID_48_" gradientUnits="userSpaceOnUse" x1="114.004" y1="130.1174" x2="113.159" y2="91.5614" gradientTransform="matrix(1 0 0 -1 0 524)">
		<stop  offset="0" style="stop-color:#51C4CC"/>
		<stop  offset="1" style="stop-color:#097DBD"/>
	</linearGradient>
	<path class="st51" d="M114.4,405.2v6.6c-0.6-0.7-1.2-1.4-1.5-2.1v-6.6C113.4,403.7,113.8,404.4,114.4,405.2z"/>
	
		<linearGradient id="SVGID_49_" gradientUnits="userSpaceOnUse" x1="149.9347" y1="129.3303" x2="149.0887" y2="90.7743" gradientTransform="matrix(1 0 0 -1 0 524)">
		<stop  offset="0" style="stop-color:#51C4CC"/>
		<stop  offset="1" style="stop-color:#097DBD"/>
	</linearGradient>
	<path class="st52" d="M150.6,402.9v6.6c-0.4,0.9-1,1.8-1.9,2.6v-6.6C149.5,404.6,150.2,403.8,150.6,402.9z"/>
	
		<linearGradient id="SVGID_50_" gradientUnits="userSpaceOnUse" x1="138.8624" y1="91.0232" x2="139.2434" y2="114.6872" gradientTransform="matrix(1 0 0 -1 0 524)">
		<stop  offset="0" style="stop-color:#3459A8"/>
		<stop  offset="1" style="stop-color:#097DBD"/>
	</linearGradient>
	<path class="st53" d="M141,409.9v6.6c-1.2,0.3-2.4,0.6-3.6,0.8v-6.6C138.6,410.5,139.8,410.2,141,409.9z"/>
	
		<linearGradient id="SVGID_51_" gradientUnits="userSpaceOnUse" x1="123.8776" y1="91.2601" x2="124.2596" y2="114.924" gradientTransform="matrix(1 0 0 -1 0 524)">
		<stop  offset="0" style="stop-color:#3459A8"/>
		<stop  offset="1" style="stop-color:#097DBD"/>
	</linearGradient>
	<path class="st54" d="M126.5,410.8v6.6c-1.6-0.2-3.1-0.6-4.6-1.2v-6.6C123.3,410.1,124.9,410.5,126.5,410.8z"/>
	
		<linearGradient id="SVGID_52_" gradientUnits="userSpaceOnUse" x1="110.374" y1="110.3495" x2="121.866" y2="110.3495" gradientTransform="matrix(1 0 0 -1 0 524)">
		<stop  offset="0" style="stop-color:#3459A8"/>
		<stop  offset="1" style="stop-color:#097DBD"/>
	</linearGradient>
	<path class="st55" d="M116.3,411.8c-0.5,0.2-1.2,0.2-1.6-0.1l-3.9-2.3c-0.2-0.1-0.4-0.3-0.4-0.5v6.6c0,0.2,0.1,0.4,0.4,0.5l3.9,2.3
		c0.4,0.2,1.2,0.3,1.6,0.1l5.6-2.1v-6.6L116.3,411.8z"/>
	
		<linearGradient id="SVGID_53_" gradientUnits="userSpaceOnUse" x1="140.975" y1="109.9143" x2="152.817" y2="109.9143" gradientTransform="matrix(1 0 0 -1 0 524)">
		<stop  offset="0" style="stop-color:#3459A8"/>
		<stop  offset="1" style="stop-color:#097DBD"/>
	</linearGradient>
	<path class="st56" d="M152.5,409.8l-3.9,2.3c-0.4,0.2-1.2,0.3-1.6,0.1l-6-2.3v6.6l6,2.3c0.5,0.2,1.2,0.2,1.6-0.1l3.9-2.3
		c0.2-0.1,0.4-0.3,0.4-0.5v-6.6C152.8,409.5,152.7,409.7,152.5,409.8z"/>
	
		<linearGradient id="SVGID_54_" gradientUnits="userSpaceOnUse" x1="131.3176" y1="139.3365" x2="132.0806" y2="94.2985" gradientTransform="matrix(1 0 0 -1 0 524)">
		<stop  offset="0" style="stop-color:#51C4CC"/>
		<stop  offset="1" style="stop-color:#097DBD"/>
	</linearGradient>
	<path class="st57" d="M158.5,398.1c0-0.2-0.1-0.4-0.4-0.5c-0.2-0.1-0.4-0.2-0.6-0.2l-4.5-0.5l-2.6-0.3c-0.4-0.7-0.8-1.4-1.6-2.1
		l4-3.5c0.1-0.1,0.2-0.2,0.2-0.4c0-0.2-0.1-0.4-0.4-0.5l-3.9-2.3c-0.4-0.2-1.2-0.3-1.6-0.1l-6,2.3c-1.4-0.4-2.7-0.7-4.1-0.9
		l-1.6-4.4c0-0.1-0.2-0.3-0.3-0.4c-0.2-0.1-0.5-0.2-0.9-0.2h-5.6c-0.6,0-1.2,0.2-1.3,0.6l-1.6,4.5c-1,0.2-2,0.4-2.9,0.7l-6.5-2.5
		c-0.5-0.2-1.2-0.2-1.6,0.1l-3.9,2.3c-0.2,0.1-0.4,0.3-0.4,0.5c0,0.1,0.1,0.3,0.2,0.4l4.2,3.6c-0.7,0.7-1.4,1.6-1.8,2.4l-2.6,0.3
		l-4.7,0.5c-0.6,0.1-1,0.4-1,0.7v3.2c0,0.1,0,0.1,0,0.2c0.1,0.1,0.2,0.2,0.3,0.3c0.2,0.1,0.4,0.2,0.6,0.2l7.1,0.8
		c0.3,0.7,0.8,1.5,1.5,2.1l-1.5,1.3l-2.4,2.1c-0.1,0.1-0.2,0.3-0.2,0.4c0,0.1,0,0.2,0.1,0.3c0.1,0.1,0.1,0.1,0.2,0.2l3.5,2l0.2,0.1
		l0.2,0.1c0.4,0.2,1.2,0.3,1.6,0.1l5.6-2.1c1.5,0.5,3,0.8,4.6,1.2l1.5,4.1c0.1,0.1,0.2,0.3,0.3,0.4c0.2,0.1,0.5,0.2,0.9,0.2h5.6
		c0.6,0,1.2-0.2,1.3-0.6l1.5-4.2c1.3-0.2,2.4-0.5,3.6-0.8l6,2.3c0.5,0.2,1.2,0.2,1.6-0.1l0.1-0.1l0.1-0.1l1.7-0.9l1.9-1.2
		c0.2-0.1,0.4-0.3,0.4-0.5v-0.1c0-0.1-0.1-0.2-0.2-0.3l-2.1-1.8l-1.9-1.6c0.8-0.8,1.5-1.7,1.9-2.6l6.9-0.8c0.6-0.1,1-0.4,1-0.7
		L158.5,398.1z M124.2,404.3c-0.6-0.3-1.2-0.7-1.6-1.2c-0.5-0.5-1-1.2-1.3-1.7c-0.2-0.5-0.3-1-0.3-1.6c0-0.7,0.2-1.4,0.6-2.1
		c0.1-0.2,0.2-0.4,0.4-0.5c0.1-0.2,0.3-0.4,0.5-0.5c0.2-0.2,0.4-0.3,0.6-0.5c0.3-0.2,0.6-0.5,1-0.7c4.2-2.4,11-2.4,15.3,0
		c0.1,0.1,0.2,0.2,0.4,0.2c0.2,0.2,0.5,0.3,0.7,0.5c0.1,0.1,0.2,0.2,0.3,0.2c0.1,0.1,0.2,0.2,0.3,0.3c0.5,0.5,0.9,1.2,1.2,1.7
		c0,0.1,0.1,0.2,0.1,0.3c0.1,0.4,0.2,0.8,0.2,1.2c0,1.2-0.5,2.3-1.6,3.2c-0.4,0.4-0.9,0.7-1.6,1.2c-0.4,0.2-0.9,0.5-1.4,0.6
		C133.8,406.7,128,406.5,124.2,404.3z"/>
	
		<linearGradient id="SVGID_55_" gradientUnits="userSpaceOnUse" x1="126.473" y1="107.577" x2="137.394" y2="107.577" gradientTransform="matrix(1 0 0 -1 0 524)">
		<stop  offset="0" style="stop-color:#3459A8"/>
		<stop  offset="1" style="stop-color:#097DBD"/>
	</linearGradient>
	<path class="st58" d="M135.9,414.9c-0.1,0.3-0.6,0.6-1.3,0.6h-5.6c-0.3,0-0.6-0.1-0.9-0.2c-0.2-0.1-0.3-0.2-0.3-0.4l-1.5-4.1v6.6
		l1.5,4.1c0.1,0.1,0.2,0.3,0.3,0.4c0.2,0.1,0.5,0.2,0.9,0.2h5.6c0.6,0,1.2-0.2,1.3-0.6l1.5-4.2v-6.6L135.9,414.9z"/>
</g>
</svg>
